<?xml version="1.0" encoding="UTF-8"?>
<svg width="24px" height="24px" viewBox="0 0 24 24" version="1.1" xmlns="http://www.w3.org/2000/svg" xmlns:xlink="http://www.w3.org/1999/xlink">
    <!-- Generator: Sketch 46.2 (44496) - http://www.bohemiancoding.com/sketch -->
    <title>2-1</title>
    <desc>Created with Sketch.</desc>
    <defs></defs>
    <g id="Symbols" stroke="none" stroke-width="1" fill="none" fill-rule="evenodd">
        <g id="2-1" fill="#FFFFFF">
            <g id="Group-13">
                <rect id="Rectangle-18-Copy" opacity="0.480000019" x="0" y="0" width="24" height="24"></rect>
                <path d="M16.0615234,17.4794922 L16.0615234,19 L7.54492188,19 C7.53320307,18.6191387 7.59472589,18.2529314 7.72949219,17.9013672 C7.94629015,17.3212862 8.29345464,16.7500028 8.77099609,16.1875 C9.24853754,15.6249972 9.93847205,14.9746131 10.8408203,14.2363281 C12.2412179,13.0878849 13.1874975,12.178226 13.6796875,11.5073242 C14.1718775,10.8364224 14.4179688,10.2021514 14.4179688,9.60449219 C14.4179688,8.97753593 14.1938499,8.44873262 13.7456055,8.01806641 C13.297361,7.58740019 12.7128942,7.37207031 11.9921875,7.37207031 C11.2304649,7.37207031 10.621096,7.60058365 10.1640625,8.05761719 C9.70702896,8.51465072 9.47558597,9.14745689 9.46972656,9.95605469 L7.84375,9.7890625 C7.95507868,8.57616581 8.3740198,7.65185865 9.10058594,7.01611328 C9.82715207,6.38036792 10.8027283,6.0625 12.0273438,6.0625 C13.2636781,6.0625 14.2421839,6.40527001 14.9628906,7.09082031 C15.6835974,7.77637062 16.0439453,8.62597149 16.0439453,9.63964844 C16.0439453,10.155276 15.9384776,10.6621069 15.7275391,11.1601562 C15.5166005,11.6582056 15.1665064,12.1826144 14.6772461,12.7333984 C14.1879858,13.2841824 13.3750057,14.0400343 12.2382812,15.0009766 C11.2890578,15.7978555 10.6796888,16.3383775 10.4101562,16.6225586 C10.1406237,16.9067397 9.91796963,17.1923814 9.7421875,17.4794922 L16.0615234,17.4794922 Z" id="2"></path>
            </g>
        </g>
    </g>
</svg>