<?xml version="1.0" encoding="UTF-8"?>
<svg width="24px" height="24px" viewBox="0 0 24 24" version="1.1" xmlns="http://www.w3.org/2000/svg" xmlns:xlink="http://www.w3.org/1999/xlink">
    <!-- Generator: Sketch 46.2 (44496) - http://www.bohemiancoding.com/sketch -->
    <title>2-2</title>
    <desc>Created with Sketch.</desc>
    <defs>
        <linearGradient x1="50%" y1="0%" x2="50%" y2="100%" id="linearGradient-1">
            <stop stop-color="#02FBCA" offset="0%"></stop>
            <stop stop-color="#19B7FE" offset="100%"></stop>
        </linearGradient>
    </defs>
    <g id="Symbols" stroke="none" stroke-width="1" fill="none" fill-rule="evenodd">
        <g id="2-2">
            <g id="Group-13">
                <rect id="Rectangle-18-Copy" fill="#FFFFFF" x="0" y="0" width="24" height="24"></rect>
                <path d="M16.1054688,16.7060547 L16.1054688,19 L7.44824219,19 C7.54199266,18.1328082 7.82323984,17.311039 8.29199219,16.534668 C8.76074453,15.7582969 9.68651652,14.728522 11.0693359,13.4453125 C12.1826228,12.4081979 12.8652331,11.70508 13.1171875,11.3359375 C13.4570329,10.8261693 13.6269531,10.3222681 13.6269531,9.82421875 C13.6269531,9.27343475 13.4790054,8.85009914 13.1831055,8.55419922 C12.8872056,8.2582993 12.4785182,8.11035156 11.9570312,8.11035156 C11.4414037,8.11035156 11.0312515,8.26562345 10.7265625,8.57617188 C10.4218735,8.8867203 10.246094,9.40234015 10.1992188,10.1230469 L7.73828125,9.87695312 C7.88476636,8.51757133 8.3447227,7.54199515 9.11816406,6.95019531 C9.89160543,6.35839548 10.8583926,6.0625 12.0185547,6.0625 C13.2900454,6.0625 14.2890589,6.40527001 15.015625,7.09082031 C15.7421911,7.77637062 16.1054688,8.62890115 16.1054688,9.6484375 C16.1054688,10.2285185 16.0014659,10.7807591 15.793457,11.3051758 C15.5854482,11.8295925 15.2558616,12.3789034 14.8046875,12.953125 C14.5058579,13.3339863 13.9668008,13.8818324 13.1875,14.5966797 C12.4081992,15.311527 11.9145518,15.7861316 11.706543,16.0205078 C11.4985341,16.254884 11.3300788,16.4833973 11.2011719,16.7060547 L16.1054688,16.7060547 Z" id="2" fill="url(#linearGradient-1)"></path>
            </g>
        </g>
    </g>
</svg>