<?xml version="1.0" encoding="UTF-8"?>
<svg width="24px" height="24px" viewBox="0 0 24 24" version="1.1" xmlns="http://www.w3.org/2000/svg" xmlns:xlink="http://www.w3.org/1999/xlink">
    <!-- Generator: Sketch 46.2 (44496) - http://www.bohemiancoding.com/sketch -->
    <title>3-1</title>
    <desc>Created with Sketch.</desc>
    <defs></defs>
    <g id="Symbols" stroke="none" stroke-width="1" fill="none" fill-rule="evenodd">
        <g id="3-1" fill="#FFFFFF">
            <g id="Group-7">
                <rect id="Rectangle-18-Copy-2" opacity="0.480000019" x="0" y="0" width="24" height="24"></rect>
                <path d="M7.75585938,15.5986328 L9.33789062,15.3876953 C9.51953216,16.2841842 9.8286111,16.9301738 10.2651367,17.3256836 C10.7016623,17.7211934 11.2333953,17.9189453 11.8603516,17.9189453 C12.6044959,17.9189453 13.2329076,17.6611354 13.7456055,17.1455078 C14.2583033,16.6298802 14.5146484,15.9912147 14.5146484,15.2294922 C14.5146484,14.5029261 14.2773461,13.903811 13.8027344,13.4321289 C13.3281226,12.9604469 12.724613,12.7246094 11.9921875,12.7246094 C11.6933579,12.7246094 11.3212913,12.7832025 10.8759766,12.9003906 L11.0517578,11.5117188 C11.1572271,11.5234376 11.2421872,11.5292969 11.3066406,11.5292969 C11.9804721,11.5292969 12.5869114,11.3535174 13.1259766,11.0019531 C13.6650418,10.6503889 13.9345703,10.1084021 13.9345703,9.37597656 C13.9345703,8.79589554 13.7382832,8.31543159 13.3457031,7.93457031 C12.953123,7.55370903 12.4462922,7.36328125 11.8251953,7.36328125 C11.2099579,7.36328125 10.6972677,7.55663869 10.2871094,7.94335938 C9.87695107,8.33008006 9.61328184,8.91015238 9.49609375,9.68359375 L7.9140625,9.40234375 C8.10742284,8.34179157 8.54687157,7.52002245 9.23242188,6.93701172 C9.91797218,6.35400099 10.7705027,6.0625 11.7900391,6.0625 C12.4931676,6.0625 13.140622,6.2133774 13.7324219,6.51513672 C14.3242217,6.81689604 14.7768539,7.22851302 15.090332,7.75 C15.4038102,8.27148698 15.5605469,8.82519238 15.5605469,9.41113281 C15.5605469,9.96777622 15.4111343,10.4746071 15.1123047,10.9316406 C14.8134751,11.3886742 14.3710967,11.7519518 13.7851562,12.0214844 C14.5468788,12.1972665 15.1386698,12.562009 15.5605469,13.1157227 C15.982424,13.6694364 16.1933594,14.3623005 16.1933594,15.1943359 C16.1933594,16.3193416 15.7832072,17.2729453 14.9628906,18.0551758 C14.142574,18.8374063 13.105475,19.2285156 11.8515625,19.2285156 C10.7206975,19.2285156 9.78174202,18.8916049 9.03466797,18.2177734 C8.28759392,17.5439419 7.86132865,16.6709038 7.75585938,15.5986328 Z" id="3"></path>
            </g>
        </g>
    </g>
</svg>