<?xml version="1.0" encoding="UTF-8"?>
<svg width="24px" height="24px" viewBox="0 0 24 24" version="1.1" xmlns="http://www.w3.org/2000/svg" xmlns:xlink="http://www.w3.org/1999/xlink">
    <!-- Generator: Sketch 46.2 (44496) - http://www.bohemiancoding.com/sketch -->
    <title>3-2</title>
    <desc>Created with Sketch.</desc>
    <defs>
        <linearGradient x1="50%" y1="0%" x2="50%" y2="100%" id="linearGradient-1">
            <stop stop-color="#02FBCA" offset="0%"></stop>
            <stop stop-color="#19B7FE" offset="100%"></stop>
        </linearGradient>
    </defs>
    <g id="Symbols" stroke="none" stroke-width="1" fill="none" fill-rule="evenodd">
        <g id="3-2">
            <g id="Group-7">
                <rect id="Rectangle-18-Copy-2" fill="#FFFFFF" x="0" y="0" width="24" height="24"></rect>
                <path d="M7.67675781,15.5810547 L10.0673828,15.2910156 C10.1435551,15.9003937 10.3486311,16.3662093 10.6826172,16.6884766 C11.0166032,17.0107438 11.4208961,17.171875 11.8955078,17.171875 C12.405276,17.171875 12.8344709,16.9785176 13.1831055,16.5917969 C13.53174,16.2050762 13.7060547,15.683597 13.7060547,15.0273438 C13.7060547,14.4062469 13.5390642,13.9140643 13.2050781,13.5507812 C12.8710921,13.1874982 12.4638696,13.0058594 11.9833984,13.0058594 C11.6669906,13.0058594 11.2890647,13.0673822 10.8496094,13.1904297 L11.1220703,11.1777344 C11.7900424,11.1953126 12.2998029,11.0502945 12.6513672,10.7426758 C13.0029314,10.4350571 13.1787109,10.0263697 13.1787109,9.51660156 C13.1787109,9.08300564 13.049806,8.73730598 12.7919922,8.47949219 C12.5341784,8.2216784 12.1914084,8.09277344 11.7636719,8.09277344 C11.3417948,8.09277344 10.9814468,8.23925635 10.6826172,8.53222656 C10.3837876,8.82519678 10.2021488,9.25292687 10.1376953,9.81542969 L7.86132812,9.42871094 C8.01953204,8.64941017 8.25829918,8.0268578 8.57763672,7.56103516 C8.89697425,7.09521251 9.3422823,6.72900524 9.91357422,6.46240234 C10.4848661,6.19579945 11.1249965,6.0625 11.8339844,6.0625 C13.0468811,6.0625 14.0195276,6.44921488 14.7519531,7.22265625 C15.3554718,7.85547191 15.6572266,8.57030852 15.6572266,9.3671875 C15.6572266,10.4980525 15.0390687,11.4003873 13.8027344,12.0742188 C14.5410193,12.2324227 15.1313454,12.5869113 15.5737305,13.1376953 C16.0161155,13.6884793 16.2373047,14.3535117 16.2373047,15.1328125 C16.2373047,16.2636775 15.8242229,17.2275351 14.9980469,18.0244141 C14.1718709,18.821293 13.1435608,19.2197266 11.9130859,19.2197266 C10.7470645,19.2197266 9.78027728,18.8842807 9.01269531,18.2133789 C8.24511335,17.5424771 7.7998053,16.6650445 7.67675781,15.5810547 Z" id="3" fill="url(#linearGradient-1)"></path>
            </g>
        </g>
    </g>
</svg>