<?xml version="1.0" encoding="UTF-8"?>
<svg width="48px" height="48px" viewBox="0 0 48 48" version="1.1" xmlns="http://www.w3.org/2000/svg" xmlns:xlink="http://www.w3.org/1999/xlink">
    <!-- Generator: Sketch 46.2 (44496) - http://www.bohemiancoding.com/sketch -->
    <title>联系我们1</title>
    <desc>Created with Sketch.</desc>
    <defs>
        <linearGradient x1="0%" y1="0%" x2="100%" y2="100%" id="linearGradient-1">
            <stop stop-color="#02FBCA" offset="0%"></stop>
            <stop stop-color="#19B7FE" offset="100%"></stop>
        </linearGradient>
    </defs>
    <g id="Symbols" stroke="none" stroke-width="1" fill="none" fill-rule="evenodd">
        <g id="联系我们1" fill-rule="nonzero" fill="url(#linearGradient-1)">
            <g id="表单" transform="translate(2.000000, 0.000000)">
                <path d="M28.9083196,8.92009789 C28.557456,8.92009789 28.2624181,8.80019577 28.0232058,8.56039155 C27.7839935,8.32058732 27.5846263,8.04084538 27.4251041,7.72116574 C27.2655819,7.4014861 27.1459758,7.07377976 27.0662857,6.73804672 C26.9865956,6.40231368 26.9467328,6.12257175 26.9466973,5.89882091 L26.9466973,5.94118471e-16 L27.042368,5.94118471e-16 C27.3294157,5.94118471e-16 27.6005359,0.0319644049 27.8557288,0.0958932147 C28.1109217,0.159822024 28.4219225,0.311670745 28.7887312,0.551439377 C29.15554,0.791208009 29.6021098,1.12692325 30.1284407,1.55858509 C30.6547716,1.99024694 31.316636,2.55773971 32.1140339,3.2610634 C32.9752478,4.0283871 33.6610299,4.67582647 34.1713801,5.20338154 C34.6817304,5.7309366 35.0724746,6.17852725 35.3436126,6.5461535 C35.6147506,6.91377976 35.7821921,7.22550389 35.845937,7.48132592 C35.909682,7.73714794 35.9415722,7.96096997 35.9416077,8.15279199 L35.9416077,8.92004449 L28.9082131,8.92004449 L28.9083196,8.92009789 Z M43.788523,31.5080756 C43.8841937,31.7638621 43.9479742,32.0835951 43.9798644,32.4672748 C44.0117546,32.8509544 43.852268,33.2186162 43.5014044,33.5702603 C43.3418822,33.7301535 43.1983584,33.88202 43.0708329,34.0258598 C42.9433075,34.1696997 42.8316562,34.2896018 42.7358789,34.3855662 C42.608318,34.5134594 42.4966844,34.6093704 42.4009782,34.6732992 L38.3340145,30.6448765 C38.525427,30.4849833 38.7407571,30.2931435 38.9800048,30.0693571 C39.2192526,29.8455706 39.4186021,29.6697486 39.5780533,29.541891 C39.9608426,29.1902113 40.3755044,29.0383448 40.8220387,29.0862914 C41.268573,29.134238 41.6353995,29.2381758 41.9225182,29.3981046 C42.2414915,29.5579978 42.5844003,29.8377397 42.9512446,30.2373304 C43.3180888,30.636921 43.5971816,31.0605384 43.788523,31.5081824 L43.788523,31.5080756 Z M26.8988087,35.9681246 C27.6005714,35.9681246 28.1906651,35.7763026 28.6690896,35.3926585 L19.3869007,45.0800623 L6.18136077,45.0800623 C5.5753753,45.0800623 4.91352865,44.9042225 4.19582082,44.5525428 C3.47811299,44.2008632 2.80825827,43.7372725 2.18625666,43.1617709 C1.56425504,42.5862692 1.0459322,41.9228832 0.631288136,41.1716129 C0.216644068,40.4203426 0.00928652139,39.64501 0.00921549637,38.8456151 L0.00921549637,6.18655395 C0.00921549637,5.51515907 0.160729621,4.81178198 0.463757869,4.07642269 C0.766786118,3.3410634 1.18143019,2.67767742 1.70769007,2.08626474 C2.23394996,1.49485206 2.8320339,0.999261402 3.50194189,0.59949277 C4.17184988,0.199724138 4.87359483,-0.000106784881 5.60717676,4.36162889e-10 L23.9323245,4.36162889e-10 L23.9323245,5.99471413 C23.9323245,6.60214461 24.0280129,7.25755729 24.2193898,7.96095217 C24.4107667,8.66434705 24.7058047,9.31176863 25.1045036,9.90321691 C25.5032026,10.4946652 26.0215432,10.9902202 26.6595254,11.3898821 C27.2975077,11.7895439 28.0630508,11.9893749 28.956155,11.9893749 L35.9417143,11.9893749 L35.9417143,27.8632792 L29.3868329,34.6732458 C29.737661,34.1617086 29.9130751,33.6022247 29.9130751,32.9947942 C29.9130751,32.1635417 29.6180371,31.4521735 29.0279613,30.8606897 C28.4378854,30.2692058 27.7281679,29.9734816 26.8988087,29.9735172 L8.95645036,29.9735172 C8.12716223,29.9735172 7.42541727,30.2692414 6.8512155,30.8606897 C6.27701372,31.4521379 5.98994835,32.1635061 5.99001937,32.9947942 C5.9900904,33.8260823 6.27715577,34.5294594 6.8512155,35.1049255 C7.42527522,35.6803915 8.12702018,35.9681246 8.95645036,35.9681246 L26.8988087,35.9681246 Z M8.95645036,17.984089 C8.12716223,17.984089 7.42541727,18.2798131 6.8512155,18.8712614 C6.27701372,19.4627097 5.98994835,20.1740779 5.99001937,21.005366 C5.9900904,21.8366541 6.27715577,22.5400311 6.8512155,23.1154972 C7.42527522,23.6909633 8.12702018,23.9786963 8.95645036,23.9786963 L26.8988087,23.9786963 C27.7280969,23.9786963 28.4378144,23.6909633 29.0279613,23.1154972 C29.6181082,22.5400311 29.9131461,21.8366541 29.9130751,21.005366 C29.913004,20.1740779 29.6179661,19.4627097 29.0279613,18.8712614 C28.4379564,18.2798131 27.7282389,17.984089 26.8988087,17.984089 L8.95645036,17.984089 Z M26.9945327,42.0107853 L28.8127022,40.1883871 C29.2911977,39.7087786 29.8175109,39.1732681 30.3916416,38.5818554 C30.9657724,37.9904427 31.5399209,37.4069499 32.1140872,36.8313771 C33.4856513,35.4565873 35.0326828,33.9219577 36.7551816,32.2274883 L40.7742567,36.2559644 L32.8317772,44.2169166 C32.3852074,44.664525 32.0104084,45.0481691 31.7073801,45.3678487 C31.4043519,45.6875284 31.2369104,45.8633682 31.2050557,45.8953682 C31.0455335,46.0232614 30.8701017,46.1591457 30.6787603,46.3030211 C30.4874189,46.4468966 30.296042,46.5667809 30.1046295,46.6626741 C29.9132171,46.7585673 29.6181792,46.8784694 29.2195157,47.0223804 C28.8208523,47.1662914 28.414163,47.3021758 27.9994479,47.4300334 C27.5847328,47.557891 27.1859984,47.6697842 26.8032446,47.765713 C26.4204907,47.8616418 26.1334431,47.9255884 25.9421017,47.9575528 C25.5593123,48.0214816 25.3041195,47.973535 25.176523,47.813713 C25.0489266,47.653891 25.0170363,47.3821402 25.0808523,46.9984605 C25.1127425,46.8066029 25.176523,46.5188699 25.2721937,46.1352614 C25.3678644,45.7516529 25.4795157,45.36 25.6071477,44.9603026 C25.7347797,44.5606051 25.8544036,44.1849344 25.9660194,43.8332903 C26.0776352,43.4816463 26.1653511,43.241842 26.2291671,43.1138776 C26.4205795,42.6982336 26.6757724,42.3305717 26.9947458,42.0108921 L26.9945327,42.0107853 Z" id="Shape"></path>
            </g>
        </g>
    </g>
</svg>