<?xml version="1.0" encoding="UTF-8"?>
<svg width="154px" height="19px" viewBox="0 0 154 19" version="1.1" xmlns="http://www.w3.org/2000/svg" xmlns:xlink="http://www.w3.org/1999/xlink">
    <!-- Generator: Sketch 46.2 (44496) - http://www.bohemiancoding.com/sketch -->
    <title>Group 13</title>
    <desc>Created with Sketch.</desc>
    <defs>
        <linearGradient x1="0%" y1="0%" x2="100%" y2="100%" id="linearGradient-1">
            <stop stop-color="#02FBCA" offset="0%"></stop>
            <stop stop-color="#19B7FE" offset="100%"></stop>
        </linearGradient>
    </defs>
    <g id="UI" stroke="none" stroke-width="1" fill="none" fill-rule="evenodd">
        <g id="1440px-Octopus-X-Home" transform="translate(-177.000000, -637.000000)">
            <g id="Group-7" transform="translate(0.000000, 60.000000)">
                <g id="Group" transform="translate(120.000000, 98.000000)">
                    <g id="button/blue-fill" transform="translate(0.000000, 441.000000)">
                        <g id="Group-13" transform="translate(57.000000, 36.000000)">
                            <g id="联系我们1" transform="translate(0.000000, 3.000000)" fill="url(#linearGradient-1)">
                                <g id="表单" transform="translate(0.666667, 0.000000)">
                                    <path d="M9.63610654,2.97336596 C9.519152,2.97336596 9.42080603,2.93339859 9.3410686,2.85346385 C9.26133118,2.77352911 9.19487544,2.68028179 9.14170137,2.57372191 C9.08852731,2.46716203 9.0486586,2.35792659 9.02209524,2.24601557 C8.99553188,2.13410456 8.98224428,2.04085725 8.98223245,1.96627364 L8.98223245,2.7205436e-16 L9.01412268,2.7205436e-16 C9.10980522,2.7205436e-16 9.20017864,0.0106548016 9.28524294,0.0319644049 C9.37030724,0.0532740082 9.47397417,0.103890248 9.59624374,0.183813126 C9.71851332,0.263736003 9.86736992,0.375641083 10.0428136,0.519528365 C10.2182572,0.663415647 10.4388787,0.852579904 10.704678,1.08702113 C10.9917493,1.3427957 11.2203433,1.55860882 11.39046,1.73446051 C11.5605768,1.9103122 11.6908249,2.05950908 11.7812042,2.18205117 C11.8715835,2.30459325 11.9273974,2.4085013 11.9486457,2.49377531 C11.969894,2.57904931 11.9805241,2.65365666 11.9805359,2.71759733 L11.9805359,2.97334816 L9.63607103,2.97334816 L9.63610654,2.97336596 Z M14.5961743,10.5026919 C14.6280646,10.587954 14.6493247,10.6945317 14.6599548,10.8224249 C14.6705849,10.9503181 14.6174227,11.0728721 14.5004681,11.1900868 C14.4472941,11.2433845 14.3994528,11.2940067 14.3569443,11.3419533 C14.3144358,11.3898999 14.2772187,11.4298673 14.245293,11.4618554 C14.2027727,11.5044865 14.1655615,11.5364568 14.1336594,11.5577664 L12.7780048,10.2149588 C12.841809,10.1616611 12.9135857,10.0977145 12.9933349,10.023119 C13.0730842,9.94852354 13.139534,9.8899162 13.1926844,9.847297 C13.3202809,9.73007045 13.4585015,9.67944828 13.6073462,9.69543048 C13.756191,9.71141268 13.8784665,9.74605858 13.9741727,9.79936819 C14.0804972,9.85266593 14.1948001,9.94591324 14.3170815,10.0791101 C14.4393629,10.212307 14.5323939,10.3535128 14.5961743,10.5027275 L14.5961743,10.5026919 Z M8.96626957,11.9893749 C9.20019048,11.9893749 9.39688835,11.9254342 9.5563632,11.7975528 L6.46230024,15.0266874 L2.06045359,15.0266874 C1.85845843,15.0266874 1.63784288,14.9680742 1.39860694,14.8508476 C1.159371,14.7336211 0.936086091,14.5790908 0.72875222,14.387257 C0.521418348,14.1954231 0.348644068,13.9742944 0.210429379,13.723871 C0.0722146893,13.4734475 0.00309550713,13.2150033 0.00307183212,12.9485384 L0.00307183212,2.06218465 C0.00307183212,1.83838636 0.0535765402,1.60392733 0.154585956,1.35880756 C0.255595373,1.1136878 0.393810062,0.89255914 0.569230024,0.69542158 C0.744649987,0.498284019 0.944011299,0.333087134 1.16731396,0.199830923 C1.39061663,0.0665747128 1.62453161,-3.55949603e-05 1.86905892,1.45384669e-10 L7.97744149,1.45384669e-10 L7.97744149,1.99823804 C7.97744149,2.20071487 8.00933764,2.41918576 8.07312994,2.65365072 C8.13692225,2.88811568 8.23526823,3.10392288 8.36816788,3.3010723 C8.50106753,3.49822173 8.67384773,3.66340675 8.88650847,3.79662736 C9.09916922,3.92984798 9.35435028,3.99645829 9.65205165,3.99645829 L11.9805714,3.99645829 L11.9805714,9.28775973 L9.79561098,11.5577486 C9.91255367,11.3872362 9.97102502,11.2007416 9.97102502,10.9982647 C9.97102502,10.7211806 9.87267904,10.4840578 9.67598709,10.2868966 C9.47929513,10.0897353 9.24272263,9.99116055 8.96626957,9.99117241 L2.98548345,9.99117241 C2.70905408,9.99117241 2.47513909,10.0897471 2.2837385,10.2868966 C2.09233791,10.484046 1.99664945,10.7211687 1.99667312,10.9982647 C1.9966968,11.2753608 2.09238526,11.5098198 2.2837385,11.7016418 C2.47509174,11.8934638 2.70900673,11.9893749 2.98548345,11.9893749 L8.96626957,11.9893749 Z M2.98548345,5.99469633 C2.70905408,5.99469633 2.47513909,6.09327104 2.2837385,6.29042047 C2.09233791,6.48756989 1.99664945,6.72469262 1.99667312,7.00178865 C1.9966968,7.27888469 2.09238526,7.51334372 2.2837385,7.70516574 C2.47509174,7.89698776 2.70900673,7.99289878 2.98548345,7.99289878 L8.96626957,7.99289878 C9.24269895,7.99289878 9.47927146,7.89698776 9.67598709,7.70516574 C9.87270272,7.51334372 9.9710487,7.27888469 9.97102502,7.00178865 C9.97100135,6.72469262 9.87265537,6.48756989 9.67598709,6.29042047 C9.47931881,6.09327104 9.2427463,5.99469633 8.96626957,5.99469633 L2.98548345,5.99469633 Z M8.99817756,14.0035951 L9.60423406,13.396129 C9.76373258,13.2362595 9.9391703,13.057756 10.1305472,12.8606185 C10.3219241,12.6634809 10.513307,12.4689833 10.7046957,12.2771257 C11.1618838,11.8188624 11.6775609,11.3073192 12.2517272,10.7424961 L13.5914189,12.0853215 L10.9439257,14.7389722 C10.7950691,14.888175 10.6701361,15.0160564 10.5691267,15.1226162 C10.4681173,15.2291761 10.4123035,15.2877894 10.4016852,15.2984561 C10.3485112,15.3410871 10.2900339,15.3863819 10.2262534,15.4343404 C10.162473,15.4822989 10.0986807,15.5222603 10.0348765,15.5542247 C9.97107237,15.5861891 9.87272639,15.6261565 9.73983858,15.6741268 C9.60695077,15.7220971 9.47138768,15.7673919 9.33314931,15.8100111 C9.19491095,15.8526303 9.06199946,15.8899281 8.93441485,15.9219043 C8.80683024,15.9538806 8.7111477,15.9751961 8.64736723,15.9858509 C8.51977078,16.0071605 8.43470648,15.9911783 8.39217433,15.9379043 C8.34964218,15.8846303 8.33901211,15.7940467 8.3602841,15.6661535 C8.37091418,15.602201 8.39217433,15.50629 8.42406457,15.3784205 C8.4559548,15.250551 8.49317191,15.12 8.5357159,14.9867675 C8.57825989,14.853535 8.61813452,14.7283115 8.65533979,14.6110968 C8.69254506,14.4938821 8.7217837,14.4139473 8.74305569,14.3712925 C8.80685983,14.2327445 8.89192413,14.1101906 8.99824859,14.0036307 L8.99817756,14.0035951 Z" id="Shape" fill-rule="nonzero"></path>
                                </g>
                            </g>
                            <path d="M154,11.5 L137,20 C140.215272,16.9898602 141.822909,14.1565269 141.822909,11.5 C141.822909,8.84347312 140.215272,6.01013979 137,3 L154,11.5 Z" id="Triangle-2" fill="#0FD2E9"></path>
                            <text id="Contact-us" font-family="Roboto-Regular, Roboto" font-size="18" font-weight="normal" fill="#0FD2E9">
                                <tspan x="26.0634766" y="19">Contact us</tspan>
                            </text>
                            <path d="M125.5,2.5 L125.5,20.5" id="Line" stroke="#0FD2E9" stroke-linecap="square"></path>
                        </g>
                    </g>
                </g>
            </g>
        </g>
    </g>
</svg>