<?xml version="1.0" encoding="UTF-8"?>
<svg width="48px" height="48px" viewBox="0 0 48 48" version="1.1" xmlns="http://www.w3.org/2000/svg" xmlns:xlink="http://www.w3.org/1999/xlink">
    <!-- Generator: Sketch 46.2 (44496) - http://www.bohemiancoding.com/sketch -->
    <title>邮箱2</title>
    <desc>Created with Sketch.</desc>
    <defs>
        <linearGradient x1="0%" y1="0%" x2="100%" y2="100%" id="linearGradient-1">
            <stop stop-color="#02FBCA" offset="0%"></stop>
            <stop stop-color="#19B7FE" offset="100%"></stop>
        </linearGradient>
        <linearGradient x1="50%" y1="0%" x2="50%" y2="100%" id="linearGradient-2">
            <stop stop-color="#02FBCA" offset="0%"></stop>
            <stop stop-color="#19B7FE" offset="100%"></stop>
        </linearGradient>
        <circle id="path-3" cx="24" cy="24" r="24"></circle>
    </defs>
    <g id="Symbols" stroke="none" stroke-width="1" fill="none" fill-rule="evenodd">
        <g id="邮箱2">
            <g id="Group-2-Copy">
                <g id="icon/icon-holder/blue">
                    <g id="layer">
                        <use fill="url(#linearGradient-1)" fill-rule="evenodd" xlink:href="#path-3"></use>
                        <circle stroke="url(#linearGradient-2)" stroke-width="1" cx="24" cy="24" r="23.5"></circle>
                    </g>
                </g>
                <g id="电话" transform="translate(12.000000, 14.000000)" fill-rule="nonzero" fill="#FFFFFF">
                    <g id="Email-(1)">
                        <path d="M0.557113429,1.47 L12.9936659,11.0416667 L25.4302183,1.47166666 C25.781047,2.00666666 25.9873213,2.65333332 25.9873213,3.34833334 L25.9873213,16.65 C25.9873213,18.5 24.5336561,19.9983333 22.7486527,19.9983333 L3.23867906,19.9983333 C1.4444765,19.9900665 -0.00448648471,18.4927857 1.04390294e-05,16.6516667 L1.04390294e-05,3.35 C1.04390294e-05,2.65 0.206284732,2.00666666 0.557113429,1.47 Z M1.80288013,0.34666666 C2.23654338,0.125 2.72380546,0 3.23867906,0 L22.7486527,0 C23.2635263,0 23.7507884,0.125 24.1828274,0.34666666 L12.9936659,8.95833334 L1.80288013,0.34666666 Z" id="Shape"></path>
                    </g>
                </g>
            </g>
        </g>
    </g>
</svg>