<?xml version="1.0" encoding="UTF-8"?>
<svg width="48px" height="48px" viewBox="0 0 48 48" version="1.1" xmlns="http://www.w3.org/2000/svg" xmlns:xlink="http://www.w3.org/1999/xlink" style="background: #F8F8F8;">
    <!-- Generator: Sketch 46.2 (44496) - http://www.bohemiancoding.com/sketch -->
    <title>icon-linkedin2-1</title>
    <desc>Created with Sketch.</desc>
    <defs></defs>
    <g id="Symbols" stroke="none" stroke-width="1" fill="none" fill-rule="evenodd">
        <g id="icon-linkedin2-1" fill-rule="nonzero" fill="#828282">
            <g id="linkedin-(1)">
                <path d="M39.9375,0 L8.0625,0 C3.6285,0 0,3.6285 0,8.0625 L0,39.9375 C0,44.3715 3.6285,48 8.0625,48 L39.9375,48 C44.3715,48 48,44.3715 48,39.9375 L48,8.0625 C48,3.6285 44.3715,0 39.9375,0 Z M18,39 L12,39 L12,18 L18,18 L18,39 Z M15,15 C13.3425,15 12,13.6575 12,12 C12,10.3425 13.3425,9 15,9 C16.6575,9 18,10.3425 18,12 C18,13.6575 16.6575,15 15,15 Z M39,39 L33,39 L33,27 C33,25.3425 31.6575,24 30,24 C28.3425,24 27,25.3425 27,27 L27,39 L21,39 L21,18 L27,18 L27,21.7245 C28.2375,20.025 30.129,18 32.25,18 C35.9775,18 39,21.3585 39,25.5 L39,39 Z" id="Shape"></path>
            </g>
        </g>
    </g>
</svg>