<?xml version="1.0" encoding="UTF-8"?>
<svg width="48px" height="48px" viewBox="0 0 48 48" version="1.1" xmlns="http://www.w3.org/2000/svg" xmlns:xlink="http://www.w3.org/1999/xlink">
    <!-- Generator: Sketch 46.2 (44496) - http://www.bohemiancoding.com/sketch -->
    <title>icon-twitter1-1</title>
    <desc>Created with Sketch.</desc>
    <defs>
        <path d="M40.4180172,3.20405652 C38.6263317,1.23213115 36.0656823,0 33.2307692,0 C27.7967586,0 23.3867514,4.54702791 23.3867514,10.1547712 C23.3867514,10.9512744 23.4713374,11.7232896 23.6405094,12.4669504 C15.4561717,12.042922 8.20099858,8.00498593 3.34114757,1.85335208 C2.49272421,3.35871733 2.00827704,5.10509568 2.00827704,6.96489196 C2.00827704,10.4860031 3.74613516,13.5946855 6.39008891,15.4158166 C4.77782821,15.3668406 3.25656156,14.9054359 1.92625424,14.1501756 L1.92625424,14.2739042 C1.92625424,19.1959846 5.32122927,23.3022292 9.82992017,24.2314829 C9.00456572,24.4699183 8.13307345,24.5897805 7.23466745,24.5897805 C6.60027234,24.5897805 5.98125651,24.5279162 5.38146477,24.4093429 C6.63487571,28.4421236 10.2695111,31.3793902 14.579553,31.4580094 C11.2102101,34.1826174 6.96168531,35.806556 2.34918431,35.806556 C1.55458842,35.806556 0.768963768,35.7601577 0,35.6673612 C4.35746135,38.5440524 9.53643233,40.2259887 15.0960404,40.2259887 C33.2115451,40.2259887 43.1145169,24.754752 43.1145169,11.3340599 C43.1145169,10.8919878 43.1068272,10.4512045 43.0901663,10.0181542 C45.0138574,8.58625282 46.685072,6.79863158 48,4.76226421 C46.2365098,5.56907812 44.3371693,6.11554633 42.3455531,6.36042595 C44.3794623,5.10509568 45.9404587,3.11512655 46.6761007,0.743660744 C44.7716338,1.90619452 42.6672363,2.75167364 40.4180172,3.20405652 Z" id="path-1"></path>
    </defs>
    <g id="Symbols" stroke="none" stroke-width="1" fill="none" fill-rule="evenodd">
        <g id="icon-twitter1-1">
            <g id="layer" transform="translate(0.000000, 4.000000)">
                <mask id="mask-2" fill="white">
                    <use xlink:href="#path-1"></use>
                </mask>
                <use fill="#FFFFFF" xlink:href="#path-1"></use>
                <g mask="url(#mask-2)" fill="#FFFFFF">
                    <g transform="translate(0.000000, -4.000000)">
                        <rect x="0" y="0" width="48" height="48"></rect>
                    </g>
                </g>
            </g>
        </g>
    </g>
</svg>