<?xml version="1.0" encoding="UTF-8"?>
<svg width="48px" height="48px" viewBox="0 0 48 48" version="1.1" xmlns="http://www.w3.org/2000/svg" xmlns:xlink="http://www.w3.org/1999/xlink">
    <!-- Generator: Sketch 46.2 (44496) - http://www.bohemiancoding.com/sketch -->
    <title>icon-Facebook1-1</title>
    <desc>Created with Sketch.</desc>
    <defs>
        <path d="M22.6885246,8.4893617 C21.3770492,8.10638298 19.8688525,7.85106383 18.4918033,7.85106383 C16.7868852,7.85106383 13.1147541,8.93617021 13.1147541,11.0425532 L13.1147541,16.0851064 L21.8360656,16.0851064 L21.8360656,24.5744681 L13.1147541,24.5744681 L13.1147541,48 L4.32786885,48 L4.32786885,24.5744681 L0,24.5744681 L0,16.0851064 L4.32786885,16.0851064 L4.32786885,11.8085106 C4.32786885,5.36170213 7.3442623,0 14.6229508,0 C17.1147541,0 21.5737705,0.127659574 24,0.957446809 L22.6885246,8.4893617 Z" id="path-1"></path>
    </defs>
    <g id="Symbols" stroke="none" stroke-width="1" fill="none" fill-rule="evenodd">
        <g id="icon-Facebook1-1">
            <g id="layer" transform="translate(12.000000, 0.000000)">
                <mask id="mask-2" fill="white">
                    <use xlink:href="#path-1"></use>
                </mask>
                <use fill="#FFFFFF" xlink:href="#path-1"></use>
                <g mask="url(#mask-2)" fill="#FFFFFF">
                    <g transform="translate(-12.000000, 0.000000)">
                        <rect x="0" y="0" width="48" height="48"></rect>
                    </g>
                </g>
            </g>
        </g>
    </g>
</svg>