<?xml version="1.0" encoding="UTF-8"?>
<svg width="48px" height="48px" viewBox="0 0 48 48" version="1.1" xmlns="http://www.w3.org/2000/svg" xmlns:xlink="http://www.w3.org/1999/xlink" style="background: #F8F8F8;">
    <!-- Generator: Sketch 46.2 (44496) - http://www.bohemiancoding.com/sketch -->
    <title>icon-linkedin1-2</title>
    <desc>Created with Sketch.</desc>
    <defs>
        <linearGradient x1="0%" y1="0%" x2="100%" y2="100%" id="linearGradient-1">
            <stop stop-color="#02FBCA" offset="0%"></stop>
            <stop stop-color="#19B7FE" offset="100%"></stop>
        </linearGradient>
    </defs>
    <g id="Symbols" stroke="none" stroke-width="1" fill="none" fill-rule="evenodd">
        <g id="icon-linkedin1-2">
            <rect id="Rectangle-2" fill="#FFFFFF" x="0" y="0" width="49" height="48"></rect>
            <g id="linkedin-(1)" transform="translate(4.000000, 4.000000)" fill-rule="nonzero" fill="url(#linearGradient-1)">
                <path d="M33.28125,0 L6.71875,0 C3.02375,0 0,3.02375 0,6.71875 L0,33.28125 C0,36.97625 3.02375,40 6.71875,40 L33.28125,40 C36.97625,40 40,36.97625 40,33.28125 L40,6.71875 C40,3.02375 36.97625,0 33.28125,0 Z M15,32.5 L10,32.5 L10,15 L15,15 L15,32.5 Z M12.5,12.5 C11.11875,12.5 10,11.38125 10,10 C10,8.61875 11.11875,7.5 12.5,7.5 C13.88125,7.5 15,8.61875 15,10 C15,11.38125 13.88125,12.5 12.5,12.5 Z M32.5,32.5 L27.5,32.5 L27.5,22.5 C27.5,21.11875 26.38125,20 25,20 C23.61875,20 22.5,21.11875 22.5,22.5 L22.5,32.5 L17.5,32.5 L17.5,15 L22.5,15 L22.5,18.10375 C23.53125,16.6875 25.1075,15 26.875,15 C29.98125,15 32.5,17.79875 32.5,21.25 L32.5,32.5 Z" id="Shape"></path>
            </g>
        </g>
    </g>
</svg>