<?xml version="1.0" encoding="UTF-8"?>
<svg width="48px" height="48px" viewBox="0 0 48 48" version="1.1" xmlns="http://www.w3.org/2000/svg" xmlns:xlink="http://www.w3.org/1999/xlink" style="background: #F8F8F8;">
    <!-- Generator: Sketch 46.2 (44496) - http://www.bohemiancoding.com/sketch -->
    <title>icon-twitter1-2</title>
    <desc>Created with Sketch.</desc>
    <defs>
        <path d="M33.681681,2.62849636 C32.1886097,1.01079748 30.0547353,0 27.6923077,0 C23.1639655,0 19.4889595,3.73022332 19.4889595,8.33062061 C19.4889595,8.98404409 19.5594478,9.61737849 19.7004245,10.2274519 C12.8801431,9.87959373 6.83416549,6.56701163 2.78428964,1.52042549 C2.07727018,2.75537471 1.6735642,4.18804268 1.6735642,5.71375477 C1.6735642,8.60235173 3.1217793,11.1526065 5.32507409,12.646599 C3.98152351,12.6064208 2.7138013,12.2279004 1.60521187,11.6083112 L1.60521187,11.7098138 C1.60521187,15.7477172 4.43435773,19.1163372 8.19160014,19.8786646 C7.50380477,20.0742687 6.77756121,20.1725994 6.02888954,20.1725994 C5.50022695,20.1725994 4.98438042,20.1218481 4.48455397,20.0245747 C5.52906309,23.3329275 8.55792593,25.7425587 12.1496275,25.8070552 C9.34184178,28.0422287 5.80140443,29.3744513 1.95765359,29.3744513 C1.29549035,29.3744513 0.64080314,29.3363878 0,29.2602608 C3.63121779,31.620198 7.94702694,33 12.5800336,33 C27.6762876,33 35.9287641,20.3079363 35.9287641,9.29806799 C35.9287641,8.93540739 35.922356,8.57380411 35.908472,8.21854474 C37.5115478,7.04386274 38.9042266,5.57736055 40,3.90679568 C38.5304248,4.56867771 36.947641,5.01698119 35.2879609,5.2178719 C36.9828852,4.18804268 38.2837156,2.55554132 38.8967506,0.610073372 C37.3096948,1.56377559 35.5560302,2.25737721 33.681681,2.62849636 Z" id="path-1"></path>
        <linearGradient x1="0%" y1="0%" x2="100%" y2="100%" id="linearGradient-3">
            <stop stop-color="#02FBCA" offset="0%"></stop>
            <stop stop-color="#19B7FE" offset="100%"></stop>
        </linearGradient>
    </defs>
    <g id="Symbols" stroke="none" stroke-width="1" fill="none" fill-rule="evenodd">
        <g id="icon-twitter1-2">
            <rect id="Rectangle-2" fill="#FFFFFF" x="0" y="0" width="49" height="48"></rect>
            <g id="layer" transform="translate(4.000000, 8.000000)">
                <mask id="mask-2" fill="white">
                    <use xlink:href="#path-1"></use>
                </mask>
                <use fill="#FFFFFF" xlink:href="#path-1"></use>
                <g mask="url(#mask-2)" fill="url(#linearGradient-3)">
                    <g transform="translate(0.000000, -3.000000)">
                        <rect x="0" y="0" width="40" height="40"></rect>
                    </g>
                </g>
            </g>
        </g>
    </g>
</svg>