<?xml version="1.0" encoding="UTF-8"?>
<svg width="48px" height="48px" viewBox="0 0 48 48" version="1.1" xmlns="http://www.w3.org/2000/svg" xmlns:xlink="http://www.w3.org/1999/xlink" style="background: #F8F8F8;">
    <!-- Generator: Sketch 46.2 (44496) - http://www.bohemiancoding.com/sketch -->
    <title>gengduo</title>
    <desc>Created with Sketch.</desc>
    <defs></defs>
    <g id="Symbols" stroke="none" stroke-width="1" fill="none" fill-rule="evenodd">
        <g id="gengduo" fill="#4F4F4F">
            <g id="Page-1" transform="translate(2.000000, 5.000000)">
                <path d="M23.2864197,0.153731509 L5.31276481,0.239208281 C3.77283841,0.165917956 2.63765306,1.16829618 2.63765306,1.16829618 L0,3.40562496 L2.53820026,5.91843611 C3.78707271,7.07666355 5.02789153,6.99891058 5.02789153,6.99891058 L22.652057,6.92596353 L30.0686886,6.86863574 L40.0463703,6.79174097 C41.3842071,6.83911364 42.4384817,5.89166025 42.4384817,5.89166025 L45.1532997,3.58893659 L42.7651214,1.22459413 C41.4025619,-0.192981506 39.7970828,0.0100687399 39.7970828,0.0100687399 L23.2864197,0.153731509 Z" id="Fill-1"></path>
            </g>
            <g id="Page-1-Copy" transform="translate(2.000000, 20.000000)">
                <path d="M23.2864197,0.153731509 L5.31276481,0.239208281 C3.77283841,0.165917956 2.63765306,1.16829618 2.63765306,1.16829618 L0,3.40562496 L2.53820026,5.91843611 C3.78707271,7.07666355 5.02789153,6.99891058 5.02789153,6.99891058 L22.652057,6.92596353 L30.0686886,6.86863574 L40.0463703,6.79174097 C41.3842071,6.83911364 42.4384817,5.89166025 42.4384817,5.89166025 L45.1532997,3.58893659 L42.7651214,1.22459413 C41.4025619,-0.192981506 39.7970828,0.0100687399 39.7970828,0.0100687399 L23.2864197,0.153731509 Z" id="Fill-1"></path>
            </g>
            <g id="Page-1-Copy-2" transform="translate(2.000000, 35.000000)">
                <path d="M23.2864197,0.153731509 L5.31276481,0.239208281 C3.77283841,0.165917956 2.63765306,1.16829618 2.63765306,1.16829618 L0,3.40562496 L2.53820026,5.91843611 C3.78707271,7.07666355 5.02789153,6.99891058 5.02789153,6.99891058 L22.652057,6.92596353 L30.0686886,6.86863574 L40.0463703,6.79174097 C41.3842071,6.83911364 42.4384817,5.89166025 42.4384817,5.89166025 L45.1532997,3.58893659 L42.7651214,1.22459413 C41.4025619,-0.192981506 39.7970828,0.0100687399 39.7970828,0.0100687399 L23.2864197,0.153731509 Z" id="Fill-1"></path>
            </g>
        </g>
    </g>
</svg>