<?xml version="1.0" encoding="UTF-8"?>
<svg width="48px" height="48px" viewBox="0 0 48 48" version="1.1" xmlns="http://www.w3.org/2000/svg" xmlns:xlink="http://www.w3.org/1999/xlink" style="background: #F8F8F8;">
    <!-- Generator: Sketch 46.2 (44496) - http://www.bohemiancoding.com/sketch -->
    <title>gengduo copy</title>
    <desc>Created with Sketch.</desc>
    <defs>
        <linearGradient x1="0%" y1="0%" x2="100%" y2="100%" id="linearGradient-1">
            <stop stop-color="#02FBCA" offset="0%"></stop>
            <stop stop-color="#19B7FE" offset="100%"></stop>
        </linearGradient>
    </defs>
    <g id="Symbols" stroke="none" stroke-width="1" fill="none" fill-rule="evenodd">
        <g id="gengduo-copy" fill="url(#linearGradient-1)">
            <g id="Group">
                <g id="Page-1-Copy-3" transform="translate(24.000000, 24.500000) rotate(-45.000000) translate(-24.000000, -24.500000) translate(-5.000000, 20.000000)">
                    <path d="M29.8762456,0.197654797 L6.81622456,0.307553505 C4.84051426,0.213323087 3.38408272,1.50209508 3.38408272,1.50209508 L0,4.37866066 L3.25648577,7.60941786 C4.85877673,9.09856742 6.45073498,8.99859931 6.45073498,8.99859931 L29.0623645,8.90481026 L38.5778293,8.83110309 L51.379096,8.73223839 C53.0955274,8.79314611 54.4481512,7.57499175 54.4481512,7.57499175 L57.9312357,4.61434705 L54.8672267,1.57447817 C53.1190763,-0.248119079 51.0592626,0.0129455227 51.0592626,0.0129455227 L29.8762456,0.197654797 Z" id="Fill-1"></path>
                </g>
                <g id="Page-1-Copy-4" transform="translate(24.707107, 24.207107) rotate(-315.000000) translate(-24.707107, -24.207107) translate(-4.292893, 19.707107)">
                    <path d="M29.8762456,0.197654797 L6.81622456,0.307553505 C4.84051426,0.213323087 3.38408272,1.50209508 3.38408272,1.50209508 L-5.95079541e-14,4.37866066 L3.25648577,7.60941786 C4.85877673,9.09856742 6.45073498,8.99859931 6.45073498,8.99859931 L29.0623645,8.90481026 L38.5778293,8.83110309 L51.379096,8.73223839 C53.0955274,8.79314611 54.4481512,7.57499175 54.4481512,7.57499175 L57.9312357,4.61434705 L54.8672267,1.57447817 C53.1190763,-0.248119079 51.0592626,0.0129455227 51.0592626,0.0129455227 L29.8762456,0.197654797 Z" id="Fill-1"></path>
                </g>
            </g>
        </g>
    </g>
</svg>