<?xml version="1.0" encoding="UTF-8"?>
<svg width="24px" height="24px" viewBox="0 0 24 24" version="1.1" xmlns="http://www.w3.org/2000/svg" xmlns:xlink="http://www.w3.org/1999/xlink">
    <!-- Generator: Sketch 46.2 (44496) - http://www.bohemiancoding.com/sketch -->
    <title>分享1</title>
    <desc>Created with Sketch.</desc>
    <defs>
        <linearGradient x1="0%" y1="0%" x2="100%" y2="100%" id="linearGradient-1">
            <stop stop-color="#02FBCA" offset="0%"></stop>
            <stop stop-color="#19B7FE" offset="100%"></stop>
        </linearGradient>
    </defs>
    <g id="UI" stroke="none" stroke-width="1" fill="none" fill-rule="evenodd">
        <g id="1440px-Octopus-X-Home" transform="translate(-120.000000, -543.000000)">
            <g id="Group-7" transform="translate(0.000000, 60.000000)">
                <g id="Group" transform="translate(120.000000, 98.000000)">
                    <g id="分享1" transform="translate(0.000000, 385.000000)">
                        <rect id="Rectangle" fill="#FFFFFF" x="0" y="0" width="24" height="24"></rect>
                        <g id="分享" stroke-width="1" transform="translate(5.500000, 5.500000)" fill="url(#linearGradient-1)">
                            <path d="M10.8722871,8.76394567 C10.186462,8.76394567 9.578517,9.09206711 9.192742,9.59858756 L4.75510678,6.95611078 C4.80551789,6.76171311 4.83510011,6.55916589 4.83510011,6.34907144 C4.83510011,6.28809567 4.83026989,6.22862933 4.82604489,6.16886111 L9.26579333,3.49378322 C9.65337967,3.94747744 10.2287236,4.23605433 10.8722871,4.23605433 C12.0392754,4.23605433 12.9853028,3.290027 12.9853028,2.12303867 C12.9853028,0.956050333 12.0392754,0.010023 10.8722871,0.010023 C9.70529878,0.010023 8.75927144,0.956050333 8.75927144,2.12303867 C8.75927144,2.35456433 8.797607,2.576431 8.86643189,2.785016 L4.46441667,5.06767733 C4.03698244,4.38758811 3.28233389,3.93419433 2.42022444,3.93419433 C1.08660933,3.93419433 0.00534877778,5.01545489 0.00534877778,6.34907 C0.00534877778,7.68268511 1.08660933,8.76394567 2.42022444,8.76394567 C3.135028,8.76394567 3.77527078,8.451521 4.21749467,7.95798033 L8.82990622,10.3435757 C8.78553289,10.5141256 8.75957333,10.6922227 8.75957333,10.8769613 C8.75957333,12.0439497 9.70560067,12.989977 10.872589,12.989977 C12.0395773,12.989977 12.9856047,12.0439497 12.9856047,10.8769613 C12.9856047,9.709973 12.0392754,8.76394567 10.8722871,8.76394567 Z" id="Shape" fill-rule="nonzero"></path>
                        </g>
                    </g>
                </g>
            </g>
        </g>
    </g>
</svg>