<?xml version="1.0" encoding="UTF-8"?>
<svg width="48px" height="48px" viewBox="0 0 48 48" version="1.1" xmlns="http://www.w3.org/2000/svg" xmlns:xlink="http://www.w3.org/1999/xlink">
    <!-- Generator: Sketch 46.2 (44496) - http://www.bohemiancoding.com/sketch -->
    <title>分享1</title>
    <desc>Created with Sketch.</desc>
    <defs>
        <linearGradient x1="0%" y1="0%" x2="100%" y2="100%" id="linearGradient-1">
            <stop stop-color="#02FBCA" offset="0%"></stop>
            <stop stop-color="#19B7FE" offset="100%"></stop>
        </linearGradient>
    </defs>
    <g id="Symbols" stroke="none" stroke-width="1" fill="none" fill-rule="evenodd">
        <g id="分享1">
            <rect id="Rectangle" fill="#FFFFFF" x="0" y="0" width="48" height="48"></rect>
            <g id="分享" transform="translate(11.000000, 11.000000)" fill-rule="nonzero" fill="url(#linearGradient-1)">
                <path d="M21.7445742,17.5278913 C20.372924,17.5278913 19.157034,18.1841342 18.385484,19.1971751 L9.51021356,13.9122216 C9.61103578,13.5234262 9.67020022,13.1183318 9.67020022,12.6981429 C9.67020022,12.5761913 9.66053978,12.4572587 9.65208978,12.3377222 L18.5315867,6.98756644 C19.3067593,7.89495489 20.4574471,8.47210867 21.7445742,8.47210867 C24.0785509,8.47210867 25.9706056,6.580054 25.9706056,4.24607733 C25.9706056,1.91210067 24.0785509,0.020046 21.7445742,0.020046 C19.4105976,0.020046 17.5185429,1.91210067 17.5185429,4.24607733 C17.5185429,4.70912867 17.595214,5.152862 17.7328638,5.570032 L8.92883333,10.1353547 C8.07396489,8.77517622 6.56466778,7.86838867 4.84044889,7.86838867 C2.17321867,7.86838867 0.0106975556,10.0309098 0.0106975556,12.69814 C0.0106975556,15.3653702 2.17321867,17.5278913 4.84044889,17.5278913 C6.270056,17.5278913 7.55054156,16.903042 8.43498933,15.9159607 L17.6598124,20.6871513 C17.5710658,21.0282511 17.5191467,21.3844453 17.5191467,21.7539227 C17.5191467,24.0878993 19.4112013,25.979954 21.745178,25.979954 C24.0791547,25.979954 25.9712093,24.0878993 25.9712093,21.7539227 C25.9712093,19.419946 24.0785509,17.5278913 21.7445742,17.5278913 Z" id="Shape"></path>
            </g>
        </g>
    </g>
</svg>