<?xml version="1.0" encoding="UTF-8"?>
<svg width="354px" height="394px" viewBox="0 0 354 394" version="1.1" xmlns="http://www.w3.org/2000/svg" xmlns:xlink="http://www.w3.org/1999/xlink">
    <!-- Generator: Sketch 46.2 (44496) - http://www.bohemiancoding.com/sketch -->
    <title>img-advertisers-3</title>
    <desc>Created with Sketch.</desc>
    <defs>
        <linearGradient x1="16.1817088%" y1="-9.74807226%" x2="96.9447255%" y2="102.71486%" id="linearGradient-1">
            <stop stop-color="#91FFE9" offset="0%"></stop>
            <stop stop-color="#7BF2ED" offset="18.5905488%"></stop>
            <stop stop-color="#19B7FE" offset="100%"></stop>
            <stop stop-color="#19B7FE" offset="100%"></stop>
        </linearGradient>
        <linearGradient x1="50%" y1="0%" x2="50%" y2="100%" id="linearGradient-2">
            <stop stop-color="#BDFFF2" stop-opacity="0.0428838315" offset="0%"></stop>
            <stop stop-color="#FFFFFF" offset="100%"></stop>
        </linearGradient>
        <linearGradient x1="0%" y1="0%" x2="100%" y2="5.08810913%" id="linearGradient-3">
            <stop stop-color="#02FBCA" offset="0%"></stop>
            <stop stop-color="#1985FE" offset="100%"></stop>
        </linearGradient>
        <polygon id="path-4" points="156.001356 322.060363 0 233.33877 0 245.263162 156.001356 335 312 243.535892 312 232"></polygon>
        <filter x="-14.1%" y="-27.2%" width="128.2%" height="185.4%" filterUnits="objectBoundingBox" id="filter-5">
            <feOffset dx="0" dy="16" in="SourceAlpha" result="shadowOffsetOuter1"></feOffset>
            <feGaussianBlur stdDeviation="12" in="shadowOffsetOuter1" result="shadowBlurOuter1"></feGaussianBlur>
            <feColorMatrix values="0 0 0 0 0.0588235294   0 0 0 0 0.823529412   0 0 0 0 0.91372549  0 0 0 1 0" type="matrix" in="shadowBlurOuter1"></feColorMatrix>
        </filter>
        <linearGradient x1="0%" y1="0%" x2="100%" y2="100%" id="linearGradient-6">
            <stop stop-color="#DCFFF8" offset="0%"></stop>
            <stop stop-color="#78D5FF" offset="100%"></stop>
        </linearGradient>
        <filter x="-33.3%" y="-6.4%" width="166.7%" height="117.9%" filterUnits="objectBoundingBox" id="filter-7">
            <feOffset dx="0" dy="2" in="SourceAlpha" result="shadowOffsetOuter1"></feOffset>
            <feGaussianBlur stdDeviation="2" in="shadowOffsetOuter1" result="shadowBlurOuter1"></feGaussianBlur>
            <feColorMatrix values="0 0 0 0 0.133333333   0 0 0 0 0.764705882   0 0 0 0 0.839215686  0 0 0 0.157325634 0" type="matrix" in="shadowBlurOuter1" result="shadowMatrixOuter1"></feColorMatrix>
            <feMerge>
                <feMergeNode in="shadowMatrixOuter1"></feMergeNode>
                <feMergeNode in="SourceGraphic"></feMergeNode>
            </feMerge>
        </filter>
        <linearGradient x1="0%" y1="0%" x2="100%" y2="100%" id="linearGradient-8">
            <stop stop-color="#E9FFFB" offset="0%"></stop>
            <stop stop-color="#D6F2FF" offset="100%"></stop>
        </linearGradient>
        <linearGradient x1="0%" y1="0%" x2="100%" y2="100%" id="linearGradient-9">
            <stop stop-color="#BBFFF2" offset="0%"></stop>
            <stop stop-color="#A9E4FF" offset="100%"></stop>
        </linearGradient>
        <polygon id="path-10" points="0.197788269 0.165386605 10.763885 0.165386605 10.763885 6.83081171 0.197788269 6.83081171 0.197788269 0.165386605"></polygon>
        <linearGradient x1="0%" y1="0%" x2="100%" y2="100%" id="linearGradient-12">
            <stop stop-color="#02FBCA" offset="0%"></stop>
            <stop stop-color="#19B7FE" offset="100%"></stop>
        </linearGradient>
        <filter x="-23.3%" y="-6.2%" width="146.7%" height="117.5%" filterUnits="objectBoundingBox" id="filter-13">
            <feOffset dx="0" dy="2" in="SourceAlpha" result="shadowOffsetOuter1"></feOffset>
            <feGaussianBlur stdDeviation="2" in="shadowOffsetOuter1" result="shadowBlurOuter1"></feGaussianBlur>
            <feColorMatrix values="0 0 0 0 0.133333333   0 0 0 0 0.764705882   0 0 0 0 0.839215686  0 0 0 0.157325634 0" type="matrix" in="shadowBlurOuter1" result="shadowMatrixOuter1"></feColorMatrix>
            <feMerge>
                <feMergeNode in="shadowMatrixOuter1"></feMergeNode>
                <feMergeNode in="SourceGraphic"></feMergeNode>
            </feMerge>
        </filter>
        <polygon id="path-14" points="0 0.624414815 0 16.7784888 12.5671304 16.7784888 12.5671304 0.624414815 1.82664496e-20 0.624414815"></polygon>
        <path d="M0.594391304,0.219061728 C0.718391304,0.462024691 0.847782609,0.753580247 0.921913043,1.01948971 C0.95426087,1.7240823 1.02973913,2.39897942 1.11195652,2.95509465 L1.11195652,2.95644444 L1.11195652,2.95779424 C1.23056522,3.79331687 1.36130435,4.36158025 1.36130435,4.36158025 C1.49204348,4.75976955 1.6066087,5.23624691 1.70769565,5.75996708 C1.93682609,6.9720823 2.08508696,8.42176132 2.17134783,9.47595062 C2.20908696,9.95647737 2.24143478,10.4410535 2.26973913,10.9215802 L2.43013043,16.4800329 L2.43013043,16.4827325 C2.43013043,16.4827325 2.26569565,15.9954568 1.99073913,15.1990782 C1.82765217,6.30258436 0.76826087,3.90804938 0.76826087,3.90804938 L0.594391304,0.219061728 Z" id="path-16"></path>
        <filter x="-18.9%" y="-6.7%" width="137.8%" height="118.7%" filterUnits="objectBoundingBox" id="filter-18">
            <feOffset dx="0" dy="2" in="SourceAlpha" result="shadowOffsetOuter1"></feOffset>
            <feGaussianBlur stdDeviation="2" in="shadowOffsetOuter1" result="shadowBlurOuter1"></feGaussianBlur>
            <feColorMatrix values="0 0 0 0 0.133333333   0 0 0 0 0.764705882   0 0 0 0 0.839215686  0 0 0 0.4 0" type="matrix" in="shadowBlurOuter1" result="shadowMatrixOuter1"></feColorMatrix>
            <feMerge>
                <feMergeNode in="shadowMatrixOuter1"></feMergeNode>
                <feMergeNode in="SourceGraphic"></feMergeNode>
            </feMerge>
        </filter>
        <polygon id="path-19" points="0 36.0570357 0 0.357471743 28.7935209 0.357471743 28.7935209 36.0570357"></polygon>
        <linearGradient x1="0%" y1="0%" x2="100%" y2="100%" id="linearGradient-21">
            <stop stop-color="#02FBCA" offset="0%"></stop>
            <stop stop-color="#A9E4FF" offset="100%"></stop>
        </linearGradient>
        <polygon id="path-22" points="0.237060004 0.350069252 10.7707891 0.350069252 10.7707891 13.7358273 0.237060004 13.7358273 0.237060004 0.350069252"></polygon>
        <linearGradient x1="0%" y1="0%" x2="100%" y2="100%" id="linearGradient-24">
            <stop stop-color="#E8FFFB" offset="0%"></stop>
            <stop stop-color="#45C5FF" offset="100%"></stop>
        </linearGradient>
        <filter x="-26.7%" y="-6.2%" width="150.0%" height="117.3%" filterUnits="objectBoundingBox" id="filter-25">
            <feOffset dx="0" dy="2" in="SourceAlpha" result="shadowOffsetOuter1"></feOffset>
            <feGaussianBlur stdDeviation="2" in="shadowOffsetOuter1" result="shadowBlurOuter1"></feGaussianBlur>
            <feColorMatrix values="0 0 0 0 0.133333333   0 0 0 0 0.764705882   0 0 0 0 0.839215686  0 0 0 0.157325634 0" type="matrix" in="shadowBlurOuter1" result="shadowMatrixOuter1"></feColorMatrix>
            <feMerge>
                <feMergeNode in="shadowMatrixOuter1"></feMergeNode>
                <feMergeNode in="SourceGraphic"></feMergeNode>
            </feMerge>
        </filter>
        <path d="M5.46450169,0.711585815 C4.8699204,0.711585902 3.93655251,0.899019472 3.35473913,1.94440678 L0.311347826,10.1572881 C0.311347826,10.1572881 0.0123612704,10.8518193 -7.97038234e-10,11.8852459 L2.7723069e-10,11.8852458 L2.7723069e-10,12.0170007 C0.00889123198,12.7597177 0.170204796,13.6611309 0.684695652,14.599322 C0.684695652,14.599322 3.14178261,17.7084746 5.115,17.8115254 L5.27673913,13.7301695 L3.88713044,12.9694915 C3.88713044,12.9694915 2.98004348,11.8305085 3.72808696,10.4176271 L6.61108696,2.97627119 C6.61108696,2.97627119 6.68203285,2.7668082 6.6820328,2.43856608 L6.6820328,2.43856593 C6.68203274,2.01518157 6.56399821,1.39418134 6.02343478,0.770169492 C6.02343478,0.770169492 5.79691341,0.711585766 5.46450169,0.711585815 L5.46449234,0.711585815 L5.46450169,0.711585815 Z" id="path-26"></path>
        <polygon id="path-28" points="0.174670962 0.515254237 10.8752043 0.515254237 10.8752043 11.2383735 0.174670962 11.2383735 0.174670962 0.515254237"></polygon>
        <polygon id="path-30" points="0.0382618244 5.42372881 9.63015504 5.42372881 9.63015504 0.71827078 0.0382618244 0.71827078 0.0382618244 5.42372881"></polygon>
        <linearGradient x1="0%" y1="0%" x2="100%" y2="100%" id="linearGradient-32">
            <stop stop-color="#A6FFED" offset="0%"></stop>
            <stop stop-color="#5FCDFF" offset="100%"></stop>
        </linearGradient>
        <linearGradient x1="50%" y1="113.536249%" x2="50%" y2="14.8489967%" id="linearGradient-33">
            <stop stop-color="#FFFFFF" stop-opacity="0" offset="0%"></stop>
            <stop stop-color="#19D4FE" offset="100%"></stop>
        </linearGradient>
        <filter x="-25.0%" y="-6.7%" width="150.0%" height="118.7%" filterUnits="objectBoundingBox" id="filter-34">
            <feOffset dx="0" dy="2" in="SourceAlpha" result="shadowOffsetOuter1"></feOffset>
            <feGaussianBlur stdDeviation="2" in="shadowOffsetOuter1" result="shadowBlurOuter1"></feGaussianBlur>
            <feColorMatrix values="0 0 0 0 0.133333333   0 0 0 0 0.764705882   0 0 0 0 0.839215686  0 0 0 0.157325634 0" type="matrix" in="shadowBlurOuter1" result="shadowMatrixOuter1"></feColorMatrix>
            <feMerge>
                <feMergeNode in="shadowMatrixOuter1"></feMergeNode>
                <feMergeNode in="SourceGraphic"></feMergeNode>
            </feMerge>
        </filter>
        <path d="M12.7021994,30.8352273 C13.2911996,30.8352275 13.8842999,30.5553232 14.33835,29.71561 C14.33835,29.71561 16.38225,4.06264952 14.33835,0.51270933 C14.33835,0.51270933 14.3046,0.507326555 14.24385,0.500598086 C9.5391,2.87305622 5.6025,1.81937799 2.90925,0.258373206 C1.8495,0.429276316 0.9234,0.693032297 0.2538,1.08597488 L0.93555,25.3636364 C0.93555,25.3636364 2.7513,26.9663577 3.888,25.3636364 L6.8418,8.07147129 C6.8418,8.07147129 7.86375,6.12425239 8.43075,8.87350478 L10.3626,29.71561 C10.3626,29.71561 11.5241996,30.8352269 12.7021994,30.8352273 L12.7021997,30.8352273 L12.7021994,30.8352273 Z" id="path-35"></path>
        <linearGradient x1="0%" y1="0%" x2="100%" y2="100%" id="linearGradient-37">
            <stop stop-color="#E9FFFB" offset="0%"></stop>
            <stop stop-color="#8ADBFF" offset="100%"></stop>
        </linearGradient>
        <path d="M14.3329281,15.9182998 C14.6309135,15.9183003 14.9471923,15.8694702 15.26885,15.7446172 C15.4835,15.6625299 15.67385,15.5790969 15.84395,15.4970096 C16.0289,12.2767644 15.91955,4.3909988 10.7261,1.7736244 C10.7261,1.7736244 8.13545,0.468301435 5.22755,0.468301435 C4.1894,0.468301435 3.1094,0.635167464 2.09285,1.08732057 C2.09285,1.08732057 1.052,1.59330144 0.07055,2.99013158 C1.40975,2.84075957 3.4388,2.95245215 6.2954,3.94961124 C12.20165,6.01121411 12.3164,12.6522129 12.42845,15.288427 C12.42845,15.288427 13.2627056,15.9182981 14.3329281,15.9182998 L14.3329281,15.9182998 L14.3329281,15.9182998 Z" id="path-38"></path>
        <polygon id="path-40" points="0.26595 0.466955742 11.6715079 0.466955742 11.6715079 8.97883961 0.26595 8.97883961 0.26595 0.466955742"></polygon>
        <polygon id="path-42" points="13.63365 0.32207186 13.63365 17.9139186 0.1188 17.9139186 0.1188 0.32207186"></polygon>
    </defs>
    <g id="Symbols" stroke="none" stroke-width="1" fill="none" fill-rule="evenodd">
        <g id="img-advertisers-3">
            <g id="Group-30-Copy" transform="translate(21.000000, 13.000000)">
                <polygon id="Fill-1" fill="url(#linearGradient-1)" points="156.001356 141 0 232.482893 156.001356 321 312 231.147209"></polygon>
                <path d="M119,256 L140,240" id="Line-2" stroke="#FFFFFF" stroke-width="2" opacity="0.437783062" stroke-linecap="square"></path>
                <path d="M183,231.333333 L239,232.666667" id="Line-2-Copy" stroke="#FFFFFF" stroke-width="2" opacity="0.437783062" stroke-linecap="square"></path>
                <path d="M172,220 L186,198" id="Line-2-Copy-2" stroke="#FFFFFF" stroke-width="2" opacity="0.437783062" stroke-linecap="square"></path>
                <path d="M137,227 L122,226" id="Line-2-Copy-3" stroke="#FFFFFF" stroke-width="2" opacity="0.437783062" stroke-linecap="square"></path>
                <polygon id="Fill-1-Copy-5" stroke="#FFFFFF" stroke-width="2" fill="url(#linearGradient-2)" opacity="0.388870018" points="87.0001564 188 69 198.673004 87.0001564 209 105 198.517174"></polygon>
                <polygon id="Fill-1-Copy-6" stroke="#FFFFFF" stroke-width="2" fill="url(#linearGradient-2)" opacity="0.388870018" points="30.0001564 221 12 231.673004 30.0001564 242 48 231.517174"></polygon>
                <g id="Fill-3">
                    <use fill="black" fill-opacity="1" filter="url(#filter-5)" xlink:href="#path-4"></use>
                    <use fill="url(#linearGradient-3)" fill-rule="evenodd" xlink:href="#path-4"></use>
                </g>
                <path d="M159.500283,218 C147.073832,218 137,224.044099 137,231.5 C137,231.843473 137.028891,232.182352 137.070811,232.518933 C137.939801,239.498681 147.645984,245 159.500283,245 C171.354583,245 181.060765,239.498681 181.929756,232.518933 C181.971676,232.182352 182,231.843473 182,231.5 C182,224.044099 171.926734,218 159.500283,218" id="Fill-6-Copy-3" stroke="#FFFFFF" fill="url(#linearGradient-6)" opacity="0.590126812"></path>
                <path d="M160.000164,222 C152.820436,222 147,225.357833 147,229.5 C147,229.690819 147.016692,229.879084 147.040913,230.066074 C147.542996,233.943712 153.151013,237 160.000164,237 C166.849315,237 172.457331,233.943712 172.959414,230.066074 C172.983635,229.879084 173,229.690819 173,229.5 C173,225.357833 167.179891,222 160.000164,222" id="Fill-6-Copy-4" fill="url(#linearGradient-6)" opacity="0.590126812"></path>
                <g id="Group-29" transform="translate(241.000000, 222.000000)" fill="url(#linearGradient-6)" opacity="0.590126812">
                    <path d="M18.0002266,0 C8.05906567,0 0,4.92482131 0,11 C0,11.2798673 0.0231126553,11.5559905 0.056648665,11.8302417 C0.751841082,17.5174438 8.51678689,22 18.0002266,22 C27.4836663,22 35.2486121,17.5174438 35.9438045,11.8302417 C35.9773405,11.5559905 36,11.2798673 36,11 C36,4.92482131 27.9413875,0 18.0002266,0" id="Fill-6-Copy-5" stroke="#FFFFFF"></path>
                    <path d="M17.307823,2.75 C11.5725379,2.75 6.92307692,5.52021199 6.92307692,8.9375 C6.92307692,9.09492533 6.93641115,9.25024464 6.95575885,9.40451093 C7.35683139,12.6035622 11.8366078,15.125 17.307823,15.125 C22.7790383,15.125 27.2588147,12.6035622 27.6598872,9.40451093 C27.6792349,9.25024464 27.6923077,9.09492533 27.6923077,8.9375 C27.6923077,5.52021199 23.0431082,2.75 17.307823,2.75" id="Fill-6-Copy-6"></path>
                </g>
                <g id="Group-29-Copy-3" transform="translate(99.000000, 221.000000)" fill="url(#linearGradient-6)" opacity="0.590126812">
                    <path d="M11.0001385,0 C4.92498458,0 0,3.1339772 0,7 C0,7.17809735 0.0141244005,7.35381212 0.0346186286,7.5283356 C0.459458439,11.1474643 5.2047031,14 11.0001385,14 C16.7955739,14 21.5408185,11.1474643 21.9656583,7.5283356 C21.9861525,7.35381212 22,7.17809735 22,7 C22,3.1339772 17.0752924,0 11.0001385,0" id="Fill-6-Copy-5" stroke="#FFFFFF"></path>
                    <path d="M10.3125779,1.4 C6.89530383,1.4 4.125,3.28038632 4.125,5.6 C4.125,5.70685841 4.13294498,5.81228727 4.14447298,5.91700136 C4.38344537,8.08847856 7.05264549,9.8 10.3125779,9.8 C13.5725103,9.8 16.2417104,8.08847856 16.4806828,5.91700136 C16.4922108,5.81228727 16.5,5.70685841 16.5,5.6 C16.5,3.28038632 13.729852,1.4 10.3125779,1.4" id="Fill-6-Copy-6"></path>
                </g>
                <g id="Group-29-Copy-2" transform="translate(181.000000, 180.000000)" fill="url(#linearGradient-6)" opacity="0.590126812">
                    <path d="M15.5001951,0 C6.939751,0 0,4.25325477 0,9.5 C0,9.74170354 0.0199025643,9.98017359 0.0487807948,10.2170269 C0.647418709,15.1287015 7.33389982,19 15.5001951,19 C23.6664904,19 30.3529715,15.1287015 30.9516095,10.2170269 C30.9804877,9.98017359 31,9.74170354 31,9.5 C31,4.25325477 24.0606392,0 15.5001951,0" id="Fill-6-Copy-5" stroke="#FFFFFF"></path>
                    <path d="M14.1522842,2.71428571 C9.3137723,2.71428571 5.39130435,5.14471701 5.39130435,8.14285714 C5.39130435,8.28097345 5.40255362,8.41724205 5.4188761,8.55258679 C5.75723666,11.359258 9.53655207,13.5714286 14.1522842,13.5714286 C18.7680163,13.5714286 22.5473317,11.359258 22.8856923,8.55258679 C22.9020148,8.41724205 22.9130435,8.28097345 22.9130435,8.14285714 C22.9130435,5.14471701 18.9907961,2.71428571 14.1522842,2.71428571" id="Fill-6-Copy-6"></path>
                </g>
                <g id="Group-29-Copy" transform="translate(81.000000, 254.000000)" fill="url(#linearGradient-6)" opacity="0.590126812">
                    <path d="M22.0002769,0 C9.84996916,0 0,6.04409888 0,13.5 C0,13.8434735 0.0282488009,14.1823519 0.0692372572,14.5189329 C0.918916878,21.4986811 10.4094062,27 22.0002769,27 C33.5911477,27 43.081637,21.4986811 43.9313166,14.5189329 C43.9723051,14.1823519 44,13.8434735 44,13.5 C44,6.04409888 34.1505847,0 22.0002769,0" id="Fill-6-Copy-5" stroke="#FFFFFF"></path>
                    <path d="M20.6251558,4.05 C13.7906077,4.05 8.25,7.37425438 8.25,11.475 C8.25,11.6639104 8.26588995,11.8502936 8.28894596,12.0354131 C8.76689074,15.8742746 14.105291,18.9 20.6251558,18.9 C27.1450206,18.9 32.4834208,15.8742746 32.9613656,12.0354131 C32.9844216,11.8502936 33,11.6639104 33,11.475 C33,7.37425438 27.4597039,4.05 20.6251558,4.05" id="Fill-6-Copy-6"></path>
                </g>
                <g id="Page-1" filter="url(#filter-7)" transform="translate(77.000000, 131.000000)">
                    <g id="Group-5" transform="translate(1.400000, 63.031793)" fill="url(#linearGradient-8)">
                        <path d="M2.1819,7.12846222 C2.1819,7.12846222 -0.3633,12.3482248 1.3335,13.7210681 C1.3335,13.7210681 4.1615,14.5453119 4.7257,10.9740369 C4.7257,10.9740369 4.4429,8.5013055 5.2927,7.12846222 C5.2927,7.12846222 4.7257,5.4799746 2.1819,7.12846222" id="Fill-1"></path>
                        <path d="M10.09932,3.00926008 C10.09932,3.00926008 11.51332,3.00926008 12.64312,4.38210336 C12.64312,4.38210336 16.03672,6.85349019 16.31952,4.93204744 C16.31952,4.93204744 13.21012,0.262228912 11.51332,0.262228912 C9.81652,0.262228912 7.83692,1.35942785 10.09932,3.00926008" id="Fill-3"></path>
                    </g>
                    <path d="M2.7328,32.8034552 C2.7328,32.8034552 1.8844,50.1098861 2.1686,55.6039484 L2.1686,55.6039484 L3.2984,70.7106029 C3.2984,70.7106029 4.4296,75.1047771 6.9748,70.7106029 L6.9748,70.7106029 L10.367,48.7356982 C10.367,48.7356982 11.7824,43.5159356 12.0638,48.7356982 L12.0638,48.7356982 C12.0638,48.7356982 11.2168,61.6452656 11.2168,64.3909521 L11.2168,64.3909521 C11.2168,64.3909521 13.1964,66.8650282 14.3262,63.8436973 L14.3262,63.8436973 C14.3262,63.8436973 20.265,42.1430923 19.4166,33.627699 L19.4166,33.627699 C19.4166,33.627699 12.8394,31.406409 7.7168,31.406409 L7.7168,31.406409 C5.6364,31.406409 3.7954,31.7734866 2.7328,32.8034552" id="Fill-6" fill="url(#linearGradient-9)"></path>
                    <g id="Group-19" transform="translate(0.000000, 0.192713)">
                        <path d="M6.2055,11.1330733 C6.2055,11.1330733 6.6927,4.86855137 15.1739,10.3626137 C15.1739,10.3626137 18.0033,10.6369134 16.8707,34.2589612 C16.8707,34.2589612 15.4567,37.0059924 8.6723,35.3588493 L6.2055,11.1330733 Z" id="Fill-8" fill="#FFF8FF"></path>
                        <path d="M7.11606,9.12665137 C7.11606,9.12665137 6.26906,9.67525084 4.71226,11.1865886 L0.47166,14.756519 C0.47166,14.756519 2.73266,23.2732568 2.73266,32.6115492 L2.45126,40.0270543 C2.45126,40.0270543 8.72886,41.2748492 12.66006,41.0422323 C13.84166,40.9736573 14.75026,40.0055406 14.71946,38.855902 C14.56126,32.9947621 13.62046,14.9864467 7.96306,9.94955057 L7.11606,9.12665137 Z" id="Fill-10" fill="#EAEFF6"></path>
                        <path d="M13.05374,8.57643837 C13.05374,8.57643837 16.16454,7.75353917 15.59894,38.2411479 C15.59894,38.2411479 15.59894,40.1652799 17.86134,39.8896355 C17.86134,39.8896355 20.12374,40.1652799 19.84094,36.5940049 C19.84094,36.5940049 20.68794,16.8175319 19.55814,14.0705007 C18.42694,11.3234695 16.16454,9.12638245 13.05374,8.57643837" id="Fill-12" fill="#EAEFF6"></path>
                        <path d="M16.30636,5.69292964 C16.30636,8.57576607 14.05796,10.9113476 11.28456,10.9113476 C8.51116,10.9113476 6.26276,8.57576607 6.26276,5.69292964 C6.26276,2.81009321 8.51116,0.473167042 11.28456,0.473167042 C14.05796,0.473167042 16.30636,2.81009321 16.30636,5.69292964" id="Fill-14" fill="#FFE7D0"></path>
                        <g id="Group-18" transform="translate(5.600000, 0.000000)">
                            <mask id="mask-11" fill="white">
                                <use xlink:href="#path-10"></use>
                            </mask>
                            <g id="Clip-17"></g>
                            <path d="M10.70636,3.49490133 C10.70636,3.49490133 11.55336,6.24193249 6.74716,6.51623223 C3.24576,6.7165786 2.31196,5.47685137 2.21676,4.93631954 C2.15236,4.57193117 1.68896,4.39578771 1.41876,4.65798599 C1.16116,4.9080828 0.97076,5.49567586 1.09256,6.79187657 C1.09256,6.79187657 -0.03864,7.34047604 0.24276,4.31914514 C0.52696,1.29781424 2.78936,-0.0750290451 5.89876,0.19927069 C5.89876,0.19927069 9.85796,0.19927069 10.70636,3.49490133" id="Fill-16" fill="#6E5D6D" mask="url(#mask-11)"></path>
                        </g>
                    </g>
                    <g id="Group-22" transform="translate(0.000000, 14.625958)" fill="url(#linearGradient-12)">
                        <path d="M0.7546,13.507679 C0.7546,15.1561667 2.1686,16.2547102 2.1686,16.2547102 L2.1686,16.2547102 C3.3754,16.4900164 6.8488,17.9260561 7.8386,18.340195 L7.8386,18.340195 C7.196,18.0026987 6.9748,17.3545984 6.9748,17.3545984 L6.9748,17.3545984 C6.1264,14.3319229 8.953,13.7833234 8.953,13.7833234 L8.953,13.7833234 L6.4092,13.2347239 C5.5622,12.9604242 5.278,12.1348358 5.278,12.1348358 L5.278,12.1348358 L5.278,6.3664737 C4.7124,1.42235544 0.7546,0.323811892 0.7546,0.323811892 L0.7546,0.323811892 C0.7056,0.299608974 0.6608,0.288852122 0.6174,0.288852122 L0.6174,0.288852122 C-0.847,0.290196729 0.7546,13.507679 0.7546,13.507679 M8.106,18.4531419 C8.106,18.4531419 8.0094,18.4114591 7.8386,18.340195 L7.8386,18.340195 C7.9212,18.3832224 8.0094,18.422216 8.106,18.4531419" id="Fill-20"></path>
                    </g>
                    <path d="M10.9333,30.0570964 C10.9333,30.0570964 7.8225,29.2341972 8.1053,31.1556399 C8.1053,31.1556399 8.9537,31.9798837 10.9333,31.4299397 C10.9333,31.1556399 12.0645,31.4299397 10.9333,32.2555281 C10.9333,32.2555281 7.5397,33.9026711 6.6927,31.9798837 C5.8429,30.0570964 7.2569,28.4086088 9.2365,28.4086088 C9.2365,28.4086088 11.2161,28.6842531 10.9333,30.0570964" id="Fill-23" fill="#FFE7D0"></path>
                    <path d="M8.3888,29.7821243 C6.9748,30.8806679 8.3888,31.7049117 8.3888,31.7049117 L8.3888,31.7049117 L19.4166,31.430612 L19.4166,29.7821243 L8.3888,29.7821243 Z" id="Fill-25"></path>
                </g>
                <g id="Page-1" filter="url(#filter-13)" transform="translate(240.000000, 153.000000)">
                    <path d="M20.985113,69.7440033 C20.985113,69.7440033 21.4177652,71.8915259 19.3852435,72.9875588 C19.3852435,72.9875588 17.3513739,74.1267852 17.9565478,74.8718716 C17.9565478,74.8718716 18.3137217,75.8734189 20.8408957,74.4669333 C21.1104609,74.3171062 21.3476783,74.1132872 21.5377217,73.8703243 C21.9582435,73.3304066 22.6038522,72.291065 22.4569391,71.1464395 C22.4569391,71.1464395 22.845113,69.2175835 20.985113,69.7440033" id="Fill-1" fill="#FFE7D0"></path>
                    <path d="M18.8028478,73.3663111 C18.8028478,73.3663111 17.9146304,73.9413235 17.8647609,74.6958584 C17.8647609,74.6958584 17.9793261,75.3370107 19.1788913,75.1574881 C19.1788913,75.1574881 20.483587,74.7242041 20.8407609,74.4663934 L20.8407609,74.6729119 C20.8407609,74.6729119 20.2248043,76.2913152 18.7368043,76.4249449 C18.7368043,76.4249449 17.2515,76.5977185 16.9226304,76.1360889 C16.9226304,76.1360889 16.2500652,75.3275621 16.949587,74.8240889 C16.949587,74.8240889 18.1720652,73.5485333 18.8028478,73.3663111" id="Fill-3" fill="url(#linearGradient-8)"></path>
                    <path d="M23.425487,70.1143868 C23.425487,70.1143868 23.2637478,71.8083786 23.425487,72.3186008 C23.425487,72.3186008 23.7678348,72.9219588 23.425487,74.0814321 C23.425487,74.0814321 23.2206174,75.7538272 21.7083565,77.191358 C21.7083565,77.191358 20.6530087,78.7692675 19.0046174,78.7233745 C19.0046174,78.7233745 18.1164,78.7557695 18.6676609,77.395177 C18.7323565,77.2332016 18.8981391,77.021284 19.0046174,76.8215144 C19.0046174,76.8215144 21.3875739,74.7779259 21.0667913,71.4358354 C21.0667913,71.4358354 22.0264435,68.5607737 23.425487,70.1143868" id="Fill-5" fill="#FFE7D0"></path>
                    <g id="Group-9" transform="translate(0.000000, 17.765587)">
                        <mask id="mask-15" fill="white">
                            <use xlink:href="#path-14"></use>
                        </mask>
                        <g id="Clip-8"></g>
                        <path d="M10.9133478,1.68805267 C10.9133478,1.68805267 10.3728696,4.58066173 10.9133478,7.20061235 C10.9133478,7.20061235 10.9537826,7.77022551 10.3998261,8.12792099 C10.3998261,8.12792099 8.36056522,9.0849251 6.05713043,11.3593284 C5.93447826,11.4821597 5.33873913,11.8439045 5.17565217,11.9059951 C4.62169565,12.1206123 3.58791304,12.4918058 3.23343478,12.3716741 L2.47865217,12.3095835 C2.47865217,12.3095835 1.17530435,12.6227358 0.587652174,13.5689416 C0.587652174,13.5689416 0.40973913,14.2019951 1.52169565,13.6593778 C1.63491304,13.605386 1.84786957,13.7133695 1.74813043,13.788958 C1.30334783,14.1210074 0.401652174,14.8269498 0.0687391304,15.5112955 C-0.101086957,15.8581926 0.0552608696,16.2806782 0.392217391,16.4615506 L0.579565217,16.5627852 C1.16991304,16.8799868 1.8856087,16.8448922 2.4436087,16.4736988 L4.41278261,15.160349 C4.464,15.1171556 4.51117391,15.0766617 4.5623913,15.0321185 C4.89934783,14.6609251 6.57065217,12.9210403 9.03852174,12.0585218 C9.03852174,12.0585218 11.9107391,11.1393119 12.5671304,9.65858765 L12.5671304,0.624414815 L10.9133478,1.68805267 Z" id="Fill-7" fill="#FFE7D0" mask="url(#mask-15)"></path>
                    </g>
                    <path d="M28.7930696,25.7531292 C28.7930696,25.7531292 29.5613304,32.3684708 28.7930696,38.4438947 C28.7930696,38.4438947 28.5531565,39.301014 29.1340696,41.4039934 C29.1340696,41.4039934 29.7163304,43.4354337 28.4089391,44.4842239 C28.4089391,44.4842239 26.4855913,45.4614749 26.255113,44.4842239 C26.255113,44.4842239 25.8709826,41.8710222 26.255113,40.3916477 C26.255113,40.3916477 27.1783739,38.4857383 26.4855913,34.1029564 C26.4855913,34.1029564 25.7928087,29.1748576 26.4087652,25.4372774 L28.7930696,25.7531292 Z" id="Fill-10" fill="#FFE7D0"></path>
                    <polygon id="Fill-12" fill="#FFEBD8" points="21.8827652 7.96459588 24.0999391 15.0699128 24.0999391 19.1341432 22.1469391 22.8960198 13.2405043 20.9253202 12.5679391 16.2955259 17.1545913 13.6269827 17.1559391 7.55695802"></polygon>
                    <path d="M17.2746826,13.3873942 C17.2746826,13.3873942 14.5035522,12.2846123 12.8821174,13.2929086 C12.8821174,13.2929086 10.9129435,14.3362996 10.9129435,19.4817152 C10.9129435,19.4817152 12.6893783,26.0754601 11.3563783,33.3198058 C11.3563783,33.3198058 10.5665522,38.0143901 8.69442174,41.4617646 C8.69442174,41.4617646 10.8145522,43.610637 12.9832043,43.4594601 L17.2746826,13.3873942 Z" id="Fill-14" fill="#18FFE6"></path>
                    <path d="M18.1447043,11.8320263 C18.1447043,11.8320263 18.434487,13.0130963 17.318487,14.8555654 C16.202487,16.6966848 16.4909217,18.5405037 16.4909217,18.5405037 C16.4909217,18.5405037 14.5473565,17.1164708 14.5069217,16.6561909 C14.4651391,16.1945613 15.6633565,14.3520922 15.4989217,12.3004049 C15.3331391,10.2487177 16.574487,10.6118123 16.7389217,10.4511868 C16.9047043,10.2892115 18.1447043,11.8320263 18.1447043,11.8320263" id="Fill-16" fill="#776977"></path>
                    <path d="M15.0358087,2.60361811 C15.0358087,2.60361811 13.9508087,4.55137119 13.9009391,6.20081975 C13.9009391,6.20081975 13.5343304,6.86626831 14.0074174,9.54291029 C14.0074174,9.54291029 14.1947652,11.433972 14.8605913,12.5529514 C15.0560261,12.8796016 15.3875913,13.0928691 15.7595913,13.1536099 C16.6437652,13.2966881 18.5725043,12.2492477 20.1669826,11.2584988 C20.1669826,11.2584988 22.7952435,9.87765926 23.9112435,9.08533004 C23.9112435,9.08533004 25.4423739,1.75459753 19.7707217,2.10419424 L15.0358087,2.60361811 Z" id="Fill-18" fill="#FFE7D0"></path>
                    <path d="M16.8587435,7.14986008 C16.8587435,7.14986008 17.5191783,7.14716049 18.1782652,7.9651358" id="Fill-20" fill="#FAE4CC"></path>
                    <path d="M16.0216087,11.2547193 C16.0216087,11.2547193 15.3355652,11.3492049 14.671087,10.5717235" id="Fill-22" fill="#FAE4CC"></path>
                    <path d="M14.2473304,6.07164444 C14.2473304,6.07164444 14.9293304,5.94881317 15.6234609,6.70064856" id="Fill-24" fill="#FAE4CC"></path>
                    <path d="M15.9939783,7.26202798 C15.9939783,7.26202798 15.4346304,8.03546008 14.872587,8.5456823 C14.6353696,8.76029959 14.6380652,9.14634074 14.8995435,9.33126255 C15.1448478,9.5080856 15.4292391,9.55127901 15.5518913,9.87657942 C15.5518913,9.87657942 15.9939783,7.54413498 15.9939783,7.26202798" id="Fill-26" fill="#FAE4CC"></path>
                    <path d="M13.0047696,22.8953449 C13.0047696,22.8953449 13.0721609,23.2611391 13.396987,24.0170239 C13.5573783,24.3909169 13.7972913,24.8592955 14.093813,25.432958 C14.7421174,26.6950156 14.3040739,29.244777 13.8835522,30.7592461 C13.8835522,30.7592461 14.1302043,27.224135 13.3430739,25.3398222 C13.3430739,25.3398222 12.8821174,24.2181432 13.0047696,22.8953449" id="Fill-28" fill="#00D4BC"></path>
                    <path d="M24.6463478,34.5435292 C24.6463478,34.5435292 28.9176087,39.9143605 25.2703913,50.1889942 C25.2703913,50.1889942 24.3808261,54.5150848 23.9360435,55.8675786 C23.9360435,55.8675786 23.4912609,57.6695539 24.7366522,59.3824428 C24.7366522,59.3824428 26.248913,62.6273481 23.312,71.5494881 C23.312,71.5494881 21.8900435,72.5415868 21.2673478,71.0095704 C21.2673478,71.0095704 21.3549565,61.7256856 20.1985217,58.2094716 C20.1985217,58.2094716 19.6647826,55.8675786 19.7537391,53.7052082 L19.7443043,43.0013399 C19.7443043,43.0013399 19.2577391,42.1779654 19.011087,43.4683687 L19.1404783,53.5472823 C19.1404783,53.5472823 19.7483478,54.5150848 19.8130435,55.1292412 C19.8332609,55.3114634 19.9370435,56.5897185 19.9478261,56.8043358 C19.9478261,56.8043358 20.0987826,57.314558 20.5273913,59.5106733 C20.9546522,61.7054387 21.1056087,64.760023 21.1056087,64.760023 L21.2686957,70.3306239 C21.2686957,70.3306239 17.1753478,58.1325333 15.1374348,55.2561218 C15.1374348,55.2561218 14.6279565,54.592023 14.3718696,52.453949 C14.3718696,52.453949 11.7867391,40.8376198 13.4256957,33.9077761 L24.6463478,34.5435292 Z" id="Fill-30" fill="url(#linearGradient-9)"></path>
                    <path d="M20.3652478,4.26049053 C20.3652478,4.26049053 20.1185957,4.90974156 20.0687261,6.30947819 C20.0687261,6.30947819 17.9485957,7.50809547 14.2501609,4.26049053 C14.2501609,4.26049053 13.9051174,-0.984809877 21.2534652,0.165214815 C21.2534652,0.165214815 25.6918565,0.547206584 25.3953348,6.52544527 C25.3953348,6.52544527 25.889987,12.5023342 26.0867696,15.4003424 C26.0867696,15.4003424 25.3953348,14.451437 24.6068565,14.3515523 C23.8183783,14.2516675 23.0784217,15.4003424 23.0784217,15.4003424 C23.0784217,15.4003424 20.6617696,19.5469103 19.0834652,20.4458733 C19.0834652,20.4458733 18.3933783,20.7455276 18.4419,19.9464494 L19.7236826,17.8475193 L18.0968565,19.6467951 C18.0968565,19.6467951 17.5051609,19.5968527 17.9000739,18.5480626 C17.9000739,18.5480626 21.2035957,16.3492477 21.1550739,12.0528527 C21.1550739,12.0528527 20.6617696,10.8056428 21.9934217,8.5568856 C21.9934217,8.5568856 22.9301609,4.70997202 21.301987,7.45815309 C21.301987,7.45815309 20.8113783,8.62032593 21.006813,9.50579095 C21.006813,9.50579095 20.2695522,8.45970041 20.3652478,4.26049053" id="Fill-33" fill="#776977"></path>
                    <path d="M23.5163304,72.7638979 C23.5163304,72.7638979 23.7643304,75.2043259 21.5943304,77.2398156 C20.4769826,78.2899556 19.7073739,78.4627292 19.2235043,78.3844412 C18.8326348,78.319651 18.5819391,77.9349597 18.6965043,77.4220379 L19.0038087,76.8213794 C19.0038087,76.8213794 17.6438522,77.8229267 17.8945478,79.0552889 C17.8945478,79.0552889 18.2220696,80.1580708 19.8138522,79.7747292 C19.8138522,79.7747292 21.3409391,79.2334617 22.489287,77.0791901 C22.489287,77.0791901 22.8154609,76.1046387 23.4853304,75.5728198 L23.5486783,75.8414288 L24.1363304,74.8574288 C24.1363304,74.8574288 24.3304174,73.6723095 23.961113,73.1850337 C23.961113,73.1850337 23.5163304,72.4102519 23.5163304,72.7638979" id="Fill-35" fill="url(#linearGradient-8)"></path>
                    <g id="Group-39" transform="translate(18.869565, 53.847891)">
                        <mask id="mask-17" fill="white">
                            <use xlink:href="#path-16"></use>
                        </mask>
                        <g id="Clip-38"></g>
                        <path d="M0.594391304,0.219061728 C0.718391304,0.462024691 0.847782609,0.753580247 0.921913043,1.01948971 C0.95426087,1.7240823 1.02973913,2.39897942 1.11195652,2.95509465 L1.11195652,2.95644444 L1.11195652,2.95779424 C1.23056522,3.79331687 1.36130435,4.36158025 1.36130435,4.36158025 C1.49204348,4.75976955 1.6066087,5.23624691 1.70769565,5.75996708 C1.93682609,6.9720823 2.08508696,8.42176132 2.17134783,9.47595062 C2.20908696,9.95647737 2.24143478,10.4410535 2.26973913,10.9215802 L2.43013043,16.4800329 L2.43013043,16.4827325 C2.43013043,16.4827325 2.26569565,15.9954568 1.99073913,15.1990782 C1.82765217,6.30258436 0.76826087,3.90804938 0.76826087,3.90804938 C0.541826087,2.58255144 0.56473913,0.976296296 0.594391304,0.219061728" id="Fill-37" mask="url(#mask-17)"></path>
                    </g>
                    <path d="M14.8397,17.6609778 C14.8397,17.6609778 14.7911783,20.9274798 19.5180043,20.9639243 C19.5180043,20.9639243 21.1111348,20.3335704 21.1663957,22.6160724 C21.2216565,24.8985745 22.8161348,37.0372741 22.8161348,37.0372741 C22.8161348,37.0372741 19.6824391,37.9294881 16.9894826,37.0372741 C14.2965261,36.1464099 13.3611348,34.3646815 13.1953522,33.5858502 C13.0848304,33.06213 14.2843957,30.2113646 14.4609609,27.5468708 C14.5472217,26.2429695 14.072787,25.2549202 13.6037435,24.4193975 C11.437787,20.5576362 14.8397,17.6609778 14.8397,17.6609778" id="Fill-40" fill="#F4FFFF"></path>
                    <path d="M15.867687,24.6431934 C15.867687,24.6431934 16.5052087,26.8298601 19.8397304,26.0348313 C19.8397304,26.0348313 20.5365565,26.0456296 20.5365565,25.5124609 L20.4287304,35.1783374 C20.4287304,35.1783374 21.1161217,27.9231934 17.8786435,27.1281646 C17.8786435,27.1281646 15.7692957,25.8364115 15.867687,24.6431934" id="Fill-42" fill="#E4F4F4"></path>
                    <path d="M24.3546783,14.1797235 C24.3546783,14.1797235 28.1353304,16.0815835 28.4305043,19.1793613 C28.7270261,22.2771391 28.6946783,23.9211885 28.9413304,24.7702091 C29.1879826,25.6192296 29.5828957,25.3195753 29.3847652,26.2684807 C29.3847652,26.2684807 30.1247217,25.669172 29.7783304,27.0176165 C29.7783304,27.0176165 29.0329826,28.1662914 27.1136783,28.1662914 C27.1136783,28.1662914 25.7860696,28.1662914 25.6364609,26.416958 C25.6364609,26.416958 24.798113,22.8710486 24.9962435,21.5725465 C24.9962435,21.5725465 25.0946348,24.5690897 24.798113,26.0687111 C24.798113,26.0687111 24.1080261,34.0109004 27.3131565,37.4083325 C27.3131565,37.4083325 29.5330261,42.502456 27.6582,44.8025053 C27.6582,44.8025053 23.8128522,46.8002008 20.2613304,44.3017317 L20.5578522,24.1196082 C20.5578522,24.1196082 19.8664174,21.5725465 21.3962,19.0254848 C21.3962,19.0254848 23.0728957,14.7776823 24.3546783,14.1797235" id="Fill-44" fill="#18FFE6"></path>
                </g>
                <g id="Page-1" filter="url(#filter-18)" transform="translate(11.000000, 189.000000)">
                    <g id="Group-3" transform="translate(5.481481, 60.782742)" fill="url(#linearGradient-12)" opacity="0.499830163">
                        <path d="M2.15422222,2.16232687 C2.1227037,3.63427978 1.02914815,5.4816482 0.661888889,6.19331717 L0.661888889,6.19331717 C0.568703704,6.37562327 0.511148148,6.57683518 0.505666667,6.78074792 L0.505666667,6.78074792 C0.401518519,10.2189058 2.13366667,9.53154432 2.13366667,9.53154432 L2.13366667,9.53154432 C3.85896296,8.37828947 4.04807407,5.76658587 4.04807407,5.76658587 L4.04807407,5.76658587 C4.01655556,4.78078255 4.62637037,3.40200831 4.62637037,3.40200831 L4.62637037,3.40200831 C4.87166667,2.89020083 4.96074074,1.6775277 4.96074074,1.6775277 L4.96074074,1.6775277 C4.94566667,0.50401662 3.96174074,0.378427978 3.96174074,0.378427978 L3.96174074,0.378427978 C3.8617037,0.362222992 3.76577778,0.355470914 3.6767037,0.355470914 L3.6767037,0.355470914 C2.26248148,0.355470914 2.15422222,2.16232687 2.15422222,2.16232687" id="Fill-1"></path>
                    </g>
                    <path d="M16.7993704,68.479072 C15.9675556,69.6957964 14.0435556,70.6545914 13.3474074,71.052964 L13.3474074,71.052964 C13.1678889,71.1542452 13.013037,71.2906371 12.8951852,71.4594391 L12.8951852,71.4594391 C10.9328148,74.28991 12.7608889,74.6504709 12.7608889,74.6504709 L12.7608889,74.6504709 C14.8383704,74.6180609 16.4225185,72.5303186 16.4225185,72.5303186 L16.4225185,72.5303186 C16.9336667,71.6849584 18.1971481,70.8585042 18.1971481,70.8585042 L18.1971481,70.8585042 C18.6822593,70.5614127 19.4195185,69.5945152 19.4195185,69.5945152 L19.4195185,69.5945152 C20.0485185,68.6019598 19.2907037,67.9605125 19.2907037,67.9605125 L19.2907037,67.9605125 C18.9659259,67.6715235 18.6452593,67.5648407 18.3465185,67.5648407 L18.3465185,67.5648407 C17.4763333,67.5648407 16.7993704,68.479072 16.7993704,68.479072" id="Fill-4" fill="url(#linearGradient-12)" opacity="0.499830163"></path>
                    <g id="Group-11" transform="translate(0.000000, 13.881773)">
                        <g id="Group-8" transform="translate(0.000000, 20.256233)">
                            <mask id="mask-20" fill="white">
                                <use xlink:href="#path-19"></use>
                            </mask>
                            <g id="Clip-7"></g>
                            <path d="M28.5320704,2.81683172 C28.5320704,2.81683172 29.6132926,5.41908241 27.3782185,9.29882618 C25.3158111,12.8801281 19.9549222,17.5363608 18.810663,18.1062361 C17.9130704,18.5532237 18.9271444,19.6821711 18.9271444,19.6821711 C18.9271444,19.6821711 21.4417741,21.960322 19.5862926,35.1336253 C19.5862926,35.1336253 18.2063296,37.2564785 16.7098852,35.0647542 C16.7098852,35.0647542 15.8643667,25.5578289 13.9335148,20.754401 C13.9335148,20.754401 12.3987,17.445883 14.5638852,14.1724758 C14.5638852,14.1724758 16.4522556,9.20969875 17.8363296,7.3852874 C17.8363296,7.3852874 9.58121852,12.4804051 6.52666296,12.2238262 C6.52666296,12.2238262 5.56466296,12.4331406 6.44032963,13.640412 C6.44032963,13.640412 9.34414444,17.189304 10.2321444,28.1087639 C10.2321444,28.1087639 9.9799963,30.4895464 7.62295926,30.0979259 C7.62295926,30.0979259 1.47410741,18.1913123 0.827292593,15.5296434 C0.827292593,15.5296434 -1.96552222,9.64183172 2.70744074,7.38798823 C2.70744074,7.38798823 7.76136667,3.34484418 12.7467741,1.48667244 C14.4734407,0.843874654 15.9712556,0.729089335 17.7239593,0.484664127 C17.7239593,0.484664127 24.5429222,-0.463327562 28.5320704,2.81683172" id="Fill-6" fill="url(#linearGradient-9)" mask="url(#mask-20)"></path>
                        </g>
                        <path d="M22.3640333,0.661973684 C22.3640333,0.661973684 19.402663,-0.0172853186 17.2457,6.12305402 C17.2457,6.12305402 14.4693296,11.9636011 13.8074407,13.9176524 C13.8074407,13.9176524 17.7212185,14.8156787 18.4831444,12.1999238 L22.3640333,0.661973684 Z" id="Fill-9" fill="url(#linearGradient-9)"></path>
                    </g>
                    <g id="Group-14" transform="translate(13.703704, 13.881773)" fill="url(#linearGradient-21)">
                        <path d="M5.23481481,5.08971607 C5.23481481,5.08971607 4.98403704,12.3779086 3.79318519,16.415651 L3.79318519,16.415651 C2.6037037,20.4520429 0.48237037,21.2528393 0.48237037,21.2528393 L0.48237037,21.2528393 C0.48237037,21.2528393 7.32737037,19.2852839 10.9643333,23.6579294 L10.9643333,23.6579294 C14.6026667,28.0319252 14.0408148,29.0609418 13.5228148,29.9063019 L13.5228148,29.9063019 C13.5228148,29.9063019 15.9977037,27.3216066 15.6277037,21.5107687 L15.6277037,21.5107687 C15.6277037,21.5107687 15.7524074,16.6249654 18.1889259,13.5433172 L18.1889259,13.5433172 C18.1889259,13.5433172 22.4069259,6.53195983 19.1194074,2.88313712 L19.1194074,2.88313712 C19.1194074,2.88313712 16.3444074,0.638746537 9.33496296,0.251177285 L9.33496296,0.251177285 C9.33496296,0.251177285 5.9337037,0.398372576 5.23481481,5.08971607" id="Fill-12"></path>
                    </g>
                    <g id="Group-34" transform="translate(6.481481, 0.014044)">
                        <path d="M21.9942667,11.7920048 C21.9942667,11.7920048 21.3597852,13.9999342 21.9230074,14.7899273 C22.4862296,15.5799204 18.8821556,18.0970949 18.517637,18.055232 C18.1544889,18.0120187 17.6721185,15.2585215 17.6721185,15.2585215 L18.2517852,12.7494494 L21.9942667,11.7920048 Z" id="Fill-15" fill="#FFFFFF"></path>
                        <path d="M14.7276037,9.1346572 C14.7276037,9.1346572 14.4233815,12.7105575 16.8640111,14.8752735 C16.8640111,14.8752735 18.6386407,16.1770741 20.2830852,14.9400935 C20.2830852,14.9400935 22.213937,13.820599 23.3376407,11.8908553 C23.3376407,11.8908553 26.2880481,5.22520429 19.1374556,6.55401316 L14.7276037,9.1346572 Z" id="Fill-17" fill="#FFFFFF"></path>
                        <g id="Group-21" transform="translate(13.703704, 0.000000)">
                            <mask id="mask-23" fill="white">
                                <use xlink:href="#path-22"></use>
                            </mask>
                            <g id="Clip-20"></g>
                            <path d="M10.6445852,8.40678324 C10.8967333,7.62219183 10.8227333,6.60262812 9.94295556,5.34809211 C9.94295556,5.34809211 9.89773333,5.28192175 9.8114,5.17523892 C9.73054815,4.72149931 9.69354815,4.103009 9.80728889,3.37783587 C9.81414074,3.34812673 9.81688148,3.31436634 9.81962222,3.27790512 C9.82099259,3.26440097 9.82236296,3.25224723 9.8251037,3.23739266 C9.83195556,3.19823061 9.83058519,3.16176939 9.8346963,3.12395776 C9.98132593,2.9970187 10.2019556,2.69587604 10.2786963,1.97340374 C10.2786963,1.97340374 10.4746593,1.25228186 9.69354815,0.67025277 C9.69354815,0.67025277 7.74899259,-0.468147507 7.31047407,1.54667244 C7.27895556,1.56422784 7.24606667,1.57773199 7.21728889,1.59798823 C7.21728889,1.59798823 6.84180741,1.78434557 6.68147407,2.13410319 L6.6801037,2.1354536 C6.6801037,2.1354536 6.26488148,2.63240651 6.23747407,3.27115305 C5.95654815,3.23334141 5.66328889,3.20768352 5.3481037,3.20903393 C5.3481037,3.20903393 0.425733333,2.86467798 0.251696296,8.87807825 C0.251696296,8.87807825 -0.182711111,10.8658899 3.68173333,11.7328566 C3.68173333,11.7328566 5.75236296,11.9921364 7.19125185,11.3263816 C7.19125185,11.3263816 7.88054815,8.43514197 8.23684444,8.89158241 C8.23684444,8.89158241 8.0956963,9.64241343 8.04636296,10.6241655 C8.00114074,11.5086877 8.19984444,12.4971918 8.19984444,12.4971918 C8.19984444,12.4971918 9.19336296,9.49926939 9.59899259,10.6849342 C9.59899259,10.6849342 9.57843704,12.2500658 8.52873333,13.5127043 C8.52873333,13.5127043 8.84802963,13.8462569 9.33725185,13.6977112 C9.33725185,13.6977112 10.8871407,10.3513816 10.6445852,8.40678324" id="Fill-19" fill="#776977" mask="url(#mask-23)"></path>
                        </g>
                        <path d="M16.4607111,12.0214404 C16.4607111,12.0214404 16.5004519,12.8978601 16.1181185,13.5095983 C16.1181185,13.5095983 16.9773407,13.658144 17.2473037,13.4312742 C17.2473037,13.4312742 16.7018963,11.4015997 16.4607111,12.0214404" id="Fill-22" fill="#ECF4FF"></path>
                        <path d="M26.3249111,16.6845602 C26.3249111,16.6845602 24.8380593,15.458383 23.4073926,19.261153 C21.9767259,23.0652735 23.593763,23.9862569 23.593763,23.9862569 C23.593763,23.9862569 24.7654296,25.8282237 24.8545037,28.7410699 C24.940837,31.6525658 25.7192074,33.0705021 25.7890963,33.3621918 C25.8603556,33.6538816 18.391837,31.5958483 15.3893556,31.7335907 C12.3868741,31.8713331 14.9110963,34.1022195 18.4891333,35.0610145 C22.0685407,36.0198096 27.0978,36.9678012 27.4773926,37.123099 C27.8556148,37.2783968 30.5511333,38.1723719 29.5178741,31.8767348 C28.4846148,25.5797472 29.9700963,18.5535353 26.3249111,16.6845602" id="Fill-24" fill="url(#linearGradient-9)"></path>
                        <polyline id="Fill-26" fill="#ECF4FF" points="14.8039333 38.0169391 20.7403778 36.2343906 7.05311852 33.2256648 1.17285926 34.6841136 14.6038593 38.0034349"></polyline>
                        <path d="M20.6640481,36.5636219 L15.3264556,38.2421884 C15.3264556,38.2421884 15.0893815,38.3178116 14.7358259,38.000464 L20.7407889,36.2341205 L20.6640481,36.5636219 Z" id="Fill-28" fill="#DAF5FF"></path>
                        <path d="M0.245118519,23.8837604 C0.245118519,23.8837604 0.454785185,23.4286704 1.12900741,23.5610111 L14.6723778,26.6683172 C14.6723778,26.6683172 15.1670815,26.7547438 15.4178593,26.9370499 C15.4178593,26.9370499 15.6782296,27.1166551 15.5836741,27.8202216 L15.579563,37.5891274 C15.579563,37.5891274 15.5014519,38.0388158 15.1972296,38.1319945 L14.7929704,38.1806094 L0.245118519,23.8837604 Z" id="Fill-30" fill="url(#linearGradient-24)"></path>
                        <path d="M0.856577778,23.6609418 L14.861763,26.8749307 C15.1796889,26.9478532 15.4058,27.2314404 15.4058,27.558241 L15.4044296,37.5243075 C15.4044296,37.948338 15.0083926,38.2629848 14.5931704,38.1671053 L1.41020741,35.1421745 C1.07172593,35.0652008 0.82642963,34.7762119 0.803133333,34.431856 L0.12617037,24.2807825 C0.098762963,23.88241 0.466022222,23.5718144 0.856577778,23.6609418" id="Fill-32" fill="url(#linearGradient-1)"></path>
                    </g>
                </g>
                <g id="Page-1" filter="url(#filter-25)" transform="translate(87.000000, 188.000000)">
                    <path d="M28.2392478,7.51362712 C28.2392478,7.51362712 27.9305957,7.27769492 27.4682913,8.01125424 C27.4682913,8.01125424 26.927813,9.29261017 26.5423348,9.97328814 C26.5423348,9.97328814 26.2592913,10.156339 26.2080739,10.7597288 C26.2080739,10.7597288 25.5395522,12.9048136 25.2821174,14.3949831 L27.7513348,15.1027797 C27.7513348,15.1027797 29.2312478,14.0031186 29.3902913,13.4268475 C29.3902913,13.4268475 30.0911609,12.1726102 29.7569,11.4390508 C29.7569,11.4390508 29.4226391,10.7597288 28.958987,10.8641356 C28.958987,10.8641356 28.6247261,10.4193898 28.2392478,10.6797288 C28.2392478,10.6797288 27.8025522,10.0939661 27.4184217,10.4044746 L28.3470739,8.03972881 C28.3470739,8.03972881 28.4912913,7.59905085 28.2392478,7.51362712" id="Fill-1" fill="#F6B5B6"></path>
                    <path d="M8.06525652,67.0303729 C8.06525652,67.0303729 10.2810826,65.9524068 10.4091261,67.6188475 C10.4091261,67.6188475 10.3080391,69.3178305 8.89956087,70.0351186 C8.89956087,70.0351186 7.69999565,70.2113898 7.49377826,71.3910508 C7.49377826,71.3910508 6.97351739,73.5307119 4.71051739,72.8771525 C4.71051739,72.8771525 3.8276913,72.1924068 4.69434348,70.5585085 C4.69434348,70.5585085 6.07721304,68.547661 8.06525652,67.0303729" id="Fill-3" fill="#D87B92"></path>
                    <path d="M3.68226087,39.5342373 C3.68226087,39.5342373 4.30765217,41.0108475 4.24430435,42.8983051 C4.18230435,44.7871186 4.30765217,49.1071186 5.3683913,52.6013559 C5.3683913,52.6013559 5.74308696,54.5077966 4.99369565,57.0488136 C4.99369565,57.0488136 3.52726087,64.2922034 4.57182609,71.9152542 C4.57182609,71.9152542 5.49373913,73.440678 6.55447826,71.5342373 C6.55447826,71.5342373 8.3026087,59.2088136 9.61404348,56.9213559 C9.61404348,56.9213559 9.92673913,55.7145763 9.61404348,53.9355932 C9.61404348,53.9355932 10.1410435,46.8413559 9.75286957,43.8759322 C9.75286957,43.8759322 10.8001304,43.1979661 11.1761739,45.740339 C11.1761739,45.740339 11.4875217,53.5545763 12.298913,55.7145763 C12.298913,55.7145763 12.6116087,57.4935593 12.298913,58.2569492 C12.298913,58.2569492 10.7381304,67.7850847 10.8621304,75.5369492 C10.8621304,75.5369492 10.9537826,77.0623729 12.4377391,77.3783051 C12.4377391,77.3783051 14.3597391,77.1898305 14.547087,74.4562712 C14.547087,74.4562712 16.607913,60.4155932 17.1686087,59.3362712 C17.1686087,59.3362712 17.5433043,57.8745763 17.1686087,56.2854237 C17.1686087,56.2854237 18.4180435,45.9938983 16.731913,40.5294915 L4.36965217,36.8454237 L3.68226087,39.5342373 Z" id="Fill-5" fill="url(#linearGradient-9)"></path>
                    <path d="M2.66613478,34.5581017 C2.66613478,34.5581017 1.97874348,37.9248814 4.22556957,40.2760678 C4.22556957,40.2760678 4.9763087,41.4204746 9.6573087,42.5635254 C9.6573087,42.5635254 15.5270913,44.0875932 16.5891783,42.5635254 C16.5891783,42.5635254 17.6499174,41.1018305 16.5891783,39.1967458 L2.66613478,34.5581017 Z" id="Fill-7" fill="#CDDDFD"></path>
                    <g id="Group-11" transform="translate(0.000000, 11.688814)">
                        <mask id="mask-27" fill="white">
                            <use xlink:href="#path-26"></use>
                        </mask>
                        <g id="Clip-10"></g>
                        <path d="M6.02343478,0.770169492 C6.02343478,0.770169492 4.26182609,0.314576271 3.35473913,1.94440678 L0.311347826,10.1572881 C0.311347826,10.1572881 -0.59573913,12.2644068 0.684695652,14.599322 C0.684695652,14.599322 3.14178261,17.7084746 5.115,17.8115254 L5.27673913,13.7301695 L3.88713043,12.9694915 C3.88713043,12.9694915 2.98004348,11.8305085 3.72808696,10.4176271 L6.61108696,2.97627119 C6.61108696,2.97627119 6.98308696,1.8779661 6.02343478,0.770169492" id="Fill-9" mask="url(#mask-27)"></path>
                    </g>
                    <path d="M16.5866174,3.91064407 C16.5866174,3.91064407 18.0840522,5.21911864 18.2053565,6.91267797 C18.2053565,6.91267797 18.2997043,7.07132203 18.1379652,8.18318644 C18.1379652,8.18318644 18.4156174,9.33437288 18.6245304,9.95538983 C18.6811391,10.1235254 18.635313,10.3106441 18.511313,10.4367458 L18.1662696,10.7879322 C18.1662696,10.7879322 17.7605739,12.8475932 16.5866174,13.3411525 C16.5866174,13.3411525 14.9287913,14.2062373 12.9852261,13.5892881 C12.9852261,13.5892881 12.2169652,14.4950508 13.350487,16.7608136 C13.350487,16.7608136 8.85683478,16.7608136 8.45248696,14.1642034 C8.45248696,14.1642034 7.96592174,13.3004746 8.29074783,12.8069153 C8.29074783,12.8069153 11.3260522,11.1594576 11.2842696,10.0462373 C11.2842696,10.0462373 13.9570087,2.26318644 16.5866174,3.91064407" id="Fill-12" fill="#F6B5B6"></path>
                    <g id="Group-16" transform="translate(6.739130, 0.841356)">
                        <mask id="mask-29" fill="white">
                            <use xlink:href="#path-28"></use>
                        </mask>
                        <g id="Clip-15"></g>
                        <path d="M8.58255217,0.732067797 C8.58255217,0.732067797 10.8752043,0.798508475 10.8752043,2.53138983 C10.8752043,2.53138983 10.4155957,4.19783051 9.23759565,4.26291525 C9.23759565,4.26291525 8.85481304,5.72054237 9.3022913,8.06223729 C9.3022913,8.06223729 8.97072609,9.17816949 8.38172609,9.37884746 C8.38172609,9.37884746 8.97611739,6.9300339 7.46924783,6.86223729 C7.46924783,6.86223729 6.22520435,7.13071186 6.15916087,8.79579661 C6.15916087,8.79579661 5.40033478,11.8941017 1.55498696,11.1117288 C1.55498696,11.1117288 1.19107391,10.5761356 1.39324783,10.288678 C1.39324783,10.288678 3.05242174,10.6181695 1.6762913,9.34088136 C1.6762913,9.34088136 -1.31857826,5.79918644 1.15063913,2.66969492 C1.15063913,2.66969492 2.6992913,-0.29979661 8.58255217,0.732067797" id="Fill-14" fill="#8ABDF2" mask="url(#mask-29)"></path>
                    </g>
                    <path d="M8.45221739,12.8062373 C8.45221739,12.8062373 8.87273913,14.2570847 11.726087,15.1153898 C11.726087,15.1153898 12.3420435,15.3147119 12.6668696,15.1153898 C12.6668696,15.1153898 16.7844783,17.392 17.010913,19.0082712 C17.010913,19.0082712 17.3532609,25.4909831 16.9313913,29.0557288 C16.4946957,32.7479322 17.4004348,40.6814915 17.4004348,40.6814915 C17.4004348,40.6814915 16.3302609,42.5282712 13.6063043,42.231322 C13.6063043,42.231322 10.5265217,41.8353898 7.02486957,39.6252203 C7.02486957,39.6252203 1.57830435,37.3499661 2.29265217,34.4455593 C2.29265217,34.4455593 3.038,25.3092881 2.9086087,17.9533559 C2.9086087,17.9533559 3.36282609,12.3425085 6.31186957,12.0794576 C6.31186957,12.0794576 7.51278261,12.2462373 8.45221739,12.8062373" id="Fill-17" fill="#02FFF0"></path>
                    <path d="M18.6363913,19.360678 C18.6363913,19.360678 17.3249565,17.6264407 15.7506957,19.360678 C14.1777826,21.0949153 17.1928696,24.2542373 17.1928696,24.2542373 L21.8266957,28.3884746 C21.8266957,28.3884746 24.4926957,30.3464407 25.8041304,27.8555932 L28.1655217,16.0481356 C28.1655217,16.0481356 28.6022174,14.5566102 26.2408261,13.8461017 C26.2408261,13.8461017 24.7123913,13.4447458 24.6247826,15.4461017 C24.6247826,15.4461017 22.2418261,21.360678 22.373913,23.1383051 L18.6363913,19.360678 Z" id="Fill-19" fill="url(#linearGradient-9)"></path>
                    <g id="Group-23" transform="translate(10.434783, 74.061695)">
                        <mask id="mask-31" fill="white">
                            <use xlink:href="#path-30"></use>
                        </mask>
                        <g id="Clip-22"></g>
                        <path d="M0.382734783,1.67227119 C0.382734783,1.67227119 -0.369352174,2.89125424 0.34903913,5.08108475 C0.34903913,5.08108475 1.31812609,5.85261017 3.00425652,5.08108475 C3.00425652,5.08108475 4.94647391,3.87837288 6.63260435,4.05057627 C6.63260435,4.05057627 9.58434348,3.66413559 9.62747391,1.51905085 C9.62747391,1.51905085 9.83503913,0.503457627 6.59756087,0.759728814 C6.59756087,0.759728814 4.68903913,0.808542373 4.14182174,1.19362712 L3.42612609,1.90955932 C3.20373478,2.13328814 2.91664783,2.27701695 2.60664783,2.32311864 L2.28047391,2.37328814 C2.08638696,2.40040678 1.8869087,2.37328814 1.70764783,2.28922034 L0.382734783,1.67227119 Z" id="Fill-21" fill="#D87B92" mask="url(#mask-31)"></path>
                    </g>
                </g>
                <g id="Group-28-Copy-4" transform="translate(113.000000, 0.000000)">
                    <polygon id="Fill-1-Copy-7" fill="url(#linearGradient-32)" points="46.5004042 0 0 28.2512076 46.5004042 55.5865385 93 27.8387294"></polygon>
                    <polygon id="Fill-3-Copy" fill="url(#linearGradient-33)" points="46.5004042 54.2537098 0 27.5188026 0 113.959164 46.5004042 141 93 113.438677 93 27.1153846"></polygon>
                    <polygon id="Fill-1-Copy-8" fill="#FFFFFF" opacity="0.308254076" points="64.6956522 75.9230769 49.8695652 84.2364482 49.8695652 89.4807692 64.6956522 80.5645438"></polygon>
                    <polygon id="Fill-1-Copy-14" fill="#FFFFFF" opacity="0.308254076" points="64.6956522 52.875 49.8695652 61.1891209 49.8695652 79.9903846 64.6956522 71.0733552"></polygon>
                    <polygon id="Fill-1-Copy-9" fill="#FFFFFF" opacity="0.308254076" points="76.826087 78.6346154 49.8695652 93.6137909 49.8695652 98.9711538 76.826087 83.3761296"></polygon>
                    <polygon id="Fill-1-Copy-11" fill="#FFFFFF" opacity="0.308254076" points="41.7826087 60.3768428 14.826087 44.7403846 14.826087 49.6531425 41.7826087 65.0769231"></polygon>
                    <polygon id="Fill-1-Copy-12" fill="#FFFFFF" opacity="0.308254076" points="43.1304348 71.3609529 5.39130435 50.1634615 5.39130435 54.9320208 43.1304348 75.9230769"></polygon>
                    <polygon id="Fill-1-Copy-13" fill="#FFFFFF" opacity="0.308254076" points="43.1304348 82.0784193 28.3043478 73.2115385 28.3043478 78.1146082 43.1304348 86.7692308"></polygon>
                    <polygon id="Fill-1-Copy-10" fill="#FFFFFF" opacity="0.308254076" points="64.6956522 93.5480769 49.8695652 101.861448 49.8695652 107.105769 64.6956522 98.1895438"></polygon>
                </g>
                <g id="Group-28-Copy-2" transform="translate(63.000000, 56.000000)">
                    <polygon id="Fill-1-Copy-7" fill="url(#linearGradient-32)" points="17.0001478 0 0 10.5081702 17.0001478 20.6756757 34 10.354747"></polygon>
                    <polygon id="Fill-3-Copy" fill="url(#linearGradient-33)" points="17.0001478 19.5025382 0 9.79512919 0 41.1815087 17.0001478 51 34 40.9925206 34 9.64864865"></polygon>
                    <polygon id="Fill-1-Copy-8" fill="#FFFFFF" opacity="0.308254076" points="24.48 26.1891892 19.04 29.569992 19.04 31.7027027 24.48 28.0767368"></polygon>
                    <path d="M23.0022439,20.1009546 L20.6067317,21.403721 L20.6067317,21.403721 C19.6411148,21.9288585 19.04,22.9400237 19.04,24.0391986 L19.04,27.2049994 L19.04,27.2049994 C19.04,27.7572841 19.4877153,28.2049994 20.04,28.2049994 C20.2170394,28.2049994 20.3909054,28.1579991 20.5438323,28.0688009 L22.9914968,26.6411437 L22.9914968,26.6411437 C23.9132156,26.1035299 24.48,25.1167885 24.48,24.0497392 L24.48,20.9794472 L24.48,20.9794472 C24.48,20.4271624 24.0322847,19.9794472 23.48,19.9794472 C23.3131036,19.9794472 23.1488612,20.0212189 23.0022439,20.1009546 Z" id="Fill-1-Copy-14" fill="#FFFFFF" opacity="0.308254076"></path>
                    <polygon id="Fill-1-Copy-9" fill="#FFFFFF" opacity="0.308254076" points="28.56 28.9459459 19.04 34.02227 19.04 35.8378378 28.56 30.5528076"></polygon>
                    <polygon id="Fill-1-Copy-11" fill="#FFFFFF" opacity="0.308254076" points="14.96 21.8396124 5.44 16.5405405 5.44 18.2054353 14.96 23.4324324"></polygon>
                    <polygon id="Fill-1-Copy-12" fill="#FFFFFF" opacity="0.308254076" points="14.96 27.2371342 1.36 19.2972973 1.36 21.0834324 14.96 28.9459459"></polygon>
                    <polygon id="Fill-1-Copy-13" fill="#FFFFFF" opacity="0.308254076" points="14.96 29.7950881 9.52 26.1891892 9.52 28.183123 14.96 31.7027027"></polygon>
                    <polygon id="Fill-1-Copy-10" fill="#FFFFFF" opacity="0.308254076" points="24.48 34.4594595 19.04 37.8402623 19.04 39.972973 24.48 36.3470071"></polygon>
                </g>
                <g id="Group-28-Copy-3" transform="translate(11.000000, 122.000000)">
                    <polygon id="Fill-1-Copy-7" fill="url(#linearGradient-32)" points="7.00006084 0 0 4.18207512 7.00006084 8.22857143 14 4.12101526"></polygon>
                    <polygon id="Fill-3-Copy" fill="url(#linearGradient-33)" points="7.00006084 7.79043315 1.18584613e-20 4.16893257 0 44.3370584 7.00006084 48 14 44.2665535 14 4.11428571"></polygon>
                </g>
                <g id="Group-28-Copy-5" transform="translate(221.000000, 41.000000)">
                    <polygon id="Fill-1-Copy-7" fill="url(#linearGradient-32)" points="9.50008257 0 0 5.47652694 9.50008257 10.7755102 19 5.39656761"></polygon>
                    <polygon id="Fill-3-Copy" fill="url(#linearGradient-33)" points="9.50008257 10.4650235 1.6093626e-20 5.46322997 0 60.9409708 9.50008257 66 19 60.8435937 19 5.3877551"></polygon>
                </g>
                <g id="Group-28" transform="translate(229.000000, 77.000000)">
                    <polygon id="Fill-1-Copy-7" fill="url(#linearGradient-32)" points="25.5002216 0 0 15.1745434 25.5002216 29.8571429 51 14.9529894"></polygon>
                    <polygon id="Fill-3-Copy" fill="url(#linearGradient-33)" points="25.5002216 29.4816898 0 15.1449072 0 61.4991609 25.5002216 76 51 61.2200463 51 14.9285714"></polygon>
                    <polygon id="Fill-1-Copy-8" fill="#FFFFFF" opacity="0.308254076" points="35.8378378 40.7142857 27.5675676 45.2212773 27.5675676 48.0644212 35.8378378 43.2305997"></polygon>
                    <polygon id="Fill-1-Copy-14" fill="#FFFFFF" opacity="0.308254076" points="35.8378378 28.5 27.5675676 33.0069916 27.5675676 43.1989454 35.8378378 38.3651239"></polygon>
                    <polygon id="Fill-1-Copy-9" fill="#FFFFFF" opacity="0.308254076" points="42.0725988 42.0714286 27.5675676 50.0208529 27.5675676 52.8639968 42.0725988 44.5877425"></polygon>
                    <polygon id="Fill-1-Copy-11" fill="#FFFFFF" opacity="0.308254076" points="22.7753015 32.7999684 8.27027027 24.4285714 8.27027027 27.058748 22.7753015 35.3162823"></polygon>
                    <polygon id="Fill-1-Copy-12" fill="#FFFFFF" opacity="0.308254076" points="23.3926389 38.8346792 2.75675676 27.1428571 2.75675676 29.7730338 23.3926389 41.3509932"></polygon>
                    <polygon id="Fill-1-Copy-13" fill="#FFFFFF" opacity="0.308254076" points="23.3926389 44.2632506 15.4214478 39.5067483 15.4214478 42.1369249 23.3926389 46.7795646"></polygon>
                    <polygon id="Fill-1-Copy-10" fill="#FFFFFF" opacity="0.308254076" points="35.8378378 50.2142857 27.5675676 54.7212773 27.5675676 57.5644212 35.8378378 52.7305997"></polygon>
                </g>
                <g id="Page-1" filter="url(#filter-34)" transform="translate(191.000000, 115.000000)">
                    <path d="M16.943715,40.4037829 C16.110765,40.2920903 9.810315,39.4900568 5.609115,40.1629037 C8.302365,41.7225628 12.238965,42.7775867 16.943715,40.4037829" id="Fill-1" fill="#343431"></path>
                    <g id="Group-5" transform="translate(2.700000, 39.904261)">
                        <mask id="mask-36" fill="white">
                            <use xlink:href="#path-35"></use>
                        </mask>
                        <use id="Clip-4" fill="url(#linearGradient-21)" xlink:href="#path-35"></use>
                    </g>
                    <g id="Group-13" transform="translate(0.000000, 19.360003)">
                        <path d="M2.498445,0.328842703 C2.498445,0.328842703 1.249695,3.76439892 1.476495,10.6355114 C1.476495,10.6355114 1.476495,14.7587171 1.021545,15.9039025 C0.567945,17.0490879 1.589895,18.6518092 2.498445,18.8805772 C2.498445,18.8805772 4.316895,18.8805772 4.090095,16.4758224 C4.090095,16.4758224 4.543695,2.16033194 3.521745,1.24526017 L2.498445,0.328842703 Z" id="Fill-6" fill="#FFEBD8"></path>
                        <g id="Group-10" transform="translate(9.450000, 48.803828)" fill="url(#linearGradient-37)">
                            <path d="M7.10883,1.34058014 C7.10883,1.34058014 7.47198,2.07263756 7.38153,2.98770933 C7.38153,2.98770933 7.56243,2.98770933 7.38153,3.71976675 C7.19928,4.45182416 5.11218,4.725 5.11218,4.725 C5.11218,4.725 3.93363,4.99952153 2.93598,5.27404306 C1.93833,5.54856459 -1.38672,5.40592105 0.84888,3.62691388 C2.57418,2.25565191 3.02778,2.43732057 4.65993,1.34058014 C6.18813,0.312470096 7.10883,1.34058014 7.10883,1.34058014" id="Fill-8"></path>
                        </g>
                        <path d="M6.4773,45.4148325 C6.4773,45.4148325 6.8121,46.0890251 6.7284,46.9341208 C6.7284,46.9341208 6.8958,46.9341208 6.7284,47.6096591 C6.561,48.2851974 4.6359,48.5368421 4.6359,48.5368421 C4.6359,48.5368421 3.54645,48.7911782 2.6244,49.0441687 C1.70505,49.2971591 -1.36485,49.1666268 0.70065,47.5235347 C2.2896,46.2585825 2.70945,46.4267943 4.21605,45.4148325 C5.6268,44.4661184 6.4773,45.4148325 6.4773,45.4148325" id="Fill-11" fill="url(#linearGradient-37)"></path>
                    </g>
                    <g id="Group-16" transform="translate(3.700000, 12.990386)">
                        <mask id="mask-39" fill="white">
                            <use xlink:href="#path-38"></use>
                        </mask>
                        <use id="Clip-15" fill="url(#linearGradient-12)" xlink:href="#path-38"></use>
                    </g>
                    <path d="M2.9538,40.9902362 C2.9538,40.9902362 6.021,44.6545604 10.90395,44.884674 L10.90395,44.884674 C10.90395,44.884674 16.12845,44.9977123 17.7201,42.9361094 L17.7201,42.9361094 L18.1359,39.7373953 C11.016,44.1109001 5.47965,40.4977123 3.04965,38.280009 L3.04965,38.280009 L2.9538,40.9902362 Z" id="Fill-17" fill="url(#linearGradient-12)"></path>
                    <path d="M19.544895,28.4871262 C19.374795,28.5692135 19.183095,28.6526465 18.968445,28.7360795 C17.491545,29.3079994 16.129395,28.2785437 16.129395,28.2785437 C16.015995,25.6436752 15.902595,19.0013307 9.996345,16.9397279 C7.139745,15.9439145 5.109345,15.8322219 3.770145,15.9802482 C3.068145,16.9800987 2.395845,18.4347937 2.158245,20.4910138 L3.635145,21.8649671 L3.049245,38.2797398 C5.479245,40.4974432 11.016945,44.110631 18.136845,39.7371262 L19.423395,29.881265 C19.423395,29.881265 19.494945,29.3524073 19.544895,28.4871262" id="Fill-19" fill="#EAEFF6"></path>
                    <path d="M8.0649,13.7332087 L4.6575,16.2536932 L6.3612,16.939997 L7.15635,26.3302482 L11.13075,19.2303678 C11.13075,19.2303678 11.6991,18.7728319 12.26745,19.5735197 L12.26745,19.5735197 L13.176,14.3051286 C13.176,14.3051286 11.21175,13.5286633 9.4338,13.5286633 L9.4338,13.5286633 C8.94915,13.5286633 8.478,13.5865281 8.0649,13.7332087" id="Fill-21"></path>
                    <g id="Group-43" transform="translate(4.050000, 0.879142)">
                        <path d="M4.696245,12.625299 C4.696245,12.625299 3.559545,12.9697967 3.332745,13.5417165 C3.105945,14.1136364 2.877795,14.1136364 2.537595,14.3424043 C2.537595,14.3424043 2.992545,15.0300538 3.559545,15.0300538 C3.559545,15.0300538 3.787695,15.0300538 3.787695,15.7177033 L3.105945,25.4511065 L6.854895,16.2909689 C6.854895,16.2909689 6.968295,15.8320873 7.195095,16.5197368 C7.195095,16.5197368 7.762095,17.4348086 8.103645,16.9772727 C8.103645,16.9772727 7.762095,14.6869019 8.785395,13.3129486 C8.785395,13.3129486 8.898795,13.4273325 6.513345,13.4273325 C4.127895,13.4273325 4.696245,12.625299 4.696245,12.625299" id="Fill-23" fill="#FFFFFF"></path>
                        <polygon id="Fill-25" fill="#FFFFFF" points="7.53597 22.2448565 10.03482 23.3913876 10.03482 26.2536782 7.53597 25.2228768"></polygon>
                        <path d="M5.94594,11.2506728 C5.94594,11.2506728 3.67389,12.6246262 4.92264,13.7711573 C4.92264,13.7711573 6.28614,15.0307267 8.33139,13.7711573 C9.46674,13.0835078 9.23859,11.3664025 8.89974,10.9075209 C8.55819,10.4486394 5.94594,11.2506728 5.94594,11.2506728" id="Fill-27" fill="#F7E1CB"></path>
                        <path d="M11.625525,6.55648923 C11.625525,9.46453349 9.285975,11.8235347 6.399675,11.8235347 C3.513375,11.8235347 1.175175,9.46453349 1.175175,6.55648923 C1.175175,3.64709928 3.513375,1.28809809 6.399675,1.28809809 C9.285975,1.28809809 11.625525,3.64709928 11.625525,6.55648923" id="Fill-29" fill="#FFEEDF"></path>
                        <g id="Group-33">
                            <mask id="mask-41" fill="white">
                                <use xlink:href="#path-40"></use>
                            </mask>
                            <g id="Clip-32"></g>
                            <path d="M2.6514,2.31836124 C2.1978,3.12039474 1.85625,4.37996411 0.26595,4.37996411 C0.26595,4.37996411 0.8343,4.72311603 1.0611,5.41076555 C1.2879,6.09841507 2.538,6.67033493 4.58325,6.09841507 C6.62715,5.52514952 7.5357,7.01348684 7.5357,7.01348684 C7.5357,7.01348684 7.99065,7.47236842 7.8759,6.67033493 C7.7625,5.86964713 8.7858,5.29638158 9.2394,5.75526316 C9.69435,6.21279904 10.1493,6.67033493 10.1493,7.92990431 C10.1493,9.18947368 11.17125,9.41824163 11.39805,8.04428828 C11.62485,6.67033493 12.5334,2.31836124 9.0126,0.944407895 C5.4918,-0.429545455 3.10635,1.51632775 2.6514,2.31836124" id="Fill-31" fill="#776977" mask="url(#mask-41)"></path>
                        </g>
                        <path d="M7.08237,47.3452751 L7.08237,55.5230562 C7.08237,56.5780801 8.21637,57.2374701 9.12222,56.7086124 L19.58202,50.6139653 C20.21112,50.2465909 20.59857,49.5697069 20.59857,48.8376495 L20.59857,40.6033493 C20.59857,39.6061902 19.52937,38.9817883 18.67077,39.4756579 L8.10432,45.570305 C7.47252,45.9336423 7.08237,46.6105263 7.08237,47.3452751" id="Fill-34" fill="url(#linearGradient-24)"></path>
                        <g id="Group-38" transform="translate(8.100000, 40.011962)">
                            <mask id="mask-43" fill="white">
                                <use xlink:href="#path-42"></use>
                            </mask>
                            <g id="Clip-37"></g>
                            <path d="M0.1188,8.36357656 L0.1188,16.5413577 C0.1188,17.5963816 1.2528,18.2557715 2.15865,17.7282596 L12.61845,11.6322667 C13.24755,11.2648923 13.635,10.5880084 13.635,9.85595096 L13.635,1.62165072 C13.635,0.625837321 12.5658,8.97129186e-05 11.7072,0.495305024 L1.14075,6.58860646 C0.50895,6.95194378 0.1188,7.63017344 0.1188,8.36357656" id="Fill-36" fill="#FFFFFF" opacity="0.499830163" mask="url(#mask-43)"></path>
                        </g>
                        <path d="M12.874005,44.1189743 L12.420405,44.1189743 L12.420405,42.4341657 C12.388005,42.2928678 12.405555,41.9820126 12.984705,41.6307865 L12.995505,41.6254037 L15.150105,40.4829097 C15.205455,40.450613 15.478155,40.3093152 15.733305,40.4546501 C15.946605,40.5771083 16.054605,40.846247 16.054605,41.2553379 L16.054605,42.401869 L15.601005,42.401869 L15.601005,41.2553379 C15.601005,40.9808164 15.541605,40.8731609 15.510555,40.8543212 C15.483555,40.8381728 15.412005,40.8597039 15.375555,40.881235 L13.212855,42.0277661 C12.949605,42.1879037 12.884805,42.2995963 12.868605,42.3372757 L12.874005,42.3466956 L12.874005,44.1189743 Z" id="Fill-39" fill="#8ABDF2"></path>
                        <path d="M12.07899,27.3989982 C12.07899,27.3989982 12.42054,30.2612889 12.42054,32.2085078 C12.42054,34.1557267 12.53394,34.6132626 12.76074,36.1029456 C12.98754,37.5912829 12.87414,38.9652362 12.64734,39.880308 C12.42054,40.7980712 12.64734,41.8288726 12.64734,41.8288726 C12.64734,41.8288726 12.98754,42.4007925 13.10229,41.7144886 C13.10229,41.7144886 13.32909,40.7980712 13.44249,41.484375 C13.44249,41.484375 13.78404,43.4315939 15.03279,42.8583283 C15.03279,42.8583283 15.82659,42.6295604 15.71319,41.2556071 C15.71319,41.2556071 15.03279,39.765924 15.37299,38.3933164 C15.37299,38.3933164 15.94134,34.8420305 15.71319,32.4372757 C15.71319,32.4372757 15.70644,29.4121561 15.48639,27.6277661 C15.48639,27.6277661 14.80599,27.8565341 14.01084,27.9709181 C13.10229,27.9709181 12.07899,27.3989982 12.07899,27.3989982" id="Fill-41" fill="#FFEBD8"></path>
                    </g>
                </g>
                <g id="Group-28-Copy-6" transform="translate(110.000000, 100.000000)">
                    <polygon id="Fill-1-Copy-7" fill="url(#linearGradient-32)" points="20.5001782 0 0 12.1977191 20.5001782 24 41 12.0196279"></polygon>
                    <polygon id="Fill-3-Copy" fill="url(#linearGradient-33)" points="20.5001782 23.0498778 0 12.1642592 0 44.8785926 20.5001782 55.8887758 41 44.6666667 41 12"></polygon>
                </g>
            </g>
        </g>
    </g>
</svg>