<?xml version="1.0" encoding="UTF-8"?>
<svg width="184px" height="130px" viewBox="0 0 184 130" version="1.1" xmlns="http://www.w3.org/2000/svg" xmlns:xlink="http://www.w3.org/1999/xlink">
    <!-- Generator: Sketch 46.2 (44496) - http://www.bohemiancoding.com/sketch -->
    <title>img-home-4</title>
    <desc>Created with Sketch.</desc>
    <defs>
        <filter x="-12.4%" y="-22.6%" width="124.8%" height="145.2%" filterUnits="objectBoundingBox" id="filter-1">
            <feGaussianBlur stdDeviation="3.3984375" in="SourceGraphic"></feGaussianBlur>
        </filter>
        <linearGradient x1="82.8192346%" y1="109.17011%" x2="50%" y2="-6.09316786%" id="linearGradient-2">
            <stop stop-color="#B7B7B7" stop-opacity="0.949813179" offset="0%"></stop>
            <stop stop-color="#898989" offset="100%"></stop>
        </linearGradient>
        <linearGradient x1="50%" y1="0%" x2="50%" y2="100%" id="linearGradient-3">
            <stop stop-color="#BCFFFC" offset="0%"></stop>
            <stop stop-color="#58E1FF" offset="100%"></stop>
        </linearGradient>
        <filter x="-13.1%" y="-20.1%" width="126.2%" height="140.3%" filterUnits="objectBoundingBox" id="filter-4">
            <feGaussianBlur stdDeviation="3.3984375" in="SourceGraphic"></feGaussianBlur>
        </filter>
        <linearGradient x1="50%" y1="0%" x2="50%" y2="100%" id="linearGradient-5">
            <stop stop-color="#02FBCA" offset="0%"></stop>
            <stop stop-color="#19B7FE" offset="100%"></stop>
        </linearGradient>
        <linearGradient x1="50%" y1="0%" x2="50%" y2="100%" id="linearGradient-6">
            <stop stop-color="#676767" stop-opacity="0.949813179" offset="0%"></stop>
            <stop stop-color="#313131" offset="100%"></stop>
        </linearGradient>
        <filter x="-15.5%" y="-52.3%" width="130.9%" height="204.6%" filterUnits="objectBoundingBox" id="filter-7">
            <feGaussianBlur stdDeviation="3.3984375" in="SourceGraphic"></feGaussianBlur>
        </filter>
        <polygon id="path-8" points="11.2667373 0.224945951 11.2667373 30.1184606 0.0241624879 30.1184606 0.0241624879 0.224945951 11.2667373 0.224945951"></polygon>
        <polygon id="path-10" points="0.223990387 0.294064795 50.8679461 0.294064795 50.8679461 18.9590732 0.223990387 18.9590732 0.223990387 0.294064795"></polygon>
        <linearGradient x1="3.63831538%" y1="32.8169348%" x2="100%" y2="75.078507%" id="linearGradient-12">
            <stop stop-color="#02FBCA" offset="0%"></stop>
            <stop stop-color="#19B7FE" offset="100%"></stop>
        </linearGradient>
    </defs>
    <g id="Symbols" stroke="none" stroke-width="1" fill="none" fill-rule="evenodd">
        <g id="img-home-4">
            <g id="Group-5">
                <g id="Page-1" transform="translate(0.000000, 6.720312)">
                    <g id="Group-3" transform="translate(0.000000, 56.031879)" fill="#A6C2BF" opacity="0.362318841">
                        <path d="M3.24015935e-05,26.5499685 L31.448047,45.1124512 L42.1489972,39.5280001 C42.1489972,39.5280001 53.9418812,46.0806812 65.5167024,41.3881911 C65.5167024,41.3881911 79.0566803,35.5723472 64.6428315,26.5499685 L82.3324814,15.8890962 L48.2741945,0.0483870649 L3.24015935e-05,26.5499685 Z" id="Fill-1" filter="url(#filter-1)"></path>
                    </g>
                    <path d="M9.19936321,78.8542914 L9.19936321,78.8542914 C8.71657947,78.5763615 8.54938725,77.9545743 8.82804095,77.4727214 L14.0155361,68.5114226 C14.2945138,68.029893 14.9175964,67.863135 15.4007042,68.1413881 C15.8834879,68.4196411 16.0506802,69.0411052 15.7717024,69.522958 L10.5845313,78.4839337 C10.3058776,78.9657865 9.68247097,79.1322212 9.19936321,78.8542914" id="Fill-4" fill="url(#linearGradient-2)"></path>
                    <path d="M34.5124925,95.3112615 L34.5124925,95.3112615 C33.9548611,95.3112615 33.4983226,94.8562322 33.4983226,94.3000493 L33.4983226,83.197721 C33.4983226,82.6412149 33.9548611,82.1861856 34.5124925,82.1861856 C35.0701239,82.1861856 35.5263383,82.6412149 35.5263383,83.197721 L35.5263383,94.3000493 C35.5263383,94.8562322 35.0701239,95.3112615 34.5124925,95.3112615" id="Fill-6" fill="url(#linearGradient-2)"></path>
                    <path d="M76.7780383,71.1912158 L76.7780383,71.1912158 C76.3101593,71.4937069 75.6789762,71.3592664 75.3756973,70.8922796 L69.3224316,61.5748428 C69.0191527,61.1081791 69.1539433,60.4789589 69.6218223,60.1761446 C70.0897013,59.8736535 70.7208844,60.008094 71.0241633,60.4750808 L77.077753,69.7921945 C77.3807079,70.2591813 77.2459173,70.8884015 76.7780383,71.1912158" id="Fill-8" fill="url(#linearGradient-2)"></path>
                    <path d="M31.7449104,16.0256295 C31.7449104,16.0256295 29.2120778,17.4572914 29.5497024,23.183616 C29.5497024,23.183616 30.7317126,33.6263456 34.278067,38.0897052 C34.278067,38.0897052 55.1330286,60.1541041 66.2782047,65.5436811 C66.2782047,65.5436811 68.3046003,67.3120906 71.428762,64.6171405 L73.6414668,62.9159513 C73.6414668,62.9159513 74.8484262,62.4993797 74.662765,59.4434439 L74.662765,38.0053567 C74.662765,38.0053567 75.0807456,34.9028839 71.4595435,32.9118073 C66.7742731,30.3357854 39.7526402,13.3723689 39.7526402,13.3723689 C39.7526402,13.3723689 37.8957049,12.0757938 35.946101,13.3723689 L31.7449104,16.0256295 Z" id="Fill-10" fill="url(#linearGradient-3)"></path>
                    <path d="M37.1357903,20.6043623 C37.1357903,20.6043623 34.3751745,18.2972213 31.0925691,20.2323887 C31.0925691,20.2323887 28.2577537,21.720283 30.1973131,30.0546238 C30.1973131,30.0546238 31.3164641,43.6725404 45.1188949,53.6437588 L64.8151755,65.5501446 C64.8151755,65.5501446 68.322,67.5593189 68.4710473,63.9875971 L68.769466,42.0353397 C68.769466,42.0353397 68.322,37.4963573 64.2183382,36.0078167 L37.1357903,20.6043623 Z" id="Fill-12" fill="url(#linearGradient-3)"></path>
                    <path d="M36.1776428,7.59217113 L33.6023641,6.14661269 C33.0551012,5.83959715 32.3847122,5.84864603 31.8458737,6.17085076 L9.73308226,19.3896472 L9.46188093,19.8821648 C9.21368472,20.3329929 9.38476513,20.898871 9.84065555,21.1376967 L11.3819994,21.9459555 C11.3819994,21.9459555 12.8889975,22.3415208 13.1268252,24.6354117 C13.1268252,24.6354117 18.4410105,46.4690642 21.216855,50.1871839 L43.5036431,35.315028 L37.8725701,10.158821 C37.8725701,10.158821 37.7967504,8.50093712 36.1776428,7.59217113" id="Fill-14" fill="url(#linearGradient-3)"></path>
                    <path d="M10.0582971,19.1734113 C10.0582971,19.1734113 8.54157847,19.7725764 8.70553053,21.5723338 L8.69321792,31.3351048 L16.361055,36.079626 L13.7365259,26.2628849 C13.7365259,26.2628849 13.189587,22.8268962 11.5490944,21.8997093 C11.5490944,21.8997093 8.2392716,21.0284315 10.0582971,19.1734113" id="Fill-16" fill="url(#linearGradient-3)"></path>
                    <polygon id="Fill-18" fill="url(#linearGradient-3)" points="45.1841193 64.8950058 69.6505625 50.7125037 43.5115491 35.2647744 19.2690008 49.3651902"></polygon>
                    <polygon id="Fill-20" fill="url(#linearGradient-3)" points="69.6504977 50.7125683 69.6504977 58.0874048 45.1646135 72.4954825 45.1840545 64.8950704"></polygon>
                    <polygon id="Fill-22" fill="url(#linearGradient-3)" points="69.6504977 58.0875017 69.6504977 64.8948442 45.1840545 80.0126125 45.1840545 72.3721269"></polygon>
                    <path d="M56.1100014,79.9721511 C56.1100014,79.9721511 55.4966393,80.307606 55.4966393,81.1132794 C55.512192,80.9154968 55.4882149,82.4105008 55.227706,84.6643181 C55.2085891,84.8278443 55.2225218,85.3513865 55.2445549,85.5145895 C55.347916,86.2853601 55.734467,88.6374223 56.771642,90.3001539 C56.771642,90.3001539 57.5609448,91.9024518 59.131774,92.3054501 C59.131774,92.3054501 59.9968966,92.7947359 60.4213575,91.4393431 C60.4213575,91.4393431 60.7194521,88.9050106 60.1702451,86.0190646 C60.004673,85.1494026 59.842017,84.0318661 59.293782,83.3939201 C59.293782,83.3939201 57.0075256,80.0616704 56.1100014,79.9721511" id="Fill-24" fill="#828282"></path>
                    <path d="M52.6820424,57.8088286 C52.6820424,57.8088286 54.7777775,59.2634359 54.8714181,60.4814796 C54.8714181,60.4814796 54.2143138,64.977803 55.8107403,70.5044059 C55.8107403,70.5044059 56.7030802,77.3896333 55.8107403,82.1667951 C55.8107403,82.1667951 54.9569583,85.1012174 57.5396893,88.2392393 C57.5396893,88.2392393 59.6143634,90.3166034 59.7553103,87.131398 C59.7553103,87.131398 58.2995067,78.0450307 59.4264341,72.9870305 C59.4264341,72.9870305 60.8822377,66.9449647 60.2717917,59.076318 C60.2717917,59.076318 60.1778271,56.8279947 57.736043,56.3597152 C57.736043,56.3597152 53.1220561,55.1365007 52.6820424,57.8088286" id="Fill-26" fill="#F6D4BD"></path>
                    <path d="M48.7536733,56.6149259 C48.7536733,56.6149259 54.7243149,57.0537966 57.1123123,56.6149259 C57.1123123,56.6149259 59.4377747,56.1763785 60.1920838,58.5584959 C60.1920838,58.5584959 62.6429403,63.823974 68.2364274,67.0835095 C68.2364274,67.0835095 71.0647625,68.9850668 71.441593,71.8580859 C71.441593,71.8580859 71.5676352,73.2264057 73.5788021,73.9160595 C73.5788021,73.9160595 75.7153632,74.2922344 77.0982632,75.8593063 C77.0982632,75.8593063 79.4234016,77.1132224 82.4403139,76.4235686 C82.4403139,76.4235686 84.0743263,76.0473937 82.4403139,74.668086 C82.4403139,74.668086 68.3971393,65.7668976 65.9602155,56.8657091 C65.9602155,56.8657091 64.9684027,54.7346981 64.5912481,52.6033639 C64.5912481,52.6033639 63.4601085,49.9077675 59.5006338,50.0331591 L51.2045298,49.1554178 L48.7536733,56.6149259 Z" id="Fill-28" fill="#FFE5D4"></path>
                    <path d="M38.195938,17.1801048 C38.195938,17.1801048 33.8256111,18.5458392 33.1409654,23.3776175 C33.1409654,23.3776175 32.1932188,30.3627058 31.6138783,32.2535983 C31.6138783,32.2535983 30.5608265,36.349832 32.7197447,39.291364 C32.7197447,39.291364 40.4601614,45.068427 41.5135372,46.6965788 C41.5135372,46.6965788 42.566589,47.4844777 43.3037252,49.1649838 C43.3037252,49.1649838 44.0936761,50.5830724 45.8838641,50.530395 C45.8838641,50.530395 47.2531555,50.7407814 47.0950357,49.1649838 C47.0950357,49.1649838 47.305646,47.3267686 46.8844253,47.1167054 C46.8844253,47.1167054 48.1480875,46.0663891 46.5156952,45.7512942 C46.5156952,45.7512942 44.7255072,45.2258128 43.6196408,45.1734586 C43.6196408,45.1734586 41.7241475,44.2281739 40.9866873,43.1775344 C40.9866873,43.1775344 36.1951396,37.3477941 35.247069,36.6128958 C35.247069,36.6128958 34.9839681,35.4142425 35.2998836,33.8600975 C35.2998836,33.8600975 36.7741561,30.1529657 36.8269707,28.5248138 C36.8269707,28.5248138 38.9321022,27.3691427 39.353971,23.2199085 L46.6210004,25.2681869 L51.676297,23.5350033 L51.676297,20.4887628 C51.676297,20.4887628 53.9405203,27.264111 56.2572343,29.4697753 C56.2572343,29.4697753 58.2583567,30.9405413 60.786005,28.5248138 C60.786005,28.5248138 65.2616371,24.3755796 66.2097077,22.484687 C66.2097077,22.484687 66.7362336,21.9071746 67.8945906,21.3293391 C67.8945906,21.3293391 69.7375932,20.9554265 73.1601735,17.7023544 C73.1601735,17.7023544 73.8448192,16.2936379 72.2649175,16.1068432 C72.2649175,16.1068432 69.1057621,16.8123325 67.7364708,18.4404844 C67.7364708,18.4404844 67.9998958,16.3463153 67.3152501,16.1068432 C67.3152501,16.1068432 67.0521492,16.0774343 66.94652,16.8123325 C66.94652,16.8123325 66.5256233,18.1780669 66.1040785,18.3354528 C66.1040785,18.3354528 65.6303672,18.9656426 65.5775526,20.0686363 C65.5775526,20.0686363 65.1563319,21.0665984 64.3138905,21.644434 C64.3138905,21.644434 60.2591551,24.3232253 59.5220188,25.3735417 C59.5220188,25.3735417 58.468967,25.8460224 57.573711,24.0078073 C57.573711,24.0078073 53.0452643,15.3422129 51.8340927,13.3462887 C51.8340927,13.3462887 49.9910901,11.7181368 47.1475263,13.6087062 L41.6548081,13.144628 L38.195938,17.1801048 Z" id="Fill-30" fill="#FFE5D4"></path>
                    <path d="M41.1661921,13.385619 C41.1661921,13.385619 43.3869973,19.5055698 46.7726398,19.5055698 C46.7726398,19.5055698 49.6071312,19.5055698 49.175866,15.1453028 C49.175866,15.1453028 49.1982231,13.4864494 45.9350586,12.6943493 C45.9350586,12.6943493 41.3363005,12.7631854 41.1661921,13.385619" id="Fill-32" fill="#F6D9C6"></path>
                    <path d="M39.4312488,18.2821614 C39.4312488,18.2821614 42.0891515,20.7512127 42.9967201,22.5622812 C42.9967201,22.5622812 44.1184633,23.7874348 46.2547004,23.2015198 C46.2547004,23.2015198 48.4978627,22.4023099 48.6047879,19.366411 C48.6047879,19.366411 48.017347,15.9572458 47.4295821,14.8917403 L49.1922288,13.4536149 C49.1922288,13.4536149 50.1532601,13.8265579 50.4737118,15.2646834 C50.4737118,15.2646834 50.7941636,16.6485155 51.0080141,18.4069066 C51.0080141,18.4069066 51.5419924,20.111974 52.2898212,21.1771563 C52.2898212,21.1771563 53.6247668,23.4678154 52.6634115,26.4507138 C52.6634115,26.4507138 51.4350671,28.4217535 50.2067227,29.1676397 C50.2067227,29.1676397 49.6727445,35.8259988 50.8476262,39.5014596 C50.8476262,39.5014596 51.2215406,43.656511 56.027993,45.8401994 C56.027993,45.8401994 64.893393,49.8886033 67.1365553,52.2855867 C67.1365553,52.2855867 66.4421892,54.4695983 64.9468556,54.309627 C64.9468556,54.309627 63.8254365,50.1548988 60.7278441,50.2082226 C60.7278441,50.2082226 55.5779349,49.9012071 54.4030531,56.0802988 C54.4030531,56.0802988 53.8133441,58.3386404 51.9554367,59.9034502 C49.6578397,61.8376481 49.0253606,62.1579137 48.7535112,63.2024129 C48.7535112,63.2024129 46.5216895,58.6776502 43.6910863,57.2928486 C43.6910863,57.2928486 33.2768901,51.0074325 35.0392128,44.2421027 C35.0392128,44.2421027 37.6562895,39.9810502 37.4959016,35.1867602 C37.4959016,35.1867602 37.015386,32.2568624 36.0005681,30.9253845 C36.0005681,30.9253845 35.7335789,28.6347254 37.2289125,27.9958099 C37.2289125,27.9958099 40.8608071,25.0497534 39.3651495,20.7163098 C39.3651495,20.7163098 38.6176448,19.3127641 38.1368051,18.7801729 L39.4312488,18.2821614 Z" id="Fill-34" fill="#FFFAFF"></path>
                    <path d="M39.6489551,3.71753806 C39.6489551,3.71753806 36.2623405,8.8230449 42.6415663,14.9497824 C42.6415663,14.9497824 45.0830263,17.3849004 48.2331093,15.8139503 C48.2331093,15.8139503 51.1466605,14.7927197 50.6742453,9.13749345 C50.6742453,9.13749345 49.650355,1.67539996 45.7129133,1.91067082 C45.7129133,1.91067082 42.4053586,1.36095141 39.6489551,3.71753806" id="Fill-36" fill="#FFE5D4"></path>
                    <g id="Group-40" transform="translate(31.105530, 0.313802)" fill="#333333">
                        <path d="M19.4590362,8.6815269 C19.4590362,8.6815269 19.1019706,5.00315755 17.7537403,3.50007411 C17.7537403,3.50007411 17.1193171,2.74869397 16.8814894,3.69785675 C16.8814894,3.69785675 17.0399332,6.66427321 13.4313677,6.22928067 C13.4313677,6.22928067 12.439879,5.91289308 12.0436075,7.45540378 C12.0436075,7.45540378 11.8848397,9.27487482 9.74341837,10.382393 C9.74341837,10.382393 8.79178357,11.370983 10.06063,13.0718491 C10.06063,13.0718491 11.0125888,13.9024069 10.5366094,15.3266359 C10.5366094,15.3266359 9.41519023,16.3546532 9.40093353,17.1060333 C9.40093353,17.1060333 10.814291,18.6488672 10.6953772,20.6263704 C10.6953772,20.6263704 10.6953772,21.8919208 10.1004839,23.6325373 C10.1004839,23.6325373 10.1400139,25.0561199 11.4088603,24.7794828 C11.4088603,24.7794828 11.9642236,25.2933298 10.4176955,26.0450331 C10.4176955,26.0450331 8.67286972,25.7680728 8.59348582,22.8410836 C8.51410191,19.9144176 5.93655515,18.0949465 4.03328555,18.8068994 C4.03328555,18.8068994 2.44690354,19.3210696 2.09016199,24.5025224 C2.09016199,24.5025224 1.69324247,28.9716992 0.860845535,28.8534174 C0.860845535,28.8534174 -0.0911132809,28.1414645 0.384866127,27.1919786 C0.384866127,27.1919786 1.53479868,26.5986306 0.702077727,25.3330803 C0.702077727,25.3330803 -0.130643225,24.3047398 0.503779975,23.3552538 C0.503779975,23.3552538 1.37603087,23.3158266 1.73309643,22.2480588 C1.73309643,22.2480588 1.77295039,20.7449754 0.702077727,20.3891605 C0.702077727,20.3891605 -0.447854825,18.8860771 1.21758708,17.185211 C1.21758708,17.185211 5.57981361,14.1793673 5.0244503,7.02008806 C5.0244503,7.02008806 5.22274805,1.04782788 11.4882442,0.138092358 C11.4882442,0.138092358 16.6038078,-1.00885306 19.4590362,3.53982454 C19.4590362,3.53982454 20.410995,6.78287816 19.4590362,8.6815269" id="Fill-38"></path>
                    </g>
                    <path d="M50.2068523,29.1675104 C50.2068523,29.1675104 50.1491775,29.8665363 50.1151558,30.9326882 C50.1151558,30.9326882 47.1672588,34.3993784 41.294146,32.6212737 C41.294146,32.6212737 39.6685581,31.5228044 39.3539386,29.8490849 C39.3539386,29.8490849 40.7173976,31.5228044 42.0283661,31.7845755 C42.0283661,31.7845755 46.7687192,32.9703019 48.6564361,29.717553 C48.6564361,29.717553 49.1139466,30.1493138 50.2068523,29.1675104" id="Fill-41" fill="#EFF1F7"></path>
                    <path d="M49.932022,42.1913682 C49.932022,42.1913682 48.142482,45.6677536 43.4465191,43.682171 C38.3102185,40.9022261 39.3541978,39.1548229 36.2206397,31.2538588 C36.2206397,31.2538588 38.2518956,34.8798739 37.2092123,38.4745411 C37.2092123,38.4745411 36.4895729,42.1988012 35.3490368,43.455949 C35.3490368,43.455949 39.866467,44.4839663 41.9272083,46.9342735 C41.9272083,46.9342735 43.4329104,46.3021447 45.3352079,46.9342735 C45.3352079,46.9342735 50.4867373,46.7762413 54.2116245,47.8039354 C54.2116245,47.8039354 49.6148104,45.5113373 49.932022,42.1913682" id="Fill-43" fill="#EFF1F7"></path>
                    <path d="M39.3540682,23.2200377 C38.9321994,27.3692719 36.8270679,28.5246199 36.8270679,28.5246199 C36.7742533,30.1527718 35.2999808,33.8602268 35.2999808,33.8602268 C34.9840653,35.4140486 35.2471662,36.6127019 35.2471662,36.6127019 C36.1949128,37.3479233 40.9867845,43.1776637 40.9867845,43.1776637 C41.7239207,44.2283032 43.619738,45.1735879 43.619738,45.1735879 C44.7256044,45.2259421 46.5157924,45.7514234 46.5157924,45.7514234 C48.1481847,46.0661951 46.8845225,47.1165115 46.8845225,47.1165115 C47.3057432,47.3268979 47.0951329,49.1647899 47.0951329,49.1647899 C47.2529286,50.7405875 45.8839613,50.5305243 45.8839613,50.5305243 C44.0934493,50.5832017 43.3038224,49.1647899 43.3038224,49.1647899 C42.5666862,47.4842838 41.5136344,46.6967081 41.5136344,46.6967081 C40.4602586,45.0682331 32.7195179,39.2911701 32.7195179,39.2911701 C30.5605997,36.3499612 31.6139755,32.2534044 31.6139755,32.2534044 C32.192992,30.362835 33.1410626,23.3774236 33.1410626,23.3774236 C33.4106439,21.4748968 33.9177288,20.1094855 34.8385821,19.1535361 C36.0857195,18.1769035 37.5949857,19.0556143 38.1976553,19.5054729 C39.9635422,21.4761895 39.3540682,23.2200377 39.3540682,23.2200377" id="Fill-45" fill="#FFE5D4"></path>
                    <path d="M54.4030855,56.0802988 C54.4030855,56.0802988 54.2948642,56.4555041 53.945899,57.1587312 C53.4744558,58.1091867 52.5263852,59.5870626 50.46856,60.861985 C50.46856,60.861985 48.8439441,62.032199 48.7535436,63.2024129 C48.7535436,63.2024129 51.4312113,61.0726946 52.725331,60.861985 C53.721356,60.6994283 54.4030855,56.0802988 54.4030855,56.0802988" id="Fill-47" fill="#E8ECF8"></path>
                    <path d="M71.3417637,71.3357717 C71.3417637,71.3357717 71.38745,71.9213634 72.832237,72.2668367 C72.832237,72.2668367 74.7167137,72.6009989 76.5755931,74.3235176 C76.6909428,74.4304883 76.8260574,74.5167758 76.9747807,74.5681605 C77.7611674,74.8389806 80.3021004,75.583574 80.5571009,73.9883859 C80.5571009,73.9883859 80.6782829,73.5097649 80.4589241,73.3177994 C80.4589241,73.3177994 82.5229056,74.1254118 83.3303533,75.275589 C83.3303533,75.275589 83.8248016,76.3436799 83.0008291,76.9735465 C83.0008291,76.9735465 81.4909148,77.6580296 79.0196453,77.4392406 C79.0196453,77.4392406 77.7838485,77.3296845 76.1637689,75.631727 C76.1637689,75.631727 74.7546236,74.2692244 73.1407002,74.3849207 C72.9391623,74.3991404 72.7385964,74.3568046 72.5509912,74.281505 C72.2253552,74.1519121 71.7629844,73.9185803 71.4872469,73.5659972 C71.3508362,73.3911599 71.2954294,73.1665538 71.3090381,72.9455026 L71.3417637,71.3357717 Z" id="Fill-49" fill="#828282"></path>
                    <path d="M2.2469533,34.6583379 C2.2469533,34.6583379 -0.286203275,36.0903231 0.0517453448,41.8166476 C0.0517453448,41.8166476 1.23375547,52.2593773 4.77978586,56.7224137 C4.77978586,56.7224137 25.6350715,78.7868126 36.7802476,84.1763896 C36.7802476,84.1763896 38.8066433,85.9447991 41.9308049,83.249849 L44.1435097,81.5486598 C44.1435097,81.5486598 45.3504691,81.1320881 45.164808,78.0761524 L45.164808,56.6380652 C45.164808,56.6380652 45.5824645,53.5355924 41.9615864,51.544839 C37.275992,48.9684938 10.2546831,32.0050773 10.2546831,32.0050773 C10.2546831,32.0050773 8.39774779,30.7085022 6.4478199,32.0050773 L2.2469533,34.6583379 Z" id="Fill-51" fill="url(#linearGradient-3)"></path>
                    <path d="M7.63783322,39.2370384 C7.63783322,39.2370384 4.87721746,36.9302206 1.59461202,38.8650649 C1.59461202,38.8650649 -1.24052741,40.3532823 0.699355994,48.6876231 C0.699355994,48.6876231 1.81850703,62.3052166 15.6209378,72.2767581 L35.3172185,84.1828208 C35.3172185,84.1828208 38.8237189,86.1919951 38.9727662,82.6202733 L39.2715089,60.6680158 C39.2715089,60.6680158 38.8237189,56.1290334 34.7203811,54.640816 L7.63783322,39.2370384 Z" id="Fill-53" fill="url(#linearGradient-3)"></path>
                </g>
                <g id="Page-1" transform="translate(105.843463, 0.000000)">
                    <g id="Group-3" transform="translate(0.000000, 51.948306)" fill="#A6C2BF" opacity="0.362318841">
                        <path d="M-3.10328626e-05,19.1236932 L17.7780753,29.157005 C17.7780753,29.157005 3.07718762,32.3880402 7.86338601,43.7815604 C7.86338601,43.7815604 15.555812,52.9646648 29.4023649,50.2439394 C29.4023649,50.2439394 40.6843621,48.0332149 42.0519804,41.5708359 L47.8641252,45.6523872 L77.9501751,27.6263847 L30.5428226,0.100533888 L-3.10328626e-05,19.1236932 Z" id="Fill-1" filter="url(#filter-4)"></path>
                    </g>
                    <path d="M12.3368973,73.9445205 L12.3368973,73.9445205 C11.8741973,73.6790236 11.7143781,73.0850516 11.9812607,72.6247541 L16.9493116,64.0643324 C17.2165046,63.6043437 17.8135769,63.4450455 18.2762769,63.7108511 C18.7386665,63.9766567 18.8987961,64.5703201 18.6316031,65.0306175 L13.6635522,73.5907305 C13.3963592,74.051028 12.7992869,74.2100174 12.3368973,73.9445205" id="Fill-4" fill="url(#linearGradient-2)"></path>
                    <path d="M44.6774226,90.7129322 L44.6774226,90.7129322 C44.1433471,90.7129322 43.7064043,90.2782583 43.7064043,89.7469558 L43.7064043,79.1409734 C43.7064043,78.6096709 44.1433471,78.174997 44.6774226,78.174997 C45.2114982,78.174997 45.6484409,78.6096709 45.6484409,79.1409734 L45.6484409,89.7469558 C45.6484409,90.2782583 45.2114982,90.7129322 44.6774226,90.7129322" id="Fill-6" fill="url(#linearGradient-2)"></path>
                    <path d="M70.2977195,78.0675634 L70.2977195,78.0675634 C69.8492946,78.3565228 69.2450848,78.2280964 68.9546172,77.7819999 L63.1567475,68.8813717 C62.8662799,68.435584 62.9953766,67.8345114 63.4438015,67.5452433 C63.891916,67.2562839 64.4964362,67.3847103 64.7869038,67.8308068 L70.5844631,76.7314349 C70.8749307,77.1772227 70.745834,77.7782953 70.2977195,78.0675634" id="Fill-8" fill="url(#linearGradient-2)"></path>
                    <path d="M36.8437661,22.8623366 C36.8437661,22.8623366 44.5690869,18.64248 54.0213865,20.7321873 C54.0213865,20.7321873 65.7170517,23.9820542 70.8632313,31.2958755 C70.8632313,31.2958755 74.0329279,35.2104107 72.7537533,45.8191716 L65.0715682,51.4961738 C65.0715682,51.4961738 66.071447,37.3059836 58.2992666,34.0669219 L36.8437661,22.8623366 Z" id="Fill-10" fill="url(#linearGradient-5)"></path>
                    <path d="M9.48317731,36.7202543 C9.48317731,36.7202543 13.5838598,36.7971249 15.2090508,42.4932676 C15.2090508,42.4932676 17.4527267,48.574072 17.9169784,52.9615621 L38.9969813,43.6685543 L62.6989507,58.622511 C62.6989507,58.622511 70.4553044,38.5676186 57.9202002,30.1776088 C57.9202002,30.1776088 49.7185249,21.0176582 38.421632,22.5569226 C38.421632,22.5569226 30.9777792,24.0498794 25.8868381,27.1753332 L9.48317731,36.7202543 Z" id="Fill-12" fill="url(#linearGradient-5)"></path>
                    <polygon id="Fill-14" fill="url(#linearGradient-5)" points="17.9217264 52.7186942 38.9970744 43.6686469 61.8381922 58.1190858 42.447308 67.0792963"></polygon>
                    <path d="M8.27351633,38.5047329 C8.27351633,38.5047329 7.16874642,48.3960348 11.7349218,59.0196141 C11.7349218,59.0196141 13.6499598,63.1959416 17.1852235,65.3208427 L43.4784369,80.2562763 C43.4784369,80.2562763 48.1184705,82.538932 50.6963704,76.6041508 C50.6963704,76.6041508 55.4834998,63.2851609 49.8122442,58.6689112 C49.8122442,58.6689112 44.9515669,55.3563747 43.4048891,63.1227756 L42.4475252,67.0792963 L17.9216333,52.7186942 C17.9216333,52.7186942 17.0378174,40.1168545 10.998512,36.6728045 C10.998512,36.6728045 8.78897217,35.8670524 8.27351633,38.5047329" id="Fill-16" fill="url(#linearGradient-5)"></path>
                    <path d="M46.4511947,57.9946109 C46.4511947,57.9946109 51.0937109,58.2255315 51.8676705,64.0757241 C52.6413198,69.925608 49.7785382,77.8540854 47.5345519,80.24047 L66.3367427,69.8487374 C66.3367427,69.8487374 77.0145301,58.9954724 75.7766292,48.8346603 C75.7766292,48.8346603 73.6874969,40.5983918 65.4855113,44.1393791 C65.4855113,44.1393791 47.6118238,55.3776145 46.4511947,57.9946109" id="Fill-18" fill="url(#linearGradient-5)"></path>
                    <polygon id="Fill-20" fill="#F0AFB9" points="19.5593926 82.6176857 22.8401869 82.6176857 22.8401869 77.372579 19.5593926 77.372579"></polygon>
                    <path d="M12.6390332,85.361318 C12.6390332,85.361318 12.3783572,85.4919054 12.4382506,85.6820753 C12.4382506,85.6820753 12.6173102,86.4430634 14.1947106,86.5498796 C14.1947106,86.5498796 15.664427,87.001533 17.6595297,85.6110703 C17.6595297,85.6110703 18.5917569,84.4577025 19.5832569,84.3388464 C19.5832569,84.3388464 20.0254752,84.2675327 20.6467531,84.3388464 C20.6467531,84.3388464 21.6742512,84.5293249 22.6781643,84.1724477 C22.6781643,84.1724477 23.5861858,83.9112729 23.8608267,83.4593108 C23.8608267,83.4593108 24.0265422,83.1894919 23.7944163,83.1759083 C23.5622905,83.1623248 12.6390332,85.361318 12.6390332,85.361318" id="Fill-22" fill="#000000"></path>
                    <path d="M19.0381957,80.7766811 C19.0381957,80.7766811 19.9760088,82.4425195 21.851635,81.9096735 C21.851635,81.9096735 23.191634,81.6432505 23.258665,80.7766811 C23.258665,80.7766811 23.7946025,81.5765676 23.7946025,83.1757231 C23.7946025,83.1757231 22.553288,84.2661126 20.4616731,83.9944414 C20.4616731,83.9944414 18.9156159,83.8586057 17.9607347,84.9894372 C17.9607347,84.9894372 16.5965301,86.4373213 14.2774442,86.3014856 C14.2774442,86.3014856 11.5946533,85.939669 13.0950922,84.8088376 C13.0950922,84.8088376 15.7778832,82.7277743 17.3242507,82.2304308 C17.3242507,82.2304308 18.7061441,81.5398302 19.0381957,80.7766811" id="Fill-23" fill="url(#linearGradient-6)"></path>
                    <polygon id="Fill-24" fill="#F0AFB9" points="31.793478 90.7128705 34.7412896 90.7128705 34.7412896 85.4680725 31.793478 85.4680725"></polygon>
                    <path d="M32.1263986,89.91851 C32.1263986,89.91851 31.4424343,89.8913429 31.2413413,90.9054792 C31.2413413,90.9054792 30.7826756,92.8933098 30.1558118,94.24827 C30.0493691,94.4785731 29.7890034,94.8650871 29.6940428,95.1003297 C29.4482625,95.7069592 29.1307964,96.616749 29.2577208,98.2813526 C29.2577208,98.2813526 29.5398095,100.074691 30.5455846,100.074691 C31.5510493,100.074691 33.1405525,98.627116 33.8648595,97.626872 C33.8648595,97.626872 34.694368,96.1536731 34.6605421,94.8036524 C34.6605421,94.8036524 34.6031313,93.5545822 35.3910557,92.006365 C35.3910557,92.006365 35.8745477,91.4380165 35.4720515,90.8511449 L32.1263986,89.91851 Z" id="Fill-25" fill="#000000"></path>
                    <path d="M31.558311,89.5875033 C31.558311,89.5875033 32.4536091,89.5875033 32.6326687,88.9345663 L33.6772349,88.9345663 C33.6772349,88.9345663 33.647133,89.7656332 34.2736865,89.8844894 C34.2736865,89.8844894 35.1990864,89.9733999 35.0200268,88.9345663 C35.0200268,88.9345663 35.556585,90.1493688 35.4672104,91.3073673 C35.4672104,91.3073673 34.3224081,92.4459167 34.3177531,95.1410186 C34.3177531,95.1410186 34.1327973,96.2261599 33.5124504,97.2449269 C32.9367908,98.1899106 31.9943227,99.0861168 30.9457223,99.457195 C30.6527721,99.5612328 30.3235134,99.4775704 30.1230411,99.2410929 C29.7866449,98.8443912 29.4406285,97.9722649 29.7481641,96.0751971 C29.7776453,95.8933627 29.8344355,95.7180112 29.912328,95.5509952 C30.3185481,94.6788688 31.6597885,91.6299769 31.558311,89.5875033" id="Fill-26" fill="url(#linearGradient-6)"></path>
                    <path d="M31.4932972,41.946128 C31.4932972,41.946128 30.8943629,43.4952713 31.19383,44.2102606 C31.19383,44.2102606 30.3553221,44.3890079 30.4152155,45.1635795 C30.4152155,45.1635795 20.165061,52.5218561 18.3226399,54.743077 C18.3226399,54.743077 16.3927062,56.946701 16.5128034,60.7596682 C16.5128034,60.7596682 17.2911076,67.7903957 17.351001,70.1736932 C17.351001,70.1736932 17.9499353,75.059453 18.2494024,78.7532553 C18.2494024,78.7532553 18.4889761,81.0173879 21.1242868,81.1365528 C21.1242868,81.1365528 24.2967763,81.747813 23.9973092,78.9446601 C23.9973092,78.9446601 22.8611961,64.7152628 22.3221553,61.6055536 C22.3221553,61.6055536 21.7049116,59.8057318 23.8002505,58.3245062 C23.8002505,58.3245062 34.5478618,53.7431417 35.4459529,52.3727456 C35.4459529,52.3727456 32.3141164,55.8698951 30.5722418,58.8820497 C30.5722418,58.8820497 27.0261166,62.4319898 27.6467738,66.9698252 C27.6467738,66.9698252 29.0243226,85.3205982 31.3601662,88.0613903 C31.3601662,88.0613903 34.0845412,90.1890698 35.8518627,87.6440045 C35.8518627,87.6440045 34.360113,69.4537645 33.2674459,66.9948313 C33.2674459,66.9948313 33.0371821,65.4799555 34.0553703,64.8245487 C34.0553703,64.8245487 47.1251707,57.8540211 48.5623025,56.0072743 C48.5623025,56.0072743 50.8981461,54.0410539 49.2211302,47.3082385 L31.4932972,41.946128 Z" id="Fill-27" fill="#B2C5EF"></path>
                    <path d="M24.5078929,28.7481861 C24.5078929,28.7481861 22.3349718,29.6129032 19.9203048,32.3033743 C17.5056378,34.9935368 14.8979463,35.9064138 13.5458445,35.810094 C13.5458445,35.810094 11.2276897,35.810094 10.1170235,36.338618 C10.1170235,36.338618 9.05476864,37.1551752 9.10286958,38.8849182 C9.10286958,38.8849182 8.61999824,42.5839688 9.73066439,43.92905 C9.73066439,43.92905 11.2761009,44.0250611 11.6140488,40.4220216 C11.6140488,40.4220216 11.8554845,39.0769404 12.0488192,39.0769404 C12.0488192,39.0769404 11.710561,40.4220216 12.0969202,40.8066833 C12.0969202,40.8066833 12.8696384,40.7103635 13.9803046,39.3171224 C13.9803046,39.3171224 15.2843055,37.539837 16.4433829,37.395666 C16.4433829,37.395666 26.2463538,33.9846487 27.6468669,31.1984752 C27.6468669,31.1984752 25.618559,28.652175 24.5078929,28.7481861" id="Fill-28" fill="#FFE5D4"></path>
                    <path d="M45.1247303,17.1604209 C45.1247303,17.1604209 52.5431361,21.1783764 53.4325379,27.2443624 C53.4325379,27.2443624 54.1310877,38.1760416 53.8772389,41.0826148 C53.8772389,41.0826148 54.0801938,44.2309137 50.3705254,43.2723466 C50.3705254,43.2723466 48.2025696,42.6493551 48.2990818,41.1159563 L48.2990818,46.8670507 C48.2990818,46.8670507 45.0229425,48.6403228 41.12056,46.0523457 L32.7860641,42.0742148 C32.7860641,42.0742148 31.4370656,41.7386391 31.4851665,39.1028109 L31.4839252,25.7319564 C31.4839252,25.7319564 29.3172108,30.907293 28.1609263,31.2904112 C28.1609263,31.2904112 25.1259123,31.4342734 24.0661401,29.5656077 C24.0661401,29.5656077 23.6804016,27.528691 25.0778114,26.7257174 C25.0778114,26.7257174 29.606437,21.6948604 30.4734952,20.2861835 C30.4734952,20.2861835 31.4370656,18.3502173 35.9656912,17.9670992 C35.9656912,17.9670992 42.3839079,16.1623379 45.1247303,17.1604209" id="Fill-29" fill="#FFFAF4"></path>
                    <path d="M36.968301,18.9901265 C36.968301,18.9901265 35.490516,22.1402777 36.4758094,23.3306916 C36.4758094,23.3306916 42.808996,27.7410268 44.9201617,20.7402448 C44.9201617,20.7402448 45.4126532,18.4301134 43.5128213,17.0297718 C43.5128213,17.0297718 41.7535684,15.9097454 41.6126792,13.8098504 L36.968301,18.9901265 Z" id="Fill-30" fill="#F3D4C0"></path>
                    <path d="M37.4775813,18.2300954 C37.4775813,18.2300954 37.8294939,22.2202664 39.870215,22.1501876 C39.870215,22.1501876 43.5292998,20.7501547 42.0518252,16.1298917 C42.0518252,16.1298917 44.8665058,16.1298917 45.2885528,19.4899707 C45.2885528,19.4899707 46.1332673,25.5022399 39.3777234,25.8214536 C39.3777234,25.8214536 34.6629006,26.0005096 34.0999645,21.3802466 C34.0999645,21.3802466 34.2405434,18.0899378 37.4775813,18.2300954" id="Fill-31" fill="#07EED5"></path>
                    <path d="M34.3625025,5.20185543 C34.3625025,5.20185543 31.7268815,6.96586601 33.0783627,13.1429902 C33.0783627,13.1429902 33.6866068,16.8997709 36.7278273,19.0506043 C36.7278273,19.0506043 39.5241986,20.2048982 41.9314177,17.0340629 C41.9314177,17.0340629 43.5196796,15.5741389 44.0627547,12.5255557 C44.0627547,12.5255557 46.0410997,5.8495443 42.8990224,4.03583023 C42.8990224,4.03583023 38.7434117,0.965636805 34.3625025,5.20185543" id="Fill-32" fill="#FFE5D4"></path>
                    <path d="M36.666165,6.98241326 C36.666165,6.98241326 40.2395991,6.03279888 41.2872686,8.77544327 C42.3346277,11.5180877 41.5951146,11.2850061 42.4578282,12.1985006 C42.4578282,12.1985006 42.0879164,9.25025046 43.2587863,9.06656367 C43.2587863,9.06656367 44.0597445,8.69888138 44.6139914,9.06656367 C44.6139914,9.06656367 44.9839032,5.9080771 43.9365441,4.94364429 C43.9365441,4.94364429 42.1841183,2.34300986 38.3912818,3.2438469 C38.3912818,3.2438469 34.5096914,4.28576775 34.7560923,6.00161844 C34.7560923,6.00161844 34.5428966,7.08861201 36.666165,6.98241326" id="Fill-33" fill="#828282"></path>
                    <path d="M34.0341128,4.35257417 C34.0341128,4.35257417 32.0194593,7.11991594 34.8015555,7.59719287 C34.8015555,7.59719287 37.2956666,7.97876744 39.3100097,5.97488352 C39.3100097,5.97488352 41.5422035,4.36893619 41.2411848,1.98903461 C41.2411848,1.98903461 40.7614167,1.35863391 41.2411848,0.308686416 C41.2411848,0.308686416 39.3100097,1.77571097 36.6241155,2.63487118 C36.6241155,2.63487118 34.502709,3.50360163 34.0341128,4.35257417" id="Fill-34" fill="#000000"></path>
                    <path d="M41.4961258,25.5371866 C41.4961258,25.5371866 39.2524498,27.7324753 39.3259977,32.5987859 C39.3259977,32.5987859 39.1019405,36.3311779 39.3241358,37.4654052 C39.3241358,37.4654052 39.3259977,38.5996325 38.1858504,38.4533005 C38.1858504,38.4533005 36.7515114,29.4523393 39.1053541,25.8662793 L41.4961258,25.5371866 Z" id="Fill-35" fill="url(#linearGradient-5)"></path>
                    <path d="M37.0619581,23.8858888 C37.0619581,23.8858888 34.2469672,26.1957115 33.9654991,30.9561321 C33.9654991,30.9561321 34.0297371,31.549178 33.6595151,33.0893686 C33.6595151,33.0893686 32.7173574,38.0785487 33.0872691,38.9491314 C33.0872691,38.9491314 33.2557775,39.0831147 33.9962216,39.1164562 C33.9962216,39.1164562 33.9465691,40.0206891 35.0317883,40.2546968 C35.0317883,40.2546968 36.4530934,40.6566467 37.4293872,40.2546968 C37.4293872,40.2546968 38.3042036,39.9870389 38.4388863,38.7145063 C38.4388863,38.7145063 36.7897999,28.7367635 40.0209416,26.1586654 C40.0209416,26.1586654 40.1276946,24.1239098 37.0619581,23.8858888" id="Fill-36" fill="#07EED5"></path>
                    <path d="M36.1370237,18.5870344 C36.1370237,18.5870344 34.9981176,23.2702756 38.5867578,23.6904399 C38.5867578,23.6904399 44.286874,24.3202231 44.2164294,19.139947 C44.2164294,19.139947 44.0758506,16.8301243 42.5276211,16.1299535 C42.5276211,16.1299535 46.046127,16.6198878 45.6237698,20.2602821 C45.6237698,20.2602821 45.2017228,28.4425251 37.1089729,26.0314431 C37.1089729,26.0314431 33.3794435,24.5304596 34.6458946,20.2602821 C34.6458946,20.2602821 35.7149767,18.1671789 36.1370237,18.5870344" id="Fill-37" fill="url(#linearGradient-5)"></path>
                    <path d="M48.8806687,29.5648976 L48.8806687,42.5760965 C48.8806687,42.5760965 47.3420594,44.6957494 47.2827866,45.8731971 C47.2235138,47.0509536 48.7624335,31.0958267 48.8806687,29.5648976" id="Fill-38" fill="#C3E0FB"></path>
                    <path d="M31.4340554,40.1143231 C31.4340554,40.1143231 32.3945225,41.7443503 34.6543356,42.4747754 C34.6543356,42.4747754 34.9935248,42.8122034 36.0104717,42.9807631 C36.0104717,42.9807631 37.9878857,43.3181911 38.9483528,44.5546038 C38.9483528,44.5546038 40.4739283,45.73483 42.0559836,46.1281358 C42.0559836,46.1281358 44.202837,47.8143497 47.9882256,46.4655638 L47.9882256,48.0394046 C47.9882256,48.0394046 44.202837,48.938698 40.9825569,47.5334169 L38.3835547,45.6786435 C38.3835547,45.6786435 37.3666078,45.9598849 36.0104717,45.2291511 C36.0104717,45.2291511 34.6543356,44.6132601 34.7111257,44.1063463 C34.7111257,44.1063463 31.4905352,42.9807631 31.4340554,41.91291 L31.4340554,40.1143231 Z" id="Fill-39" fill="#6B300C"></path>
                    <path d="M49.0344676,42.575016 C48.2167516,42.9300408 47.4825141,43.963935 46.6917968,45.2880235 C46.6917968,45.2880235 41.3553857,52.2039082 39.7888468,52.5450408 C39.7888468,52.5450408 38.6629746,52.4962634 37.6838877,53.908645 C37.6838877,53.908645 35.382801,56.9282088 37.1941892,58.1457898 C37.1941892,58.1457898 38.3203718,59.4606167 39.9846642,56.1002291 C39.9846642,56.1002291 42.3835044,55.4670499 43.2158058,53.7138444 C43.2158058,53.7138444 44.2929565,52.1551308 46.1043447,50.9863272 C46.1043447,50.9863272 53.8278035,46.20584 53.5342326,42.5043197 C53.5342326,42.5043197 52.562904,43.7438196 50.8529933,43.3779896 C50.0808957,43.2125172 49.1402896,42.5293258 49.0344676,42.575016" id="Fill-40" fill="#FFE5D4"></path>
                    <polygon id="Fill-41" fill="#FFFCFF" points="41.878848 48.6226641 42.4393881 48.6226641 42.4393881 45.9010125 41.878848 45.9010125"></polygon>
                    <polygon id="Fill-42" fill="#FFFCFF" points="32.5516109 43.838781 33.1121509 43.838781 33.1121509 41.1171294 32.5516109 41.1171294"></polygon>
                </g>
                <g id="Group-2" transform="translate(68.764543, 74.595466)">
                    <path d="M65.9861026,45.122445 C65.9861026,50.5043508 51.2147488,54.8668978 32.9932451,54.8668978 C14.7713538,54.8668978 0,50.5043508 0,45.122445 C0,39.7408481 14.7713538,35.3779922 32.9932451,35.3779922 C51.2147488,35.3779922 65.9861026,39.7408481 65.9861026,45.122445" id="Fill-12" fill="#A6C2BF" opacity="0.362318841" filter="url(#filter-7)"></path>
                    <g id="Page-1" transform="translate(2.022487, 0.000000)">
                        <g id="Group-3" transform="translate(49.372466, 14.497927)">
                            <mask id="mask-9" fill="white">
                                <use xlink:href="#path-8"></use>
                            </mask>
                            <g id="Clip-2"></g>
                            <path d="M10.6301001,30.0712316 L10.6301001,30.0712316 C11.1157943,29.9105905 11.381097,29.3836998 11.2192981,28.9005933 L1.83793466,0.858527197 C1.67643316,0.375124909 1.14642271,0.111235777 0.660728514,0.272172647 C0.175034315,0.432813677 -0.0899709095,0.96000026 0.0715305909,1.44281087 L9.45289399,29.4851729 C9.61469291,29.9682793 10.1444059,30.2321684 10.6301001,30.0712316" id="Fill-1" fill="url(#linearGradient-2)" mask="url(#mask-9)"></path>
                        </g>
                        <path d="M0.6367561,43.8983416 L0.6367561,43.8983416 C0.151061901,43.7377006 -0.114240748,43.2108099 0.0475581766,42.7277034 L9.2046635,15.3563062 C9.366165,14.8731997 9.89587803,14.6093106 10.3815722,14.7702475 C10.8672664,14.9308885 11.1325691,15.4577792 10.9707702,15.9408857 L1.81396225,43.3125788 C1.65216332,43.7953894 1.1224503,44.0592785 0.6367561,43.8983416" id="Fill-4" fill="url(#linearGradient-2)"></path>
                        <path d="M27.7349233,54.1386008 L27.7349233,54.1386008 C27.223948,54.1069459 26.8319425,53.6649612 26.8640644,53.1570042 L28.8996376,20.7900556 C28.9314621,20.2820986 29.3758142,19.8921817 29.8864921,19.9241324 C30.3974674,19.9557872 30.7894729,20.3974761 30.7576484,20.9057289 L28.7220752,53.2723818 C28.6899534,53.7806346 28.2458986,54.1702557 27.7349233,54.1386008" id="Fill-6" fill="url(#linearGradient-2)"></path>
                        <path d="M35.4999036,38.8797443 L35.4999036,38.8797443 C34.9892257,38.9122867 34.5439812,38.5235531 34.5109671,38.0155961 L33.1912946,17.7224627 C33.1582805,17.2145057 33.5490963,16.7719294 34.0600716,16.7387953 C34.5710469,16.7059571 35.0159939,17.0946906 35.049008,17.6029434 L36.3686805,37.8960768 C36.4016946,38.4043297 36.0108788,38.8469061 35.4999036,38.8797443" id="Fill-8" fill="url(#linearGradient-2)"></path>
                        <path d="M56.4465589,11.9233511 C56.4465589,17.0774727 45.109332,21.2559145 31.1244323,21.2559145 C17.1395326,21.2559145 5.80260317,17.0774727 5.80260317,11.9233511 C5.80260317,6.76893373 17.1395326,2.59078776 31.1244323,2.59078776 C45.109332,2.59078776 56.4465589,6.76893373 56.4465589,11.9233511" id="Fill-10" fill="#04C2D9"></path>
                        <g id="Group-14" transform="translate(5.948490, 0.001775)">
                            <mask id="mask-11" fill="white">
                                <use xlink:href="#path-10"></use>
                            </mask>
                            <g id="Clip-13"></g>
                            <path d="M50.8679461,9.62650985 C50.8679461,14.7809273 39.5310167,18.9590732 25.546117,18.9590732 C11.5609198,18.9590732 0.223990387,14.7809273 0.223990387,9.62650985 C0.223990387,4.47238827 11.5609198,0.293946459 25.546117,0.293946459 C39.5310167,0.293946459 50.8679461,4.47238827 50.8679461,9.62650985" id="Fill-12" fill="url(#linearGradient-12)" mask="url(#mask-11)"></path>
                        </g>
                    </g>
                </g>
            </g>
        </g>
    </g>
</svg>