<?xml version="1.0" encoding="UTF-8"?>
<svg width="309px" height="379px" viewBox="0 0 309 379" version="1.1" xmlns="http://www.w3.org/2000/svg" xmlns:xlink="http://www.w3.org/1999/xlink">
    <!-- Generator: Sketch 46.2 (44496) - http://www.bohemiancoding.com/sketch -->
    <title>img-publishers-2</title>
    <desc>Created with Sketch.</desc>
    <defs>
        <path d="M177.413649,3.79215789 C181.142432,1.60263158 185.32,0.508421053 189.499784,0.508421053 C193.641892,0.509526316 197.786216,1.58494737 201.492838,3.73689474 L283.416378,51.3085263 C287.106378,53.4505263 287.123,58.7635263 283.442973,60.9276316 L107.198378,164.553789 C99.6255676,169.006895 90.2110811,168.941684 82.7014324,164.383579 L2.68383784,115.827158 C0.916405405,114.755053 0.0243783784,112.952368 0,111.140842 L0,110.990526 C0.0243783784,109.151368 0.945216216,107.322158 2.75586486,106.261105 L177.413649,3.79215789 Z" id="path-1"></path>
        <linearGradient x1="0%" y1="0%" x2="100%" y2="5.08810913%" id="linearGradient-3">
            <stop stop-color="#02FBCA" offset="0%"></stop>
            <stop stop-color="#1985FE" offset="100%"></stop>
        </linearGradient>
        <path d="M177.413649,3.79215789 L2.75586486,106.261105 C0.945216216,107.322158 0.0243783784,109.151368 0,110.990526 L0,110.990526 L0,111.140842 C0.0243783784,112.952368 0.916405405,114.755053 2.68383784,115.827158 L2.68383784,115.827158 L82.7014324,164.383579 C90.2110811,168.941684 99.6255676,169.006895 107.198378,164.553789 L107.198378,164.553789 L283.442973,60.9276316 C287.123,58.7635263 287.106378,53.4505263 283.416378,51.3085263 L283.416378,51.3085263 L201.492838,3.73689474 C197.786216,1.58494737 193.641892,0.509526316 189.499784,0.508421053 L189.499784,0.508421053 C185.32,0.508421053 181.142432,1.60263158 177.413649,3.79215789" id="path-4"></path>
        <filter x="-15.4%" y="-16.7%" width="130.7%" height="152.6%" filterUnits="objectBoundingBox" id="filter-5">
            <feOffset dx="0" dy="16" in="SourceAlpha" result="shadowOffsetOuter1"></feOffset>
            <feGaussianBlur stdDeviation="12" in="shadowOffsetOuter1" result="shadowBlurOuter1"></feGaussianBlur>
            <feColorMatrix values="0 0 0 0 0.0588235294   0 0 0 0 0.823529412   0 0 0 0 0.91372549  0 0 0 1 0" type="matrix" in="shadowBlurOuter1"></feColorMatrix>
        </filter>
        <filter x="-15.3%" y="-16.7%" width="130.7%" height="152.4%" filterUnits="objectBoundingBox" id="filter-6">
            <feOffset dx="0" dy="16" in="SourceAlpha" result="shadowOffsetOuter1"></feOffset>
            <feGaussianBlur stdDeviation="12" in="shadowOffsetOuter1" result="shadowBlurOuter1"></feGaussianBlur>
            <feColorMatrix values="0 0 0 0 0.0588235294   0 0 0 0 0.823529412   0 0 0 0 0.91372549  0 0 0 1 0" type="matrix" in="shadowBlurOuter1" result="shadowMatrixOuter1"></feColorMatrix>
            <feMerge>
                <feMergeNode in="shadowMatrixOuter1"></feMergeNode>
                <feMergeNode in="SourceGraphic"></feMergeNode>
            </feMerge>
        </filter>
        <linearGradient x1="0%" y1="0%" x2="100%" y2="100%" id="linearGradient-7">
            <stop stop-color="#02FBCA" offset="0%"></stop>
            <stop stop-color="#19B7FE" offset="100%"></stop>
        </linearGradient>
        <linearGradient x1="0%" y1="0%" x2="100%" y2="100%" id="linearGradient-8">
            <stop stop-color="#DCFFF8" offset="0%"></stop>
            <stop stop-color="#78D5FF" offset="100%"></stop>
        </linearGradient>
        <linearGradient x1="0%" y1="11.4684261%" x2="100%" y2="60.6025306%" id="linearGradient-9">
            <stop stop-color="#5ED7FF" offset="0%"></stop>
            <stop stop-color="#628CFF" offset="100%"></stop>
        </linearGradient>
        <linearGradient x1="50%" y1="0%" x2="50%" y2="100%" id="linearGradient-10">
            <stop stop-color="#FFFFFF" stop-opacity="0.668902853" offset="0%"></stop>
            <stop stop-color="#B4F3FF" stop-opacity="0.54578712" offset="36.1786511%"></stop>
            <stop stop-color="#19B7FE" stop-opacity="0" offset="100%"></stop>
        </linearGradient>
        <filter x="-96.4%" y="-96.9%" width="292.7%" height="293.8%" filterUnits="objectBoundingBox" id="filter-11">
            <feGaussianBlur stdDeviation="1" in="SourceGraphic"></feGaussianBlur>
        </filter>
        <filter x="-57.8%" y="-58.1%" width="215.6%" height="216.3%" filterUnits="objectBoundingBox" id="filter-12">
            <feGaussianBlur stdDeviation="1" in="SourceGraphic"></feGaussianBlur>
        </filter>
        <filter x="-96.4%" y="-96.9%" width="292.7%" height="293.8%" filterUnits="objectBoundingBox" id="filter-13">
            <feGaussianBlur stdDeviation="1" in="SourceGraphic"></feGaussianBlur>
        </filter>
        <filter x="-72.3%" y="-72.7%" width="244.6%" height="245.3%" filterUnits="objectBoundingBox" id="filter-14">
            <feGaussianBlur stdDeviation="1" in="SourceGraphic"></feGaussianBlur>
        </filter>
        <filter x="-57.8%" y="-58.1%" width="215.6%" height="216.3%" filterUnits="objectBoundingBox" id="filter-15">
            <feGaussianBlur stdDeviation="1" in="SourceGraphic"></feGaussianBlur>
        </filter>
        <filter x="-57.8%" y="-58.1%" width="215.6%" height="216.3%" filterUnits="objectBoundingBox" id="filter-16">
            <feGaussianBlur stdDeviation="1" in="SourceGraphic"></feGaussianBlur>
        </filter>
        <filter x="-96.4%" y="-96.9%" width="292.7%" height="293.8%" filterUnits="objectBoundingBox" id="filter-17">
            <feGaussianBlur stdDeviation="1" in="SourceGraphic"></feGaussianBlur>
        </filter>
        <linearGradient x1="0%" y1="0%" x2="100%" y2="100%" id="linearGradient-18">
            <stop stop-color="#9CFFEC" offset="0%"></stop>
            <stop stop-color="#EAF8FF" offset="100%"></stop>
        </linearGradient>
        <polygon id="path-19" points="64.4510949 102 0.688272768 102 0.688272768 0.839200017 64.4510949 0.839200017"></polygon>
        <path d="M26.29125,2.95718182 C27.0484,1.15595455 28.4392,0.0353181818 29.72265,0.0353181818 C29.92405,0.0353181818 30.1226,0.063 30.31545,0.119318182 C31.68725,0.520227273 32.22875,2.33672727 31.59605,4.40331818 C31.445,4.89490909 31.4222,5.187 31.6711,5.49627273 C32.72085,6.80877273 33.68605,8.1585 34.67785,9.40609091 C34.8194,9.57981818 35.1234,9.68863636 35.3457,9.57504545 C36.3451,9.06627273 37.24095,9.36695455 37.47845,10.3759091 C37.71785,11.3915455 37.29225,12.8214545 36.38975,13.6881818 C35.89195,14.1702273 35.7675,14.5587273 35.73615,15.1476818 C35.606,17.808 35.28395,20.4683182 34.60375,23.1754091 C34.4679,23.7185455 34.7225,23.7548182 34.9505,23.8760455 C35.71715,24.3008182 35.92615,25.4014091 35.51765,26.712 C35.15665,27.8698636 34.2532,29.0363182 33.3355,29.5345909 C32.148,30.1798636 31.25215,30.0653182 30.837,29.1670909 C30.4437,28.3127727 30.57765,27.2389091 31.26165,26.0151818 C31.5248,25.5388636 31.53145,25.2964091 31.32625,25.0367727 C30.63465,24.1528636 29.95825,23.2231364 29.2201,22.2485455 C28.46295,23.1868636 27.78085,24.0316364 27.05885,24.927 C26.8736,24.7179545 26.7178,24.5432727 26.53445,24.3294545 C27.11395,23.5982727 27.64785,22.9005 28.19885,22.2304091 C28.5532,21.7989545 28.6444,21.5202273 28.3575,21.2214545 C26.92585,19.7495455 25.479,18.1716818 23.93145,16.6014545 C23.75855,16.4258182 23.38425,16.3914545 23.10115,16.5088636 C19.43605,17.9989091 15.7244,20.0874545 11.95575,22.4671364 C11.6926,22.6351364 11.37245,23.1400909 11.32685,23.4503182 C10.9839,25.7383636 10.6894,27.9815455 10.4519,30.1779545 C10.41865,30.5034545 10.6324,30.8843182 10.8813,30.9988636 C12.12105,31.5849545 13.38075,32.0870455 14.65755,32.6263636 C14.52645,32.9012727 14.36685,33.2286818 14.1341,33.7078636 C12.86965,33.2477727 11.628,32.8000909 10.22105,32.2913182 C10.10515,33.2391818 10.03295,34.0868182 9.88095,34.9420909 C9.7356,35.7525 9.85625,36.2078182 10.55165,36.4321364 C11.5311,36.7471364 11.5786,38.2553182 10.8319,39.4685455 C10.051,40.7419091 8.69535,41.5103182 7.6437,41.2697727 C6.55785,41.0225455 6.1503,39.7453636 6.8609,38.3965909 C7.1877,37.7751818 7.13355,37.4410909 6.92835,37.0000909 C6.1332,35.2876364 5.3485,33.4969091 4.62745,31.6078636 C4.4251,31.0675909 4.1952,30.8738182 3.56155,30.9740455 C1.91615,31.2355909 0.665,30.3020455 0.4826,28.7499545 C0.3002,27.2026364 1.3205,25.2315 2.86425,24.1729091 C3.0495,24.0440455 3.2566,23.8855909 3.439,23.8598182 C4.7063,23.6736818 5.14615,22.7620909 5.59075,21.5631818 C6.9768,17.808 8.70675,14.1005455 10.82905,10.5124091 C11.01715,10.1955 11.0618,9.63518182 10.96965,9.31636364 C10.526,7.80054545 11.0409,6.05468182 12.31675,5.01709091 C13.60875,3.96804545 14.99575,4.08068182 15.75385,5.35977273 C16.0075,5.78740909 16.28965,5.77786364 16.72855,5.67954545 C19.6669,5.03045455 22.5188,4.42145455 25.28045,3.85445455 C25.73075,3.75995455 26.0205,3.60245455 26.29125,2.95718182 Z M18.6903,10.3425 C18.848,10.4732727 18.99335,10.5372273 19.1463,10.5372273 C19.3458,10.5372273 19.55765,10.4274545 19.8246,10.2126818 C21.61725,8.76940909 23.4156,7.39486364 25.18165,6.00313636 C25.4068,5.82272727 25.60915,5.59268182 25.897,5.30918182 C25.71365,5.16790909 25.6804,5.11445455 25.6405,5.12209091 C22.71165,5.75113636 19.6859,6.40118182 16.55565,7.11327273 C16.3723,7.15431818 16.06355,7.52277273 16.0056,7.75377273 C15.9486,7.98381818 16.06355,8.33604545 16.21555,8.45822727 C17.03445,9.12068182 17.90085,9.69054545 18.6903,10.3425 Z M30.1549,6.75913636 C29.40535,7.47790909 28.6596,7.84063636 27.98225,7.84063636 C27.4037,7.84063636 26.87455,7.57622727 26.43565,7.04359091 C26.163,6.71522727 25.9236,6.74290909 25.53125,7.05122727 C24.16705,8.12986364 22.7829,9.17890909 21.3921,10.2718636 C20.9893,10.5925909 20.596,10.9696364 20.1172,11.3867727 C21.46715,12.5751818 22.6993,13.6719545 23.92385,14.7047727 C24.0445,14.8069091 24.3067,14.7439091 24.5043,14.6809091 C27.4968,13.7101364 30.3962,12.7613182 33.2139,11.8153636 C33.4286,11.7437727 33.74685,11.4917727 33.86275,11.2521818 C33.97295,11.0259545 33.9815,10.5830455 33.8789,10.4389091 C32.9688,9.18654545 31.9979,7.94277273 31.0137,6.65222727 C30.7838,6.35440909 30.5539,6.37636364 30.1549,6.75913636 Z M13.1442,11.9346818 C12.83735,13.6070455 12.55235,15.2650909 12.2151,17.1722727 C14.3108,15.1849091 16.1424,13.4543182 18.08325,11.6158636 C17.1171,10.9266818 16.2279,10.2775909 15.31115,9.63995455 C15.2361,9.59318182 15.11545,9.58936364 15.0195,9.62086364 C14.15595,9.88336364 13.33705,10.8760909 13.1442,11.9346818 Z M6.0363,23.5429091 C6.1047,23.5734545 6.1731,23.6059091 6.2415,23.6412273 C6.36405,23.5639091 6.5075,23.5047273 6.6006,23.4006818 C7.93345,21.9211364 9.2606,20.4520909 10.55925,18.9534545 C10.7635,18.7167273 10.89555,18.3301364 10.9535,18.0189545 C11.33445,15.9046364 11.68975,13.7635909 12.05645,11.5872273 C12.09255,11.3695909 12.0878,11.1529091 12.10395,10.9305 C9.4449,15.015 7.53255,19.2550909 6.0363,23.5429091 Z M12.673,18.2938636 C11.7933,19.1472273 11.5121,20.1447273 11.76005,21.1231364 C15.4185,19.1691818 18.9639,17.2639091 22.5929,15.3204545 C21.5384,14.4346364 20.50005,13.5946364 19.4693,12.6792273 C19.114,12.3623182 18.7948,12.4205455 18.3483,12.8500909 C16.47775,14.6599091 14.57015,16.4515909 12.673,18.2938636 Z M29.15455,20.3213182 C29.23815,20.4148636 29.3151,20.454 29.3892,20.454 C29.55925,20.454 29.71315,20.2459091 29.88415,19.992 C31.0023,18.3339545 32.10145,16.6463182 33.2538,15.0102273 C33.7896,14.2485 33.6851,13.8008182 33.52265,13.2433636 C33.36115,12.6992727 32.9346,13.0028182 32.5945,13.0954091 C31.53145,13.3750909 30.44845,13.6671818 29.3531,14.0432727 C27.9737,14.5148182 26.57625,15.0789545 25.05625,15.6507273 C25.15125,15.855 25.1731,15.9523636 25.2263,16.0086818 C26.58005,17.4958636 27.90055,18.9152727 29.15455,20.3213182 Z M32.205,24.3046364 C32.2753,24.3991364 32.3532,24.4373182 32.4349,24.4373182 C32.7389,24.4373182 33.10845,23.9256818 33.4286,23.8378636 C33.5274,23.8120909 33.77915,23.3749091 33.8143,23.1725455 C34.1563,21.1365 34.485,19.0737273 34.789,16.9775455 C34.8897,16.2883636 34.8916,15.6220909 34.90395,14.9548636 C34.90775,14.7887727 34.8023,14.5720909 34.70065,14.5806818 C34.5591,14.5969091 34.33205,14.7744545 34.2114,14.9453182 C33.90265,15.3872727 33.63285,15.8626364 33.34785,16.3294091 C32.32185,18.0285 31.2987,19.7123182 30.19005,21.5402727 C30.7553,22.3249091 31.48015,23.3319545 32.205,24.3046364 Z M7.8204,23.6087727 C7.84985,23.6755909 7.88025,23.7462273 7.9078,23.8120909 C8.51485,23.415 9.1181,23.0350909 9.71375,22.6332273 C10.43385,22.1425909 10.5925,21.6729545 10.2885,20.8176818 C9.4563,21.7579091 8.6412,22.6809545 7.8204,23.6087727 Z M7.1611,28.6707273 C7.81945,29.1737727 8.50915,29.6205 9.3328,30.1836818 C9.61115,27.9319091 9.86005,25.9397727 10.14315,23.6727273 C9.47245,24.1099091 8.9547,24.4573636 8.4303,24.7933636 C7.92585,25.1112273 7.6437,25.4157273 7.6513,26.0848636 C7.65795,26.6957727 7.3568,27.4059545 7.2105,28.0607727 C7.16205,28.2745909 7.07085,28.6029545 7.1611,28.6707273 Z M7.95245,36.2097273 C8.037,36.4044545 8.2422,36.5046818 8.3885,36.6516818 C8.4778,36.5896364 8.5671,36.5275909 8.65165,36.4674545 C8.81885,34.9564091 8.9965,33.4262727 9.1428,31.8799091 C9.1618,31.7138182 8.9851,31.5610909 8.8464,31.4723182 C8.0731,30.9578182 7.28365,30.4356818 6.44955,29.9498182 C6.29375,29.8562727 6.004,29.9555455 5.77505,29.9612727 C5.7437,30.1903636 5.6259,30.4748182 5.68955,30.6351818 C6.44955,32.5585909 7.20195,34.4132727 7.95245,36.2097273 Z" id="path-21"></path>
    </defs>
    <g id="Symbols" stroke="none" stroke-width="1" fill="none" fill-rule="evenodd">
        <g id="img-publishers-2">
            <g id="Group-7" transform="translate(11.000000, 20.000000)">
                <g id="Group-32" transform="translate(0.000000, 128.000000)">
                    <g id="Group-6" transform="translate(0.000000, 43.000000)">
                        <mask id="mask-2" fill="white">
                            <use xlink:href="#path-1"></use>
                        </mask>
                        <g id="Clip-5"></g>
                        <g id="Fill-4" mask="url(#mask-2)">
                            <use fill="black" fill-opacity="1" filter="url(#filter-5)" xlink:href="#path-4"></use>
                            <use fill="url(#linearGradient-3)" fill-rule="evenodd" xlink:href="#path-4"></use>
                        </g>
                    </g>
                    <g id="Group-9" filter="url(#filter-6)" transform="translate(0.000000, 35.000000)" fill="#FFFFFF" opacity="0.579144022">
                        <path d="M2.79052308,115.877337 L82.7780923,164.434863 C90.2849231,168.991863 99.6958769,169.055968 107.265846,164.603968 L283.444308,60.9767053 C287.121846,58.8137053 287.107446,53.4996 283.418831,51.3576 L201.524923,3.78817895 C194.080123,-0.536715789 184.878523,-0.515715789 177.454769,3.84233684 L2.86141538,106.310179 C-0.779569231,108.446653 -0.818338462,113.686705 2.79052308,115.877337" id="Fill-7"></path>
                    </g>
                    <path d="M16.531441,121.71997 L92.0146118,167.718129 C99.0983558,172.035378 107.980162,172.09748 115.122586,167.878931 L275.404749,73.2321565 C278.875761,71.1838755 278.862475,66.1513366 275.380391,64.1207993 L198.099158,19.0586167 C191.074095,14.9620547 182.390474,14.9820163 175.384233,19.1096297 L16.598979,112.657408 C13.1633964,114.681291 13.1268595,119.645073 16.531441,121.71997" id="Fill-10" fill="#FFFFFF" opacity="0.882019928"></path>
                    <path d="M67.5670998,112.755327 L65.5881466,114.069034 C63.4886199,115.314713 63.4664963,118.367019 65.547218,119.643924 L65.547218,119.643924 L99.5898593,139.980732 C103.919442,142.637141 109.345247,142.675058 113.711333,140.079985 L113.711333,140.079985 L116.414833,138.291202 C118.535377,137.031025 118.526528,133.935227 116.399347,132.687316 L116.399347,132.687316 L81.7737494,113.053085 C79.4972342,111.717074 76.8446183,111 74.2152322,111 L74.2152322,111 C71.8867266,111 69.5781322,111.562061 67.5670998,112.755327" id="Fill-13" fill="url(#linearGradient-7)"></path>
                    <g id="Group-17" transform="translate(42.000000, 154.000000)" stroke="#FFFFFF" fill="url(#linearGradient-7)">
                        <path d="M1.76788462,8.8468 L10.0284231,14.6313333 C14.3940385,17.3298 19.8661154,17.3672 24.2674231,14.7310667 L26.9923077,12.9120667 C29.1305,11.6314 29.1238077,8.83206667 26.9789231,7.56273333 L18.1294615,2.1488 C13.8017692,-0.4114 8.12111538,-0.7344 3.80457692,1.8462 L1.80915385,3.1824 C-0.306730769,4.4472 -0.330153846,7.55026667 1.76788462,8.8468" id="Fill-15"></path>
                    </g>
                    <path d="M52.1606417,154 C49.8444864,154 47.5492369,154.549918 45.5477706,155.717403 L43.5793137,157.003819 C41.4920231,158.221495 41.4689166,161.208947 43.5386022,162.457174 L51.6875078,168.026187 C53.8694252,169.340971 56.3308216,170 58.7922181,170 C61.1919971,170 63.5917761,169.374795 65.7340822,168.122204 L68.4221428,166.370977 C70.5325399,165.138025 70.5237374,162.44299 68.4089391,161.220949 L59.6801693,156.008729 C57.4146283,154.702673 54.7760817,154 52.1606417,154 M52.1606417,155.091107 C54.5736245,155.091107 57.0471243,155.752319 59.1113084,156.943808 L67.8554825,162.164757 C68.5167696,162.546645 68.8974773,163.141298 68.8996779,163.795963 C68.9018786,164.448445 68.5244718,165.045281 67.8180719,165.458811 L65.1751241,167.181669 C63.2429774,168.310966 61.0357529,168.908893 58.7922181,168.908893 C56.4969687,168.908893 54.2490326,168.286961 52.2860772,167.109656 L44.163579,161.558101 L44.1382718,161.540644 L44.1118644,161.525368 C43.4736838,161.139116 43.0951767,160.466994 43.1006783,159.726132 C43.1072801,158.986361 43.4934894,158.319694 44.1382718,157.944354 L44.1613784,157.930169 L44.1855852,157.914894 L46.1298353,156.643753 C47.881531,155.627932 49.9666209,155.091107 52.1606417,155.091107" id="Fill-18"></path>
                    <path d="M101.084946,88.6130537 L99.9279142,89.376063 C98.7012617,90.0949678 98.6880006,91.8613564 99.9047072,92.6001082 L99.9047072,92.6001082 L148.271282,120.832555 C150.801944,122.368498 153.974664,122.39055 156.527427,120.888789 L156.527427,120.888789 L156.073234,121.115927 C157.313148,120.388202 157.307622,118.596453 156.064393,117.87424 L156.064393,117.87424 L107.356345,90.0497606 C105.588197,89.0221238 104.441111,88 103.040959,88 L103.040959,88 C102.45526,88 101.824253,88.1797262 101.084946,88.6130537" id="Fill-21" fill="url(#linearGradient-7)" opacity="0.568783967"></path>
                    <path d="M93.0928773,98.6131896 L91.9314441,99.3752653 C90.7001252,100.095432 90.6868137,101.862212 91.9081489,102.601128 L91.9081489,102.601128 L130.238772,124.832561 C132.777951,126.367741 135.963849,126.390901 138.525215,124.88991 L138.525215,124.88991 L138.069294,125.117099 C139.313924,124.388109 139.309487,122.59486 138.060419,121.872488 L138.060419,121.872488 L99.3881335,100.050215 C97.6132595,99.0223504 96.46181,98 95.0574409,98 L95.0574409,98 C94.4684046,98 93.8361058,98.179766 93.0928773,98.6131896" id="Fill-23" fill="url(#linearGradient-7)" opacity="0.568783967"></path>
                    <g id="Group-31" transform="translate(133.000000, 0.000000)">
                        <path d="M51.5006483,37.4382022 C23.0578823,37.4382022 0,50.9952946 0,67.7191011 C0,68.4895222 0.0661278749,69.2496367 0.162078125,70.0045978 C2.15110087,85.6603791 24.3674736,98 51.5006483,98 C78.633823,98 100.850196,85.6603791 102.839219,70.0045978 C102.935169,69.2496367 103,68.4895222 103,67.7191011 C103,50.9952946 79.9434143,37.4382022 51.5006483,37.4382022" id="Fill-6-Copy-7" fill="url(#linearGradient-8)" opacity="0.590126812"></path>
                        <g id="Group-23-Copy" transform="translate(9.967742, 37.438202)">
                            <path d="M41.4076817,47.8300743 C19.5919978,47.8300743 1.72953357,38.0263881 0.130314464,25.5890744 C0.0531683015,26.1878587 0,26.7927844 0,27.4048751 C0,40.6907225 18.539057,51.4626993 41.4076817,51.4626993 C64.2763064,51.4626993 82.8143209,40.6907225 82.8143209,27.4048751 C82.8143209,26.7927844 82.7621951,26.1878587 82.6850489,25.5890744 C81.0858298,38.0263881 63.2233656,47.8300743 41.4076817,47.8300743" id="Fill-4" fill="url(#linearGradient-9)"></path>
                            <path d="M41.4076817,0 C18.539057,0 0,10.7709532 0,24.0578242 C0,24.6699148 0.0531683015,25.273817 0.130314464,25.8736249 C1.72953357,38.3119621 19.5919978,48.1156483 41.4076817,48.1156483 C63.2233656,48.1156483 81.0858298,38.3119621 82.6850489,25.8736249 C82.7621951,25.273817 82.8143209,24.6699148 82.8143209,24.0578242 C82.8143209,10.7709532 64.2763064,0 41.4076817,0" id="Fill-6" fill="url(#linearGradient-7)"></path>
                            <path d="M41.6382592,16.3770076 C30.1574979,16.3770076 20.8503143,23.0304083 20.8503143,31.2379341 C20.8503143,31.6160329 20.8770064,31.9890735 20.9157362,32.3595851 C21.718594,40.0429572 30.686107,46.0988607 41.6382592,46.0988607 C52.5904115,46.0988607 61.5579245,40.0429572 62.3607823,32.3595851 C62.399512,31.9890735 62.4256808,31.6160329 62.4256808,31.2379341 C62.4256808,23.0304083 53.1190206,16.3770076 41.6382592,16.3770076" id="Fill-6-Copy" fill="url(#linearGradient-10)"></path>
                            <path d="M41.6872998,15.3534446 C35.3612974,15.3534446 30.2329557,17.873877 30.2329557,20.983041 C30.2329557,21.1262719 30.2476634,21.2675866 30.2690038,21.4079433 C30.7113856,24.3185481 35.6525657,26.6126373 41.6872998,26.6126373 C47.722034,26.6126373 52.663214,24.3185481 53.1055959,21.4079433 C53.1269363,21.2675866 53.1413556,21.1262719 53.1413556,20.983041 C53.1413556,17.873877 48.0133023,15.3534446 41.6872998,15.3534446" id="Fill-6-Copy-2" stroke="#FFFFFF" fill="url(#linearGradient-10)"></path>
                        </g>
                        <g id="Group-21-Copy" transform="translate(3.322581, 24.224719)" fill="#FFFFFF">
                            <ellipse id="Oval-7" filter="url(#filter-11)" cx="98.0595131" cy="32.5149927" rx="1.55650021" ry="1.54833299"></ellipse>
                            <ellipse id="Oval-7-Copy" filter="url(#filter-12)" cx="30.6111707" cy="63.4816524" rx="2.59416701" ry="2.58055498"></ellipse>
                            <ellipse id="Oval-7-Copy-2" filter="url(#filter-13)" cx="15.0461687" cy="44.9016566" rx="1.55650021" ry="1.54833299"></ellipse>
                            <ellipse id="Oval-7-Copy-3" filter="url(#filter-14)" cx="68.4860091" cy="50.5788776" rx="2.07533361" ry="2.06444398"></ellipse>
                            <ellipse id="Oval-7-Copy-4" opacity="0.65868433" filter="url(#filter-15)" cx="23.3475031" cy="32.5149927" rx="2.59416701" ry="2.58055498"></ellipse>
                            <ellipse id="Oval-7-Copy-5" opacity="0.65868433" filter="url(#filter-16)" cx="39.950172" cy="2.58055498" rx="2.59416701" ry="2.58055498"></ellipse>
                            <ellipse id="Oval-7-Copy-6" opacity="0.65868433" filter="url(#filter-17)" cx="1.55650021" cy="23.2249948" rx="1.55650021" ry="1.54833299"></ellipse>
                        </g>
                        <path d="M28.7956989,60.5617978 L38.7634409,59.4606742" id="Path-3-Copy-4" stroke="#FFFFFF" stroke-width="2" opacity="0.597373188" stroke-linecap="round"></path>
                        <path d="M40.9784946,74.8764045 L50.9462366,64.9662921" id="Path-3-Copy-5" stroke="#FFFFFF" stroke-width="2" opacity="0.597373188" stroke-linecap="round"></path>
                        <path d="M65.344086,59.4606742 L77.5268817,61.6629213" id="Path-3-Copy-6" stroke="#FFFFFF" stroke-width="2" opacity="0.597373188" stroke-linecap="round"></path>
                        <path d="M57.5913978,53.9550562 L60.9139785,47.3483146" id="Path-3-Copy-7" stroke="#FFFFFF" stroke-width="2" opacity="0.597373188" stroke-linecap="round"></path>
                        <g id="Page-1-Copy-4" transform="translate(21.043011, 0.000000)" fill="url(#linearGradient-18)">
                            <g id="Group-3" transform="translate(0.000000, 2.135086)">
                                <path d="M3.82120673,2.02983444 C1.7107513,2.02983444 0,1.12068154 0,0 L0,58.1298243 C0,59.2514397 1.7107513,60.1601257 3.82120673,60.1601257 C5.93166216,60.1601257 7.64241346,59.2514397 7.64241346,58.1298243 C7.64241346,58.085464 7.63359969,0.134014834 7.63359969,0.134014834 C7.50403739,1.19259194 5.84660935,2.02983444 3.82120673,2.02983444 Z" id="Fill-1"></path>
                            </g>
                            <g id="Group-6">
                                <path d="M3.82120673,0 C1.77905796,0 0.111494096,0.836820021 0.00528825749,1.89054232 C0.0017627525,1.9259268 0,1.96177082 0,1.99761485 C0,3.10050779 1.7107513,3.99477015 3.82120673,3.99477015 C5.84705004,3.99477015 7.50403739,3.17081721 7.63359969,2.12950246 C7.63932864,2.08538674 7.64241346,2.04173056 7.64241346,1.99761485 C7.64241346,0.894262362 5.93166216,0 3.82120673,0" id="Fill-4"></path>
                            </g>
                        </g>
                        <g id="Page-1-Copy-5" transform="translate(36.548387, 31.932584)" fill="url(#linearGradient-18)">
                            <g id="Group-3" transform="translate(0.000000, 1.036554)">
                                <path d="M3.82147114,2.2495552 C1.71101571,2.2495552 0.000264412875,1.33812372 0.000264412875,0.214633453 L0.000264412875,43.1437744 C0.000264412875,44.2682009 1.71101571,45.1791643 3.82147114,45.1791643 C5.93192657,45.1791643 7.64267787,44.2682009 7.64267787,43.1437744 C7.64267787,43.0993029 7.63386411,0.348984164 7.63386411,0.348984164 C7.5043018,1.41021434 5.84687376,2.2495552 3.82147114,2.2495552 Z" id="Fill-1"></path>
                            </g>
                            <g id="Group-6">
                                <path d="M3.82120673,0 C1.77905796,0 0.111494096,0.838917315 0.00528825749,1.89528052 C0.0017627525,1.93075369 0,1.96668754 0,2.0026214 C0,3.10827849 1.7107513,4.00478211 3.82120673,4.00478211 C5.84705004,4.00478211 7.50403739,3.17876413 7.63359969,2.13483956 C7.63932864,2.09061328 7.64241346,2.04684768 7.64241346,2.0026214 C7.64241346,0.896503621 5.93166216,0 3.82120673,0" id="Fill-4"></path>
                            </g>
                        </g>
                        <g id="Page-1-Copy-6" transform="translate(75.311828, 18.719101)" fill="url(#linearGradient-18)">
                            <g id="Group-3" transform="translate(0.000000, 1.017607)">
                                <path d="M3.82147114,2.20843628 C1.71101571,2.20843628 0.000264412875,1.31366457 0.000264412875,0.210710235 L0.000264412875,42.1019072 C0.000264412875,43.2057807 1.71101571,44.1000928 3.82147114,44.1000928 C5.93192657,44.1000928 7.64267787,43.2057807 7.64267787,42.1019072 C7.64267787,42.0582486 7.63386411,0.342605191 7.63386411,0.342605191 C7.5043018,1.38443748 5.84687376,2.20843628 3.82147114,2.20843628 Z" id="Fill-1"></path>
                            </g>
                            <g id="Group-6">
                                <path d="M3.82120673,0 C1.77905796,0 0.111494096,0.823583006 0.00528825749,1.86063728 C0.0017627525,1.89546204 0,1.93073907 0,1.96601611 C0,3.05146323 1.7107513,3.93157994 3.82120673,3.93157994 C5.84705004,3.93157994 7.50403739,3.12066049 7.63359969,2.09581749 C7.63932864,2.05239961 7.64241346,2.00943399 7.64241346,1.96601611 C7.64241346,0.880116711 5.93166216,0 3.82120673,0" id="Fill-4"></path>
                            </g>
                        </g>
                        <g id="Page-1-Copy-7" transform="translate(59.806452, 9.910112)" fill="url(#linearGradient-18)">
                            <g id="Group-3" transform="translate(0.000000, 2.137677)">
                                <path d="M3.82120673,2.03492174 C1.7107513,2.03492174 2.10106723e-14,1.12349027 2.10106723e-14,0 L-1.95399252e-13,34.0578114 C-1.95399252e-13,35.1822379 1.7107513,36.0932012 3.82120673,36.0932012 C5.93166216,36.0932012 7.64241346,35.1822379 7.64241346,34.0578114 C7.64241346,34.0133399 7.63359969,0.134350711 7.63359969,0.134350711 C7.50403739,1.19558089 5.84660935,2.03492174 3.82120673,2.03492174 Z" id="Fill-1"></path>
                            </g>
                            <g id="Group-6">
                                <path d="M3.82120673,0 C1.77905796,0 0.111494096,0.838917315 0.00528825749,1.89528052 C0.0017627525,1.93075369 0,1.96668754 0,2.0026214 C0,3.10827849 1.7107513,4.00478211 3.82120673,4.00478211 C5.84705004,4.00478211 7.50403739,3.17876413 7.63359969,2.13483956 C7.63932864,2.09061328 7.64241346,2.04684768 7.64241346,2.0026214 C7.64241346,0.896503621 5.93166216,0 3.82120673,0" id="Fill-4"></path>
                            </g>
                        </g>
                    </g>
                </g>
                <g id="Page-1" transform="translate(146.000000, 45.000000)">
                    <path d="M5.61653022,21.8701056 C-2.44659903,37.3680695 -1.67621406,54.0305391 6.95069692,60.8750812 L6.95069692,60.8750812 C7.65314794,61.4317136 8.40672451,61.9237681 9.21212698,62.3449275 L9.21212698,62.3449275 C19.918377,67.9400301 35.6643455,58.8893147 44.3837027,42.1299784 L44.3837027,42.1299784 C53.1023595,25.3706421 51.4929552,7.24885516 40.7867052,1.65515643 L40.7867052,1.65515643 C38.6394322,0.532766638 36.2911587,0 33.8357317,0 L33.8357317,0 C24.0490412,0.000701932329 12.5864132,8.47232321 5.61653022,21.8701056" id="Fill-1" fill="url(#linearGradient-7)"></path>
                    <path d="M48.4480907,45.8864225 C45.1823407,52.1434014 40.9372179,57.3022943 36.3841917,60.9625812 C35.516848,61.6594435 29.18545,79.3055459 27.5797015,79.9728443 C25.836559,80.6971588 25.4673566,66.6895224 23.7728305,66.920402 C20.7628447,67.3300726 17.8846163,66.9281449 15.3319059,65.5984753 C5.41910403,60.4346552 4.1741029,43.2369379 12.5516148,27.1872837 C20.9284221,11.1369256 35.7557022,2.31141078 45.6685041,7.47523093 C55.581306,12.6390511 56.8256026,29.8360644 48.4480907,45.8864225" id="Fill-3" fill="#FFFFFF"></path>
                    <path d="M28.8844499,45.1277101 C27.5528332,45.5962046 26.2720768,47.230222 26.0370403,48.8185325 L26.0370403,48.8185325 C25.7950683,50.4633044 26.7644976,51.3895389 28.1893583,50.8424018 L28.1893583,50.8424018 C29.5903301,50.3040029 30.8348678,48.5658009 30.985137,47.0010159 L30.985137,47.0010159 C31.1030406,45.7723101 30.5088991,45 29.5787709,45 L29.5787709,45 C29.3637703,45 29.1310456,45.0410017 28.8844499,45.1277101" id="Fill-5" fill="url(#linearGradient-7)"></path>
                    <path d="M37.0533934,42.1234525 C35.9724818,42.5835558 35.0477019,44.2152389 35.0017808,45.8065228 L35.0017808,45.8065228 C34.9544468,47.4501761 35.8566194,48.383849 37.0025269,47.8489322 L37.0025269,47.8489322 C38.1307725,47.3229931 39.0174026,45.5925561 38.9997407,44.0229681 L38.9997407,44.0229681 C38.9849046,42.7833079 38.4070055,42.0000102 37.6171629,42.0000102 L37.6171629,42.0000102 C37.438424,41.9992621 37.2490878,42.0396614 37.0533934,42.1234525" id="Fill-7" fill="url(#linearGradient-7)"></path>
                    <polygon id="Fill-9" fill="url(#linearGradient-7)" points="23.6725034 27.2572302 22.8800547 23.385375 22.8729412 23.388902 22.8729412 23.3874912 17.2945007 24.7615801 17 25.7893252 21.0803283 24.7601693 24.8604651 46 40.8140082 39.7312485 40.7279343 36.93581 26.6744186 42.1768164 26.2781943 40.1904538 41.1141997 34.8598636 43 22"></polygon>
                </g>
                <g id="Page-1" transform="translate(72.000000, 0.000000)">
                    <path d="M46.6933156,0 C33.1877914,0.000965157973 17.369492,11.6484916 7.75016451,30.0704618 L7.75016451,30.0704618 C2.55246097,40.0260663 0.0144971278,50.3291277 0,59.4431144 L0,59.4431144 L0,59.5946442 C0.0144971278,69.9256952 3.2792503,78.7124933 9.59226622,83.7033252 L9.59226622,83.7033252 C10.5606744,84.4696607 11.6015681,85.1452712 12.7130146,85.724366 L12.7130146,85.724366 C27.4865543,93.4176402 49.2177488,80.9719282 61.2493984,57.9287816 L61.2493984,57.9287816 C73.2820145,34.8856349 71.0591215,9.96815155 56.2865483,2.2758425 L56.2865483,2.2758425 C53.3233354,0.732554902 50.0817776,0 46.6933156,0 Z" id="Fill-1" fill="url(#linearGradient-7)"></path>
                    <g id="Group-5" transform="translate(9.000000, 7.000000)">
                        <mask id="mask-20" fill="white">
                            <use xlink:href="#path-19"></use>
                        </mask>
                        <g id="Clip-4"></g>
                        <path d="M56.9193529,55.3657925 C52.4888382,63.9193585 46.7286912,70.9717925 40.5527353,75.9746038 C39.3760441,76.9272453 30.7864853,101.050245 28.6080294,101.963434 C26.2431765,102.953604 25.7422941,83.8035849 23.4433971,84.1192075 C19.3598676,84.6802075 15.4541324,84.1307547 11.9909706,82.3120755 C-1.45638235,75.2538679 -3.14542647,51.7438302 8.22001471,29.802283 C19.5845,7.86073585 39.7000882,-4.20316981 53.1483971,2.856 C66.59575,9.91516981 68.2847941,33.423283 56.9193529,55.3657925" id="Fill-3" fill="#FFFFFF" mask="url(#mask-20)"></path>
                    </g>
                    <g id="Group-8" transform="translate(22.000000, 29.000000)">
                        <mask id="mask-22" fill="white">
                            <use xlink:href="#path-21"></use>
                        </mask>
                        <g id="Clip-7"></g>
                        <path d="M26.29125,2.95718182 C26.0205,3.60245455 25.73075,3.75995455 25.28045,3.85445455 L25.28045,3.85445455 C22.5188,4.42145455 19.6669,5.03045455 16.72855,5.67954545 L16.72855,5.67954545 C16.28965,5.77786364 16.0075,5.78740909 15.75385,5.35977273 L15.75385,5.35977273 C14.99575,4.08068182 13.60875,3.96804545 12.31675,5.01709091 L12.31675,5.01709091 C11.0409,6.05468182 10.526,7.80054545 10.96965,9.31636364 L10.96965,9.31636364 C11.0618,9.63518182 11.01715,10.1955 10.82905,10.5124091 L10.82905,10.5124091 C8.70675,14.1005455 6.9768,17.808 5.59075,21.5631818 L5.59075,21.5631818 C5.14615,22.7620909 4.7063,23.6736818 3.439,23.8598182 L3.439,23.8598182 C3.2566,23.8855909 3.0495,24.0440455 2.86425,24.1729091 L2.86425,24.1729091 C1.3205,25.2315 0.3002,27.2026364 0.4826,28.7499545 L0.4826,28.7499545 C0.665,30.3020455 1.91615,31.2355909 3.56155,30.9740455 L3.56155,30.9740455 C4.1952,30.8738182 4.4251,31.0675909 4.62745,31.6078636 L4.62745,31.6078636 C5.3485,33.4969091 6.1332,35.2876364 6.92835,37.0000909 L6.92835,37.0000909 C7.13355,37.4410909 7.1877,37.7751818 6.8609,38.3965909 L6.8609,38.3965909 C6.1503,39.7453636 6.55785,41.0225455 7.6437,41.2697727 L7.6437,41.2697727 C8.69535,41.5103182 10.051,40.7419091 10.8319,39.4685455 L10.8319,39.4685455 C11.5786,38.2553182 11.5311,36.7471364 10.55165,36.4321364 L10.55165,36.4321364 C9.85625,36.2078182 9.7356,35.7525 9.88095,34.9420909 L9.88095,34.9420909 C10.03295,34.0868182 10.10515,33.2391818 10.22105,32.2913182 L10.22105,32.2913182 C11.628,32.8000909 12.86965,33.2477727 14.1341,33.7078636 L14.1341,33.7078636 C14.36685,33.2286818 14.52645,32.9012727 14.65755,32.6263636 L14.65755,32.6263636 C13.38075,32.0870455 12.12105,31.5849545 10.8813,30.9988636 L10.8813,30.9988636 C10.6324,30.8843182 10.41865,30.5034545 10.4519,30.1779545 L10.4519,30.1779545 C10.6894,27.9815455 10.9839,25.7383636 11.32685,23.4503182 L11.32685,23.4503182 C11.37245,23.1400909 11.6926,22.6351364 11.95575,22.4671364 L11.95575,22.4671364 C15.7244,20.0874545 19.43605,17.9989091 23.10115,16.5088636 L23.10115,16.5088636 C23.38425,16.3914545 23.75855,16.4258182 23.93145,16.6014545 L23.93145,16.6014545 C25.479,18.1716818 26.92585,19.7495455 28.3575,21.2214545 L28.3575,21.2214545 C28.6444,21.5202273 28.5532,21.7989545 28.19885,22.2304091 L28.19885,22.2304091 C27.64785,22.9005 27.11395,23.5982727 26.53445,24.3294545 L26.53445,24.3294545 C26.7178,24.5432727 26.8736,24.7179545 27.05885,24.927 L27.05885,24.927 C27.78085,24.0316364 28.46295,23.1868636 29.2201,22.2485455 L29.2201,22.2485455 C29.95825,23.2231364 30.63465,24.1528636 31.32625,25.0367727 L31.32625,25.0367727 C31.53145,25.2964091 31.5248,25.5388636 31.26165,26.0151818 L31.26165,26.0151818 C30.57765,27.2389091 30.4437,28.3127727 30.837,29.1670909 L30.837,29.1670909 C31.25215,30.0653182 32.148,30.1798636 33.3355,29.5345909 L33.3355,29.5345909 C34.2532,29.0363182 35.15665,27.8698636 35.51765,26.712 L35.51765,26.712 C35.92615,25.4014091 35.71715,24.3008182 34.9505,23.8760455 L34.9505,23.8760455 C34.7225,23.7548182 34.4679,23.7185455 34.60375,23.1754091 L34.60375,23.1754091 C35.28395,20.4683182 35.606,17.808 35.73615,15.1476818 L35.73615,15.1476818 C35.7675,14.5587273 35.89195,14.1702273 36.38975,13.6881818 L36.38975,13.6881818 C37.29225,12.8214545 37.71785,11.3915455 37.47845,10.3759091 L37.47845,10.3759091 C37.24095,9.36695455 36.3451,9.06627273 35.3457,9.57504545 L35.3457,9.57504545 C35.1234,9.68863636 34.8194,9.57981818 34.67785,9.40609091 L34.67785,9.40609091 C33.68605,8.1585 32.72085,6.80877273 31.6711,5.49627273 L31.6711,5.49627273 C31.4222,5.187 31.445,4.89490909 31.59605,4.40331818 L31.59605,4.40331818 C32.22875,2.33672727 31.68725,0.520227273 30.31545,0.119318182 L30.31545,0.119318182 C30.1226,0.063 29.92405,0.0353181818 29.72265,0.0353181818 L29.72265,0.0353181818 C28.4392,0.0353181818 27.0484,1.15595455 26.29125,2.95718182 M18.6903,10.3425 C17.90085,9.69054545 17.03445,9.12068182 16.21555,8.45822727 L16.21555,8.45822727 C16.06355,8.33604545 15.9486,7.98381818 16.0056,7.75377273 L16.0056,7.75377273 C16.06355,7.52277273 16.3723,7.15431818 16.55565,7.11327273 L16.55565,7.11327273 C19.6859,6.40118182 22.71165,5.75113636 25.6405,5.12209091 L25.6405,5.12209091 C25.6804,5.11445455 25.71365,5.16790909 25.897,5.30918182 L25.897,5.30918182 C25.60915,5.59268182 25.4068,5.82272727 25.18165,6.00313636 L25.18165,6.00313636 C23.4156,7.39486364 21.61725,8.76940909 19.8246,10.2126818 L19.8246,10.2126818 C19.55765,10.4274545 19.3458,10.5372273 19.1463,10.5372273 L19.1463,10.5372273 C18.99335,10.5372273 18.848,10.4732727 18.6903,10.3425 M30.1549,6.75913636 C30.5539,6.37636364 30.7838,6.35440909 31.0137,6.65222727 L31.0137,6.65222727 C31.9979,7.94277273 32.9688,9.18654545 33.8789,10.4389091 L33.8789,10.4389091 C33.9815,10.5830455 33.97295,11.0259545 33.86275,11.2521818 L33.86275,11.2521818 C33.74685,11.4917727 33.4286,11.7437727 33.2139,11.8153636 L33.2139,11.8153636 C30.3962,12.7613182 27.4968,13.7101364 24.5043,14.6809091 L24.5043,14.6809091 C24.3067,14.7439091 24.0445,14.8069091 23.92385,14.7047727 L23.92385,14.7047727 C22.6993,13.6719545 21.46715,12.5751818 20.1172,11.3867727 L20.1172,11.3867727 C20.596,10.9696364 20.9893,10.5925909 21.3921,10.2718636 L21.3921,10.2718636 C22.7829,9.17890909 24.16705,8.12986364 25.53125,7.05122727 L25.53125,7.05122727 C25.9236,6.74290909 26.163,6.71522727 26.43565,7.04359091 L26.43565,7.04359091 C26.87455,7.57622727 27.4037,7.84063636 27.98225,7.84063636 L27.98225,7.84063636 C28.6596,7.84063636 29.40535,7.47790909 30.1549,6.75913636 M13.1442,11.9346818 C13.33705,10.8760909 14.15595,9.88336364 15.0195,9.62086364 L15.0195,9.62086364 C15.11545,9.58936364 15.2361,9.59318182 15.31115,9.63995455 L15.31115,9.63995455 C16.2279,10.2775909 17.1171,10.9266818 18.08325,11.6158636 L18.08325,11.6158636 C16.1424,13.4543182 14.3108,15.1849091 12.2151,17.1722727 L12.2151,17.1722727 C12.55235,15.2650909 12.83735,13.6070455 13.1442,11.9346818 M6.0363,23.5429091 C7.53255,19.2550909 9.4449,15.015 12.10395,10.9305 L12.10395,10.9305 C12.0878,11.1529091 12.09255,11.3695909 12.05645,11.5872273 L12.05645,11.5872273 C11.68975,13.7635909 11.33445,15.9046364 10.9535,18.0189545 L10.9535,18.0189545 C10.89555,18.3301364 10.7635,18.7167273 10.55925,18.9534545 L10.55925,18.9534545 C9.2606,20.4520909 7.93345,21.9211364 6.6006,23.4006818 L6.6006,23.4006818 C6.5075,23.5047273 6.36405,23.5639091 6.2415,23.6412273 L6.2415,23.6412273 C6.1731,23.6059091 6.1047,23.5734545 6.0363,23.5429091 M12.673,18.2938636 C14.57015,16.4515909 16.47775,14.6599091 18.3483,12.8500909 L18.3483,12.8500909 C18.7948,12.4205455 19.114,12.3623182 19.4693,12.6792273 L19.4693,12.6792273 C20.50005,13.5946364 21.5384,14.4346364 22.5929,15.3204545 L22.5929,15.3204545 C18.9639,17.2639091 15.4185,19.1691818 11.76005,21.1231364 L11.76005,21.1231364 C11.5121,20.1447273 11.7933,19.1472273 12.673,18.2938636 M29.15455,20.3213182 C27.90055,18.9152727 26.58005,17.4958636 25.2263,16.0086818 L25.2263,16.0086818 C25.1731,15.9523636 25.15125,15.855 25.05625,15.6507273 L25.05625,15.6507273 C26.57625,15.0789545 27.9737,14.5148182 29.3531,14.0432727 L29.3531,14.0432727 C30.44845,13.6671818 31.53145,13.3750909 32.5945,13.0954091 L32.5945,13.0954091 C32.9346,13.0028182 33.36115,12.6992727 33.52265,13.2433636 L33.52265,13.2433636 C33.6851,13.8008182 33.7896,14.2485 33.2538,15.0102273 L33.2538,15.0102273 C32.10145,16.6463182 31.0023,18.3339545 29.88415,19.992 L29.88415,19.992 C29.71315,20.2459091 29.55925,20.454 29.3892,20.454 L29.3892,20.454 C29.3151,20.454 29.23815,20.4148636 29.15455,20.3213182 M32.205,24.3046364 C31.48015,23.3319545 30.7553,22.3249091 30.19005,21.5402727 L30.19005,21.5402727 C31.2987,19.7123182 32.32185,18.0285 33.34785,16.3294091 L33.34785,16.3294091 C33.63285,15.8626364 33.90265,15.3872727 34.2114,14.9453182 L34.2114,14.9453182 C34.33205,14.7744545 34.5591,14.5969091 34.70065,14.5806818 L34.70065,14.5806818 C34.8023,14.5720909 34.90775,14.7887727 34.90395,14.9548636 L34.90395,14.9548636 C34.8916,15.6220909 34.8897,16.2883636 34.789,16.9775455 L34.789,16.9775455 C34.485,19.0737273 34.1563,21.1365 33.8143,23.1725455 L33.8143,23.1725455 C33.77915,23.3749091 33.5274,23.8120909 33.4286,23.8378636 L33.4286,23.8378636 C33.10845,23.9256818 32.7389,24.4373182 32.4349,24.4373182 L32.4349,24.4373182 C32.3532,24.4373182 32.2753,24.3991364 32.205,24.3046364 M7.8204,23.6087727 C8.6412,22.6809545 9.4563,21.7579091 10.2885,20.8176818 L10.2885,20.8176818 C10.5925,21.6729545 10.43385,22.1425909 9.71375,22.6332273 L9.71375,22.6332273 C9.1181,23.0350909 8.51485,23.415 7.9078,23.8120909 L7.9078,23.8120909 C7.88025,23.7462273 7.84985,23.6755909 7.8204,23.6087727 M7.1611,28.6707273 C7.07085,28.6029545 7.16205,28.2745909 7.2105,28.0607727 L7.2105,28.0607727 C7.3568,27.4059545 7.65795,26.6957727 7.6513,26.0848636 L7.6513,26.0848636 C7.6437,25.4157273 7.92585,25.1112273 8.4303,24.7933636 L8.4303,24.7933636 C8.9547,24.4573636 9.47245,24.1099091 10.14315,23.6727273 L10.14315,23.6727273 C9.86005,25.9397727 9.61115,27.9319091 9.3328,30.1836818 L9.3328,30.1836818 C8.50915,29.6205 7.81945,29.1737727 7.1611,28.6707273 M7.95245,36.2097273 C7.20195,34.4132727 6.44955,32.5585909 5.68955,30.6351818 L5.68955,30.6351818 C5.6259,30.4748182 5.7437,30.1903636 5.77505,29.9612727 L5.77505,29.9612727 C6.004,29.9555455 6.29375,29.8562727 6.44955,29.9498182 L6.44955,29.9498182 C7.28365,30.4356818 8.0731,30.9578182 8.8464,31.4723182 L8.8464,31.4723182 C8.9851,31.5610909 9.1618,31.7138182 9.1428,31.8799091 L9.1428,31.8799091 C8.9965,33.4262727 8.81885,34.9564091 8.65165,36.4674545 L8.65165,36.4674545 C8.5671,36.5275909 8.4778,36.5896364 8.3885,36.6516818 L8.3885,36.6516818 C8.2422,36.5046818 8.037,36.4044545 7.95245,36.2097273" id="Fill-6" fill="url(#linearGradient-7)" mask="url(#mask-22)"></path>
                    </g>
                    <path d="M43.6906836,51.2947833 C41.455431,52.2136397 39.784214,54.814437 39.8326413,57.283124 L39.8326413,57.283124 C39.8810686,59.6709675 41.5807722,60.6854559 43.7096747,59.704488 L43.7096747,59.704488 C45.7331766,58.7659137 47.3198832,56.2784946 47.3654618,53.9626216 L47.3654618,53.9626216 C47.4005953,52.1219512 46.4671827,51 45.0437996,51 L45.0437996,51 C44.6297936,51.0009859 44.1749567,51.095632 43.6906836,51.2947833 M40.5305643,63.1521711 C39.6816621,64.0631403 39.163205,65.094389 39.0226708,66.2291568 L39.0226708,66.2291568 C38.7900298,68.1270093 38.4947182,70.0189464 38.2459348,71.8665181 L38.2459348,71.8665181 C38.1509793,72.5734065 38.08546,73.2625488 38,74 L38,74 L48.9844532,68.370526 C48.989201,68.1930644 49.0072425,68.0757426 48.9967974,67.9830683 L48.9967974,67.9830683 C48.7043345,66.0280338 48.3824353,64.0355352 48.1042157,61.9572635 L48.1042157,61.9572635 C47.9731771,60.972352 47.514542,60.4025033 46.6960255,60.2763085 L46.6960255,60.2763085 C46.4519898,60.2388444 46.2070046,60.2191264 45.9610698,60.2191264 L45.9610698,60.2191264 C44.1901496,60.2191264 42.3565587,61.2020661 40.5305643,63.1521711" id="Fill-9" fill="url(#linearGradient-7)"></path>
                </g>
                <g id="Page-1" transform="translate(37.000000, 109.000000)">
                    <g id="Group-3" fill="url(#linearGradient-7)">
                        <path d="M35.0196364,0.0664 C24.8804242,0.1016 13.0275758,8.9872 5.81690909,23.0264 L5.81690909,23.0264 C-2.54169697,39.3032 -1.73412121,56.808 7.22090909,64.0016 L7.22090909,64.0016 C7.94890909,64.5872 8.73206061,65.104 9.568,65.5464 L9.568,65.5464 C20.6786667,71.4288 37.0106061,61.9288 46.0507273,44.328 L46.0507273,44.328 C55.0884848,26.7272 53.410303,7.6896 42.2996364,1.808 L42.2996364,1.808 C40.0872727,0.636 37.6669091,0.0752 35.1386061,0.0664 L35.1386061,0.0664 L35.0196364,0.0664 Z" id="Fill-1"></path>
                    </g>
                    <g id="Group-6" transform="translate(6.000000, 5.000000)" fill="#FFFFFF">
                        <path d="M44.0221641,42.718 C43.2388359,44.2306543 51.7661953,49.0534938 50.9358516,50.3823827 C50.0855859,51.7425679 37.7571328,52.3075062 37.1323828,53.0217037 C35.4493828,54.9428148 33.5815078,56.7531852 31.4347266,58.5731852 C25.4748984,63.6247284 20.0449922,64.595716 18.2775234,64.8380617 C15.1370391,65.2705926 12.1328203,64.8468889 9.47046094,63.4481852 C-0.872179687,58.0178765 -2.17108594,39.9310247 6.56903906,23.0510864 C15.3099609,6.17195062 30.7796953,-3.10940741 41.1215391,2.32090123 C51.4641797,7.75201235 52.7622891,25.8380617 44.0221641,42.718" id="Fill-4"></path>
                    </g>
                    <g id="Group-9" transform="translate(20.000000, 20.000000)" fill="url(#linearGradient-7)">
                        <path d="M20.4583243,0.9065 C18.009,2.09854348 15.7078108,4.85745652 14.1331892,8.31454348 L14.1331892,8.31454348 C12.4496216,6.43478261 10.1225676,5.9385 7.75867568,7.08952174 L7.75867568,7.08952174 C3.00345946,9.40443478 -0.000783783784,16.929913 0.877837838,23.2770217 L0.877837838,23.2770217 C0.906837838,23.4877609 0.947594595,23.6365652 0.969540541,23.793413 L0.969540541,23.793413 L0.990702703,23.9510652 C1.13413514,24.9854565 1.479,26.0407609 1.99316216,27.0486087 L1.99316216,27.0486087 C2.01745946,27.0896304 2.02137838,27.1145652 2.04567568,27.155587 L2.04567568,27.155587 C5.06794595,32.950913 13.6832973,36.4803913 14.0320811,36.6565435 L14.0320811,36.6565435 C14.2405676,36.7498478 14.4968649,36.741 14.7515946,36.6316087 L14.7515946,36.6316087 C15.0055405,36.5222174 15.2587027,36.3114783 15.4593514,36.0211087 L15.4593514,36.0211087 C15.7462162,35.631 22.9915135,26.1758913 26.487973,17.8492826 L26.487973,17.8492826 C26.6267027,17.5484565 26.727027,17.262913 26.8242162,17.0063261 L26.8242162,17.0063261 C26.8485135,16.9419783 26.8751622,16.8486739 26.9206216,16.7754783 L26.9206216,16.7754783 L26.9433514,16.7368696 C26.9652973,16.6998696 26.9668649,16.6733261 26.9895946,16.6363261 L26.9895946,16.6363261 C27.212973,16.0483478 27.4167568,15.4651957 27.5782162,14.9520217 L27.5782162,14.9520217 C28.0124324,13.5556739 28.2781351,12.3563913 28.3737568,11.2737391 L28.3737568,11.2737391 L28.3925676,11.060587 C28.3667027,10.8973043 28.4035405,10.7034565 28.4223514,10.4886957 L28.4223514,10.4886957 C28.9561081,4.4416087 26.6604054,0.246934783 23.0604865,0.246130435 L23.0604865,0.246130435 C22.2531892,0.246130435 21.3800541,0.457673913 20.4583243,0.9065" id="Fill-7"></path>
                    </g>
                </g>
            </g>
        </g>
    </g>
</svg>