<?xml version="1.0" encoding="UTF-8"?>
<svg width="343px" height="379px" viewBox="0 0 343 379" version="1.1" xmlns="http://www.w3.org/2000/svg" xmlns:xlink="http://www.w3.org/1999/xlink">
    <!-- Generator: Sketch 46.2 (44496) - http://www.bohemiancoding.com/sketch -->
    <title>img-publishers-3</title>
    <desc>Created with Sketch.</desc>
    <defs>
        <linearGradient x1="16.1817088%" y1="-9.74807226%" x2="96.9447255%" y2="102.71486%" id="linearGradient-1">
            <stop stop-color="#91FFE9" offset="0%"></stop>
            <stop stop-color="#19B7FE" offset="100%"></stop>
            <stop stop-color="#19B7FE" offset="100%"></stop>
        </linearGradient>
        <linearGradient x1="0%" y1="0%" x2="100%" y2="100%" id="linearGradient-2">
            <stop stop-color="#7FFFE6" offset="0%"></stop>
            <stop stop-color="#4FC8FF" offset="100%"></stop>
        </linearGradient>
        <polygon id="path-3" points="155.012679 126.345763 29.6721854 200.228105 155.012679 271.715254 280.350993 199.149396"></polygon>
        <filter x="-2.0%" y="-3.4%" width="104.0%" height="106.9%" filterUnits="objectBoundingBox" id="filter-4">
            <feGaussianBlur stdDeviation="2.5" in="SourceAlpha" result="shadowBlurInner1"></feGaussianBlur>
            <feOffset dx="0" dy="5" in="shadowBlurInner1" result="shadowOffsetInner1"></feOffset>
            <feComposite in="shadowOffsetInner1" in2="SourceAlpha" operator="arithmetic" k2="-1" k3="1" result="shadowInnerInner1"></feComposite>
            <feColorMatrix values="0 0 0 0 0   0 0 0 0 0.773342056   0 0 0 0 0.86455676  0 0 0 1 0" type="matrix" in="shadowInnerInner1"></feColorMatrix>
        </filter>
        <linearGradient x1="50%" y1="0%" x2="50%" y2="100%" id="linearGradient-5">
            <stop stop-color="#BDFFF2" stop-opacity="0.0428838315" offset="0%"></stop>
            <stop stop-color="#FFFFFF" offset="100%"></stop>
        </linearGradient>
        <linearGradient x1="0%" y1="0%" x2="100%" y2="5.08810913%" id="linearGradient-6">
            <stop stop-color="#02FBCA" offset="0%"></stop>
            <stop stop-color="#1985FE" offset="100%"></stop>
        </linearGradient>
        <polygon id="path-7" points="154.501343 271.139146 0 182.957737 0 194.809528 154.501343 284 309 193.092774 309 181.627119"></polygon>
        <filter x="-14.2%" y="-27.4%" width="128.5%" height="186.0%" filterUnits="objectBoundingBox" id="filter-8">
            <feOffset dx="0" dy="16" in="SourceAlpha" result="shadowOffsetOuter1"></feOffset>
            <feGaussianBlur stdDeviation="12" in="shadowOffsetOuter1" result="shadowBlurOuter1"></feGaussianBlur>
            <feColorMatrix values="0 0 0 0 0.0588235294   0 0 0 0 0.823529412   0 0 0 0 0.91372549  0 0 0 1 0" type="matrix" in="shadowBlurOuter1"></feColorMatrix>
        </filter>
        <linearGradient x1="0%" y1="0%" x2="100%" y2="100%" id="linearGradient-9">
            <stop stop-color="#DCFFF8" offset="0%"></stop>
            <stop stop-color="#78D5FF" offset="100%"></stop>
        </linearGradient>
        <linearGradient x1="0%" y1="11.4684261%" x2="100%" y2="60.6025306%" id="linearGradient-10">
            <stop stop-color="#5ED7FF" offset="0%"></stop>
            <stop stop-color="#628CFF" offset="100%"></stop>
        </linearGradient>
        <linearGradient x1="0%" y1="0%" x2="100%" y2="100%" id="linearGradient-11">
            <stop stop-color="#02FBCA" offset="0%"></stop>
            <stop stop-color="#19B7FE" offset="100%"></stop>
        </linearGradient>
        <linearGradient x1="50%" y1="0%" x2="50%" y2="100%" id="linearGradient-12">
            <stop stop-color="#FFFFFF" stop-opacity="0.668902853" offset="0%"></stop>
            <stop stop-color="#B4F3FF" stop-opacity="0.54578712" offset="36.1786511%"></stop>
            <stop stop-color="#19B7FE" stop-opacity="0" offset="100%"></stop>
        </linearGradient>
        <radialGradient cx="40.7658918%" cy="30.0904989%" fx="40.7658918%" fy="30.0904989%" r="71.1788049%" gradientTransform="translate(0.407659,0.300905),scale(0.999093,1.000000),rotate(52.662295),translate(-0.407659,-0.300905)" id="radialGradient-13">
            <stop stop-color="#B5FFF0" offset="0%"></stop>
            <stop stop-color="#5DF0FF" offset="59.4826212%"></stop>
            <stop stop-color="#19E1FE" offset="76.6800861%"></stop>
            <stop stop-color="#84FFEB" offset="100%"></stop>
        </radialGradient>
        <linearGradient x1="87.619013%" y1="-11.3123021%" x2="7.1230526%" y2="114.094356%" id="linearGradient-14">
            <stop stop-color="#00FF7E" offset="0%"></stop>
            <stop stop-color="#00CBFF" offset="100%"></stop>
        </linearGradient>
        <path d="M156.831287,7.77694605 C161.885055,13.6633624 158.342719,25.6422326 148.587587,39.8092744 C148.266506,38.768654 147.864502,37.7593306 147.47816,36.747399 C155.706197,24.445128 158.898738,14.1928008 154.847369,9.47219222 C153.249794,7.61263758 150.626324,6.73110957 147.211897,6.73110957 C142.069374,6.73110957 135.10739,8.76018883 127.158668,12.4114883 L104.220928,25.7569877 C103.396036,26.3255472 102.565923,26.9306197 101.738421,27.5226518 C96.8491081,31.020075 91.8997561,34.8721959 87.0026125,39.0659741 C77.9914505,46.7858644 70.0322868,54.8552361 63.5636717,62.5829506 C62.7648839,62.1474027 61.9791481,61.7118549 61.1934124,61.276307 C67.7638338,53.3842841 75.9083371,45.1323473 85.3058409,37.0838402 C89.8662407,33.1769498 94.4240301,29.6065005 98.9217798,26.320331 C99.7466718,25.7204747 100.566343,25.1206184 101.383404,24.5468427 C109.433932,18.8429914 117.228639,14.1875846 124.347248,10.7970923 C139.633855,3.515358 151.827116,1.94529924 156.831287,7.77694605 Z M47.3644634,101.535013 C51.661211,106.547725 63.3741553,104.453444 77.982053,97.2238715 C78.9400763,97.7507019 79.9372558,98.2149385 80.931825,98.6791752 C70.7068187,103.913574 61.672163,106.790276 54.9894936,106.790276 C50.7501752,106.790276 47.4506072,105.642725 45.380546,103.230259 C40.1075021,97.0830357 44.1901955,84.2956635 54.9503373,69.3070793 C56.3573525,67.3484179 57.8870573,65.3480275 59.5133475,63.3267724 C60.2990833,63.7649284 61.0795982,64.2004762 61.8757756,64.6360241 C59.7508955,67.2519193 57.8061343,69.8286935 56.0597649,72.3272255 C46.8632632,85.4849439 43.1042617,96.5692457 47.3644634,101.535013 Z" id="path-15"></path>
        <filter x="-6.0%" y="-4.9%" width="112.1%" height="113.6%" filterUnits="objectBoundingBox" id="filter-16">
            <feOffset dx="0" dy="2" in="SourceAlpha" result="shadowOffsetOuter1"></feOffset>
            <feGaussianBlur stdDeviation="2" in="shadowOffsetOuter1" result="shadowBlurOuter1"></feGaussianBlur>
            <feColorMatrix values="0 0 0 0 0.393663194   0 0 0 0 1   0 0 0 0 0.934379134  0 0 0 0.352836277 0" type="matrix" in="shadowBlurOuter1"></feColorMatrix>
        </filter>
        <linearGradient x1="0%" y1="0%" x2="100%" y2="100%" id="linearGradient-17">
            <stop stop-color="#F1FB02" offset="0%"></stop>
            <stop stop-color="#00FFF5" offset="100%"></stop>
        </linearGradient>
        <path d="M180.625766,68.9954148 C172.175844,62.428292 161.937786,55.6499154 150.465,48.9810778 C150.577248,50.016482 150.608573,51.0701426 150.65556,52.1185872 C161.407871,58.4431594 171.032481,64.8485819 179.02558,71.0557909 C195.071818,83.5249785 202.809096,93.8738043 200.253497,99.4472521 C196.528431,107.545313 170.071847,105.753568 131.993684,92.7940629 C123.776089,89.9982108 115.012917,86.6729202 105.824246,82.8207993 C104.889717,82.4295887 103.957798,82.0409861 103.015437,81.6393431 C99.2251103,80.0223391 95.3747442,78.3218768 91.4565072,76.5275239 C81.7170386,72.0651144 72.3508598,67.3731946 63.5615833,62.5821682 C62.7654059,62.1466203 61.9796702,61.7110724 61.1939345,61.2755246 C58.2885395,59.6689528 55.4510155,58.0493407 52.6891935,56.4245125 C41.9342725,50.1025483 32.3122727,43.6997339 24.3191736,37.4899168 C8.27032545,25.0207292 0.5330473,14.6719034 3.08864626,9.09845564 C4.57658436,5.86444757 9.68517185,4.20310633 17.7148168,4.20310633 C29.7853884,4.20310633 48.4812001,7.97959317 71.3380178,15.759469 C72.139416,15.1283159 72.9512559,14.5049869 73.7944208,13.9259951 C37.6061999,1.46463175 5.93922241,-3.37334 0.718386959,8.0134981 C-3.32253968,16.8131297 10.4526347,30.0204014 22.7163772,39.5502929 C31.1662993,46.1174158 41.4069681,52.8931843 52.8771436,59.56463 C55.0437903,60.8243283 57.2652558,62.0788104 59.5128254,63.3254684 C60.2985612,63.7636243 61.0790761,64.1991722 61.8752535,64.63472 C70.8446488,69.5378936 80.4170506,74.3367443 90.3705734,78.8956524 C93.7510644,80.4448466 97.1602699,81.9392713 100.579917,83.4023991 C101.527499,83.8092582 102.47508,84.2265496 103.425272,84.6229764 C112.196276,88.3081807 120.995994,91.6752004 129.552944,94.6197126 C151.561375,102.198767 171.90175,106.963713 185.632548,106.963713 C194.474032,106.963713 200.579799,104.989403 202.623757,100.53221 C206.664683,91.732578 192.889509,78.5253063 180.625766,68.9954148" id="path-18"></path>
        <filter x="-4.4%" y="-8.5%" width="108.9%" height="117.1%" filterUnits="objectBoundingBox" id="filter-19">
            <feOffset dx="0" dy="0" in="SourceAlpha" result="shadowOffsetOuter1"></feOffset>
            <feGaussianBlur stdDeviation="3" in="shadowOffsetOuter1" result="shadowBlurOuter1"></feGaussianBlur>
            <feColorMatrix values="0 0 0 0 0   0 0 0 0 0.106827446   0 0 0 0 1  0 0 0 0.173290308 0" type="matrix" in="shadowBlurOuter1"></feColorMatrix>
        </filter>
        <filter x="-74.5%" y="-74.4%" width="248.9%" height="248.8%" filterUnits="objectBoundingBox" id="filter-20">
            <feGaussianBlur stdDeviation="1" in="SourceGraphic"></feGaussianBlur>
        </filter>
        <filter x="-44.7%" y="-44.7%" width="189.4%" height="189.3%" filterUnits="objectBoundingBox" id="filter-21">
            <feGaussianBlur stdDeviation="1" in="SourceGraphic"></feGaussianBlur>
        </filter>
        <filter x="-74.5%" y="-74.4%" width="248.9%" height="248.8%" filterUnits="objectBoundingBox" id="filter-22">
            <feGaussianBlur stdDeviation="1" in="SourceGraphic"></feGaussianBlur>
        </filter>
        <filter x="-55.8%" y="-55.8%" width="211.7%" height="211.6%" filterUnits="objectBoundingBox" id="filter-23">
            <feGaussianBlur stdDeviation="1" in="SourceGraphic"></feGaussianBlur>
        </filter>
        <filter x="-44.7%" y="-44.7%" width="189.4%" height="189.3%" filterUnits="objectBoundingBox" id="filter-24">
            <feGaussianBlur stdDeviation="1" in="SourceGraphic"></feGaussianBlur>
        </filter>
        <filter x="-44.7%" y="-44.7%" width="189.4%" height="189.3%" filterUnits="objectBoundingBox" id="filter-25">
            <feGaussianBlur stdDeviation="1" in="SourceGraphic"></feGaussianBlur>
        </filter>
        <filter x="-74.5%" y="-74.4%" width="248.9%" height="248.8%" filterUnits="objectBoundingBox" id="filter-26">
            <feGaussianBlur stdDeviation="1" in="SourceGraphic"></feGaussianBlur>
        </filter>
        <linearGradient x1="0%" y1="0%" x2="100%" y2="100%" id="linearGradient-27">
            <stop stop-color="#9CFFEC" offset="0%"></stop>
            <stop stop-color="#EAF8FF" offset="100%"></stop>
        </linearGradient>
        <filter x="-154.7%" y="-154.7%" width="409.4%" height="409.4%" filterUnits="objectBoundingBox" id="filter-28">
            <feGaussianBlur stdDeviation="4.64118304" in="SourceGraphic"></feGaussianBlur>
        </filter>
        <filter x="-154.7%" y="-154.7%" width="409.4%" height="409.4%" filterUnits="objectBoundingBox" id="filter-29">
            <feGaussianBlur stdDeviation="4.64118304" in="SourceGraphic"></feGaussianBlur>
        </filter>
        <filter x="-232.1%" y="-232.1%" width="564.1%" height="564.1%" filterUnits="objectBoundingBox" id="filter-30">
            <feGaussianBlur stdDeviation="4.64118304" in="SourceGraphic"></feGaussianBlur>
        </filter>
        <filter x="-92.8%" y="-92.8%" width="285.6%" height="285.6%" filterUnits="objectBoundingBox" id="filter-31">
            <feGaussianBlur stdDeviation="4.64118304" in="SourceGraphic"></feGaussianBlur>
        </filter>
        <filter x="-66.3%" y="-66.3%" width="232.6%" height="232.6%" filterUnits="objectBoundingBox" id="filter-32">
            <feGaussianBlur stdDeviation="4.64118304" in="SourceGraphic"></feGaussianBlur>
        </filter>
        <filter x="-174.0%" y="-174.0%" width="448.1%" height="448.1%" filterUnits="objectBoundingBox" id="filter-33">
            <feGaussianBlur stdDeviation="4.64118304" in="SourceGraphic"></feGaussianBlur>
        </filter>
        <filter x="-139.2%" y="-139.2%" width="378.5%" height="378.5%" filterUnits="objectBoundingBox" id="filter-34">
            <feGaussianBlur stdDeviation="4.64118304" in="SourceGraphic"></feGaussianBlur>
        </filter>
    </defs>
    <g id="Symbols" stroke="none" stroke-width="1" fill="none" fill-rule="evenodd">
        <g id="img-publishers-3">
            <g id="Group-18" transform="translate(17.000000, 15.000000)">
                <g id="Group-24-Copy" transform="translate(0.000000, 26.000000)">
                    <polygon id="Fill-1" fill="url(#linearGradient-1)" points="154.501343 91.5389831 0 182.591166 154.501343 270.691525 309 181.26177"></polygon>
                    <g id="Fill-1-Copy">
                        <use fill="url(#linearGradient-2)" fill-rule="evenodd" xlink:href="#path-3"></use>
                        <use fill="black" fill-opacity="1" filter="url(#filter-4)" xlink:href="#path-3"></use>
                    </g>
                    <polygon id="Fill-1-Copy-2" stroke="#FFFFFF" stroke-width="2" fill="url(#linearGradient-5)" opacity="0.388870018" points="279.327966 169.342373 261.933775 179.748337 279.327966 189.816949 296.721854 179.596406"></polygon>
                    <polygon id="Fill-1-Copy-3" stroke="#FFFFFF" stroke-width="2" fill="url(#linearGradient-5)" opacity="0.388870018" points="215.89088 129.416949 198.496689 139.822913 215.89088 149.891525 233.284768 139.670982"></polygon>
                    <polygon id="Fill-1-Copy-4" stroke="#FFFFFF" stroke-width="2" fill="url(#linearGradient-5)" opacity="0.388870018" points="155.52333 99.7288136 138.129139 110.134777 155.52333 120.20339 172.917219 109.982846"></polygon>
                    <polygon id="Fill-1-Copy-5" stroke="#FFFFFF" stroke-width="2" fill="url(#linearGradient-5)" opacity="0.388870018" points="85.947171 138.630508 68.5529801 149.036472 85.947171 159.105085 103.34106 148.884541"></polygon>
                    <polygon id="Fill-1-Copy-6" stroke="#FFFFFF" stroke-width="2" fill="url(#linearGradient-5)" opacity="0.388870018" points="29.6723366 171.389831 12.2781457 181.795794 29.6723366 191.864407 47.0662252 181.643863"></polygon>
                    <g id="Fill-3">
                        <use fill="black" fill-opacity="1" filter="url(#filter-8)" xlink:href="#path-7"></use>
                        <use fill="url(#linearGradient-6)" fill-rule="evenodd" xlink:href="#path-7"></use>
                    </g>
                    <path d="M157.058791,163.2 C120.045522,163.2 90.0397351,180.845885 90.0397351,202.613559 C90.0397351,203.616338 90.1257889,204.605701 90.2506513,205.588357 C92.8390154,225.965892 121.749726,242.027119 157.058791,242.027119 C192.367856,242.027119 221.278566,225.965892 223.86693,205.588357 C223.991792,204.605701 224.076159,203.616338 224.076159,202.613559 C224.076159,180.845885 194.072059,163.2 157.058791,163.2" id="Fill-6-Copy-3" fill="url(#linearGradient-9)" opacity="0.590126812"></path>
                    <g id="Group-23" transform="translate(103.341060, 163.200000)">
                        <path d="M53.3395263,62.8457684 C25.2375366,62.8457684 2.22790791,49.9643293 0.167865273,33.6224659 C0.0684890315,34.4092316 0,35.2040667 0,36.0083161 C0,53.4651004 23.8811852,67.6188137 53.3395263,67.6188137 C82.7978673,67.6188137 106.67771,53.4651004 106.67771,36.0083161 C106.67771,35.2040667 106.610564,34.4092316 106.511187,33.6224659 C104.451145,49.9643293 81.4415159,62.8457684 53.3395263,62.8457684" id="Fill-4" fill="url(#linearGradient-10)"></path>
                        <path d="M53.3395263,0 C23.8811852,0 0,14.1523684 0,31.6104976 C0,32.414747 0.0684890315,33.2082372 0.167865273,33.9963478 C2.22790791,50.339556 25.2375366,63.2209951 53.3395263,63.2209951 C81.4415159,63.2209951 104.451145,50.339556 106.511187,33.9963478 C106.610564,33.2082372 106.67771,32.414747 106.67771,31.6104976 C106.67771,14.1523684 82.7978673,0 53.3395263,0" id="Fill-6" fill="url(#linearGradient-11)"></path>
                        <path d="M53.636546,21.5183782 C38.8475419,21.5183782 26.8584437,30.2605365 26.8584437,41.0447194 C26.8584437,41.5415179 26.8928273,42.0316702 26.9427173,42.5184995 C27.9769228,52.6139768 39.5284726,60.5710605 53.636546,60.5710605 C67.7446194,60.5710605 79.2961692,52.6139768 80.3303747,42.5184995 C80.3802646,42.0316702 80.4139741,41.5415179 80.4139741,41.0447194 C80.4139741,30.2605365 68.42555,21.5183782 53.636546,21.5183782" id="Fill-6-Copy" fill="url(#linearGradient-12)"></path>
                        <path d="M53.6997179,20.1734796 C45.550844,20.1734796 38.9447434,23.4851723 38.9447434,27.5704221 C38.9447434,27.7586186 38.9636891,27.9442975 38.9911789,28.1287175 C39.5610354,31.9530727 45.9260429,34.9673646 53.6997179,34.9673646 C61.4733929,34.9673646 67.8384004,31.9530727 68.4082569,28.1287175 C68.4357467,27.9442975 68.4543209,27.7586186 68.4543209,27.5704221 C68.4543209,23.4851723 61.8485918,20.1734796 53.6997179,20.1734796" id="Fill-6-Copy-2" stroke="#FFFFFF" fill="url(#linearGradient-12)"></path>
                    </g>
                    <g id="Group-22" transform="translate(48.000000, 0.000000)">
                        <ellipse id="Oval-6" fill-opacity="0.248358243" fill="#00FFE3" opacity="0.648494112" cx="101.806291" cy="54.7694915" rx="54.9218151" ry="54.7694915"></ellipse>
                        <g id="Page-1" transform="translate(0.000000, 1.023729)">
                            <path d="M101.673421,5.22494856 C109.859691,5.22494856 117.560423,7.25663588 124.34751,10.7983963 C117.2289,14.1888887 109.434193,18.8442954 101.383665,24.5455387 C100.566604,25.1219224 99.7469328,25.7191707 98.9220408,26.3216351 C94.4242911,29.6078046 89.8665017,33.1782538 85.3034916,37.0851442 C75.9085982,45.1336514 67.7640948,53.3855881 61.1936734,61.275003 C58.2882785,59.6684312 55.4507544,58.0488191 52.6889325,56.4239908 C52.6602179,55.7041632 52.5792949,54.9999841 52.5792949,54.2749403 C52.5792949,38.6369465 59.9302312,24.738536 71.3377567,15.7589474 C72.1417654,15.1277942 72.9509949,14.5070733 73.7941598,13.9254735 C81.7141672,8.44852434 91.3100627,5.22494856 101.673421,5.22494856 Z M103.42475,84.623498 C112.195754,88.3087024 120.995472,91.6757221 129.552421,94.6202342 C121.629804,100.094575 112.033908,103.318151 101.67316,103.318151 C94.2491321,103.318151 87.2401605,101.628121 80.9333912,98.6810008 C79.9362117,98.2141561 78.9390321,97.7499195 77.9810088,97.2230891 C68.0640318,91.748748 60.2745453,82.9465083 56.0587207,72.3264431 C57.8050902,69.8279111 59.7524618,67.253745 61.8747314,64.6352417 C70.8467371,69.5384152 80.4191389,74.3372659 90.3700513,78.896174 C93.7505423,80.4427601 97.1623583,81.9397929 100.579395,83.4029208 C101.526977,83.8097798 102.474558,84.2270712 103.42475,84.623498 Z M52.8758384,59.5641084 C55.0424851,60.8238067 57.266561,62.0782888 59.5141307,63.3249468 C57.8878404,65.3488099 56.3581356,67.3465923 54.9511205,69.3052536 C53.9461096,66.1833926 53.2386864,62.9259119 52.8758384,59.5641084 Z M150.654516,52.1193696 C150.685841,52.8365892 150.761543,53.5459845 150.761543,54.2736363 C150.761543,69.9142382 143.410607,83.8126487 131.99525,92.7948453 C123.775045,89.9963851 115.014483,86.6737026 105.823202,82.8189737 C104.891283,82.4303711 103.956754,82.0417685 103.014393,81.6375175 C99.2266766,80.0205134 95.3737,78.3226592 91.455463,76.5256983 C81.7186049,72.0632887 72.3524261,67.373977 63.5631496,62.5829506 C70.0317647,54.8552361 77.9909284,46.7858644 87.0020904,39.0659741 C91.899234,34.8721959 96.8511965,31.020075 101.737898,27.5226518 C102.565401,26.9306197 103.395514,26.3255472 104.220406,25.7569877 C112.294428,20.1600673 120.112629,15.6507125 127.158146,12.4114883 C136.3677,18.021449 143.567232,26.5550574 147.477638,36.747399 C147.86659,37.7593306 148.265984,38.768654 148.587065,39.8092744 C149.498101,42.7563946 150.129822,45.8260942 150.466566,48.9818602 C150.578814,50.0146563 150.607529,51.0709251 150.654516,52.1193696 Z" id="Combined-Shape" fill="url(#radialGradient-13)"></path>
                            <g id="Combined-Shape">
                                <use fill="black" fill-opacity="1" filter="url(#filter-16)" xlink:href="#path-15"></use>
                                <use fill="url(#linearGradient-14)" fill-rule="evenodd" xlink:href="#path-15"></use>
                            </g>
                            <g id="Fill-13">
                                <use fill="black" fill-opacity="1" filter="url(#filter-19)" xlink:href="#path-18"></use>
                                <use fill="url(#linearGradient-17)" fill-rule="evenodd" xlink:href="#path-18"></use>
                            </g>
                            <g id="Group-15" transform="translate(0.000000, 0.031758)"></g>
                        </g>
                    </g>
                    <g id="Group-21" transform="translate(95.155629, 145.796610)" fill="#FFFFFF">
                        <ellipse id="Oval-7" filter="url(#filter-20)" cx="126.906147" cy="42.3247881" rx="2.01438328" ry="2.0154661"></ellipse>
                        <ellipse id="Oval-7-Copy" filter="url(#filter-21)" cx="39.6162045" cy="82.6341102" rx="3.35730546" ry="3.35911017"></ellipse>
                        <ellipse id="Oval-7-Copy-2" filter="url(#filter-22)" cx="19.4723717" cy="58.4485169" rx="2.01438328" ry="2.0154661"></ellipse>
                        <ellipse id="Oval-7-Copy-3" filter="url(#filter-23)" cx="88.6328642" cy="65.8385593" rx="2.68584437" ry="2.68728814"></ellipse>
                        <ellipse id="Oval-7-Copy-4" opacity="0.65868433" filter="url(#filter-24)" cx="30.2157492" cy="42.3247881" rx="3.35730546" ry="3.35911017"></ellipse>
                        <ellipse id="Oval-7-Copy-5" opacity="0.65868433" filter="url(#filter-25)" cx="51.7025041" cy="3.35911017" rx="3.35730546" ry="3.35911017"></ellipse>
                        <ellipse id="Oval-7-Copy-6" opacity="0.65868433" filter="url(#filter-26)" cx="2.01438328" cy="30.2319915" rx="2.01438328" ry="2.0154661"></ellipse>
                    </g>
                    <path d="M127.897351,194.935593 L140.175497,192.888136" id="Path-3" stroke="#FFFFFF" stroke-width="2" opacity="0.597373188" stroke-linecap="round"></path>
                    <path d="M143.245033,212.338983 L155.523179,199.030508" id="Path-3-Copy" stroke="#FFFFFF" stroke-width="2" opacity="0.597373188" stroke-linecap="round"></path>
                    <path d="M174.963576,192.888136 L191.334437,195.959322" id="Path-3-Copy-2" stroke="#FFFFFF" stroke-width="2" opacity="0.597373188" stroke-linecap="round"></path>
                    <path d="M164.731788,183.674576 L168.824503,175.484746" id="Path-3-Copy-3" stroke="#FFFFFF" stroke-width="2" opacity="0.597373188" stroke-linecap="round"></path>
                    <g id="Page-1" transform="translate(116.642384, 159.105085)" fill="url(#linearGradient-27)">
                        <g id="Group-3" transform="translate(0.000000, 1.341438)">
                            <path d="M9.84673179,0.451631802 C9.67961258,1.82500443 7.54173731,2.91122284 4.92922075,2.91122284 C2.20699669,2.91122284 0.000341059603,1.7317096 0.000341059603,0.27776416 L0.000341059603,34.9264956 C0.000341059603,36.3816526 2.20699669,37.5605601 4.92922075,37.5605601 C7.65144481,37.5605601 9.85810044,36.3816526 9.85810044,34.9264956 C9.85810044,34.8689436 9.84673179,0.451631802 9.84673179,0.451631802" id="Fill-1"></path>
                        </g>
                        <g id="Group-6">
                            <path d="M4.92887969,0 C2.29476269,0 0.143813466,1.08567029 0.00682119205,2.45274441 C0.00227373068,2.49865139 0,2.54515457 0,2.59165774 C0,4.02252468 2.20665563,5.18271929 4.92887969,5.18271929 C7.54196468,5.18271929 9.67927152,4.11374245 9.84639073,2.76276558 C9.85378035,2.7055309 9.85775938,2.64889242 9.85775938,2.59165774 C9.85775938,1.16019461 7.65110375,0 4.92887969,0" id="Fill-4"></path>
                        </g>
                    </g>
                    <g id="Page-1-Copy-2" transform="translate(137.105960, 188.793220)" fill="url(#linearGradient-27)">
                        <g id="Group-3" transform="translate(0.000000, 1.364972)">
                            <path d="M4.92922075,2.96229692 C2.20699669,2.96229692 0.000341059603,1.76209047 0.000341059603,0.282637215 L0.000341059603,23.4686404 C0.000341059603,24.9493265 2.20699669,26.1489165 4.92922075,26.1489165 C7.65144481,26.1489165 9.85810044,24.9493265 9.85810044,23.4686404 C9.85810044,23.4100787 9.84673179,0.459555167 9.84673179,0.459555167 C9.67961258,1.85702205 7.54173731,2.96229692 4.92922075,2.96229692 Z" id="Fill-1"></path>
                        </g>
                        <g id="Group-6">
                            <path d="M4.92887969,0 C2.29476269,0 0.143813466,1.10471714 0.00682119205,2.49577502 C0.00227373068,2.54248738 0,2.5898064 0,2.63712542 C0,4.09309529 2.20665563,5.27364419 4.92887969,5.27364419 C7.54196468,5.27364419 9.67927152,4.18591337 9.84639073,2.81123515 C9.85378035,2.75299636 9.85775938,2.69536422 9.85775938,2.63712542 C9.85775938,1.1805489 7.65110375,0 4.92887969,0" id="Fill-4"></path>
                        </g>
                    </g>
                    <g id="Page-1-Copy" transform="translate(188.264901, 138.630508)" fill="url(#linearGradient-27)">
                        <g id="Group-3" transform="translate(0.000000, 1.342222)">
                            <path d="M4.92922075,2.9129253 C2.20699669,2.9129253 0.000341059603,1.73272229 0.000341059603,0.277926595 L0.000341059603,55.5323747 C0.000341059603,56.9883827 2.20699669,58.1679795 4.92922075,58.1679795 C7.65144481,58.1679795 9.85810044,56.9883827 9.85810044,55.5323747 C9.85810044,55.474789 9.84673179,0.451895914 9.84673179,0.451895914 C9.67961258,1.82607168 7.54173731,2.9129253 4.92922075,2.9129253 Z" id="Fill-1"></path>
                        </g>
                        <g id="Group-6">
                            <path d="M4.92887969,0 C2.29476269,0 0.143813466,1.08630519 0.00682119205,2.45417877 C0.00227373068,2.50011259 0,2.54664296 0,2.59317333 C0,4.02487704 2.20665563,5.18575012 4.92887969,5.18575012 C7.54196468,5.18575012 9.67927152,4.11614815 9.84639073,2.76438123 C9.85378035,2.70711309 9.85775938,2.65044148 9.85775938,2.59317333 C9.85775938,1.16087309 7.65110375,0 4.92887969,0" id="Fill-4"></path>
                        </g>
                    </g>
                    <g id="Page-1-Copy-3" transform="translate(166.778146, 149.891525)" fill="url(#linearGradient-27)">
                        <g id="Group-3" transform="translate(0.000000, 1.364972)">
                            <path d="M4.92922075,2.96229692 C2.20699669,2.96229692 0.000341059603,1.76209047 0.000341059603,0.282637215 L0.000341059603,23.4686404 C0.000341059603,24.9493265 2.20699669,26.1489165 4.92922075,26.1489165 C7.65144481,26.1489165 9.85810044,24.9493265 9.85810044,23.4686404 C9.85810044,23.4100787 9.84673179,0.459555167 9.84673179,0.459555167 C9.67961258,1.85702205 7.54173731,2.96229692 4.92922075,2.96229692 Z" id="Fill-1"></path>
                        </g>
                        <g id="Group-6">
                            <path d="M4.92887969,0 C2.29476269,0 0.143813466,1.10471714 0.00682119205,2.49577502 C0.00227373068,2.54248738 0,2.5898064 0,2.63712542 C0,4.09309529 2.20665563,5.27364419 4.92887969,5.27364419 C7.54196468,5.27364419 9.67927152,4.18591337 9.84639073,2.81123515 C9.85378035,2.75299636 9.85775938,2.69536422 9.85775938,2.63712542 C9.85775938,1.1805489 7.65110375,0 4.92887969,0" id="Fill-4"></path>
                        </g>
                    </g>
                </g>
                <circle id="Oval-7-Copy" fill="url(#linearGradient-11)" filter="url(#filter-28)" cx="60.5" cy="120.5" r="4.5"></circle>
                <circle id="Oval-7-Copy-12" fill="url(#linearGradient-11)" opacity="0.359488225" filter="url(#filter-29)" cx="69.5" cy="34.5" r="4.5"></circle>
                <circle id="Oval-7-Copy-10" fill="url(#linearGradient-11)" opacity="0.625226449" filter="url(#filter-30)" cx="21" cy="163" r="3"></circle>
                <circle id="Oval-7-Copy-7" fill="url(#linearGradient-11)" opacity="0.530570652" filter="url(#filter-31)" cx="263.5" cy="92.5" r="7.5"></circle>
                <circle id="Oval-7-Copy-11" fill="url(#linearGradient-11)" opacity="0.157269022" filter="url(#filter-32)" cx="206.5" cy="49.5" r="10.5"></circle>
                <circle id="Oval-7-Copy-8" fill="url(#linearGradient-11)" opacity="0.530570652" filter="url(#filter-33)" cx="256" cy="120" r="4"></circle>
                <circle id="Oval-7-Copy-9" fill="url(#linearGradient-11)" opacity="0.530570652" filter="url(#filter-34)" cx="101" cy="5" r="5"></circle>
            </g>
        </g>
    </g>
</svg>